<svg width="40" height="40" viewBox="0 0 40 40" fill="none" xmlns="http://www.w3.org/2000/svg">
<rect width="40" height="40" rx="3" fill="#330000"/>
<path d="M2.5 15.1667C2.5 10.7329 2.5 8.51604 3.36287 6.82258C4.12186 5.33296 5.33296 4.12186 6.82258 3.36287C8.51604 2.5 10.7329 2.5 15.1667 2.5H24.8333C29.2671 2.5 31.484 2.5 33.1774 3.36287C34.667 4.12186 35.8781 5.33296 36.6371 6.82258C37.5 8.51604 37.5 10.7329 37.5 15.1667V24.8333C37.5 29.2671 37.5 31.484 36.6371 33.1774C35.8781 34.667 34.667 35.8781 33.1774 36.6371C31.484 37.5 29.2671 37.5 24.8333 37.5H15.1667C10.7329 37.5 8.51604 37.5 6.82258 36.6371C5.33296 35.8781 4.12186 34.667 3.36287 33.1774C2.5 31.484 2.5 29.2671 2.5 24.8333V15.1667Z" fill="#330000"/>
<path d="M19.4606 24.4953H14.0369L12.9334 28.0112C12.9027 28.1418 12.7825 28.2343 12.6516 28.2279H9.90456C9.7479 28.2279 9.69311 28.1396 9.7402 27.963L14.436 14.0923C14.483 13.9478 14.53 13.7832 14.5769 13.5986C14.6383 13.2773 14.6698 12.9507 14.6708 12.6233C14.6574 12.5266 14.7424 12.4412 14.8352 12.4547H18.5683C18.6777 12.4547 18.7403 12.4949 18.7562 12.5752L24.086 27.9871C24.1329 28.1478 24.086 28.228 23.9451 28.2279H20.8928C20.7857 28.2401 20.6835 28.1667 20.658 28.0594L19.4606 24.4953ZM14.8821 21.4611H18.5918C17.9823 19.3784 17.2945 17.323 16.737 15.2241C16.1355 17.3266 15.4793 19.4206 14.8821 21.4611Z" fill="#FF9A00"/>
<path d="M27.2554 15.0073C27.0159 15.0171 26.7771 14.9751 26.5546 14.8838C26.332 14.7925 26.1308 14.654 25.964 14.4775C25.7977 14.2933 25.6685 14.0772 25.5839 13.8417C25.4993 13.6061 25.4609 13.3557 25.4709 13.1049C25.4624 12.8565 25.505 12.6091 25.596 12.3788C25.6871 12.1485 25.8245 11.9405 25.9992 11.7684C26.1723 11.598 26.3765 11.4645 26.6002 11.3756C26.8239 11.2868 27.0625 11.2443 27.3023 11.2506C27.8658 11.2506 28.308 11.4232 28.6289 11.7684C28.7909 11.9477 28.9167 12.1581 28.9993 12.3874C29.0819 12.6168 29.1196 12.8606 29.1102 13.1049C29.12 13.3567 29.0804 13.6079 28.9937 13.8437C28.9069 14.0795 28.7749 14.2951 28.6054 14.4775C28.4282 14.6566 28.2168 14.7962 27.9845 14.8873C27.7521 14.9785 27.5039 15.0194 27.2554 15.0073ZM25.6353 27.987V16.4762C25.6353 16.3317 25.6976 16.2595 25.8231 16.2595H28.7111C28.8362 16.2595 28.8988 16.3317 28.8989 16.4762V27.987C28.8989 28.1477 28.8363 28.228 28.7111 28.2278H25.8466C25.7058 28.2278 25.6353 28.1476 25.6353 27.987Z" fill="#FF9A00"/>
</svg>
