<svg width="540" height="300" viewBox="0 0 540 300" fill="none" xmlns="http://www.w3.org/2000/svg">
<g clip-path="url(#clip0_562_281)">
<rect width="540" height="300" fill="#EBEBEB"/>
<g clip-path="url(#clip1_562_281)">
<mask id="mask0_562_281" style="mask-type:luminance" maskUnits="userSpaceOnUse" x="104" y="47" width="332" height="205">
<path d="M436 47H104V252H436V47Z" fill="white"/>
</mask>
<g mask="url(#mask0_562_281)">
<g filter="url(#filter0_f_562_281)">
<path d="M270.165 237.522C352.476 237.522 419.202 236.785 419.202 235.876C419.202 234.968 352.476 234.231 270.165 234.231C187.853 234.231 121.127 234.968 121.127 235.876C121.127 236.785 187.853 237.522 270.165 237.522Z" fill="black"/>
</g>
<path d="M136.607 56.2135C136.607 51.3068 140.589 47.3291 145.5 47.3291H395.816C400.73 47.3291 404.711 51.3068 404.711 56.2135V227.979C404.711 228.525 404.269 228.966 403.722 228.966H137.596C137.05 228.966 136.607 228.525 136.607 227.979V56.2135Z" fill="#1A202C" stroke="#4A5568" stroke-width="2"/>
<path d="M137.925 55.8842C137.925 51.8861 141.169 48.645 145.171 48.645H396.147C400.149 48.645 403.394 51.8861 403.394 55.8842V222.385H137.925V55.8842Z" fill="black"/>
<path d="M395.488 57.8589H144.841V215.146H395.488V57.8589Z" fill="white"/>
<path d="M225.962 133.391H224.746V139.135H225.962V133.391ZM228.135 136.644C228.138 136.089 228.469 135.764 228.952 135.764C229.432 135.764 229.721 136.078 229.718 136.605V139.135H230.914V136.392C230.914 135.388 230.325 134.771 229.426 134.771C228.786 134.771 228.323 135.085 228.129 135.587H228.079V134.827H226.939V139.135H228.135V136.644ZM235.444 136.055C235.337 135.262 234.697 134.771 233.608 134.771C232.505 134.771 231.778 135.282 231.781 136.111C231.778 136.757 232.185 137.175 233.027 137.343L233.774 137.491C234.15 137.567 234.321 137.704 234.327 137.921C234.321 138.175 234.043 138.358 233.625 138.358C233.198 138.358 232.915 138.175 232.842 137.825L231.666 137.887C231.778 138.711 232.48 139.219 233.622 139.219C234.739 139.219 235.539 138.65 235.542 137.8C235.539 137.177 235.132 136.804 234.296 136.633L233.516 136.476C233.114 136.389 232.965 136.252 232.968 136.044C232.965 135.786 233.257 135.618 233.628 135.618C234.043 135.618 234.29 135.845 234.349 136.123L235.444 136.055ZM238.26 139.219C239.327 139.219 240.045 138.7 240.214 137.901L239.108 137.828C238.987 138.156 238.678 138.327 238.28 138.327C237.682 138.327 237.303 137.932 237.303 137.289V137.287H240.239V136.958C240.239 135.495 239.352 134.771 238.213 134.771C236.944 134.771 236.121 135.671 236.121 137.001C236.121 138.366 236.932 139.219 238.26 139.219ZM237.303 136.546C237.328 136.055 237.702 135.663 238.232 135.663C238.752 135.663 239.111 136.033 239.113 136.546H237.303ZM241.019 139.135H242.215V136.698C242.215 136.168 242.603 135.803 243.13 135.803C243.296 135.803 243.523 135.831 243.636 135.867V134.807C243.529 134.782 243.38 134.766 243.259 134.766C242.777 134.766 242.381 135.046 242.224 135.579H242.179V134.827H241.019V139.135ZM246.764 134.827H245.952V133.795H244.756V134.827H244.167V135.724H244.756V137.968C244.751 138.812 245.326 139.23 246.194 139.194C246.502 139.182 246.721 139.12 246.842 139.081L246.654 138.192C246.595 138.204 246.469 138.232 246.357 138.232C246.118 138.232 245.952 138.142 245.952 137.811V135.724H246.764V134.827ZM249.058 133.391L251.155 137.104V139.135H252.361V137.104L254.458 133.391H253.097L251.786 135.865H251.73L250.419 133.391H249.058ZM256.153 139.219C257.461 139.219 258.275 138.324 258.275 136.998C258.275 135.663 257.461 134.771 256.153 134.771C254.845 134.771 254.03 135.663 254.03 136.998C254.03 138.324 254.845 139.219 256.153 139.219ZM256.158 138.293C255.555 138.293 255.246 137.741 255.246 136.989C255.246 136.238 255.555 135.683 256.158 135.683C256.751 135.683 257.059 136.238 257.059 136.989C257.059 137.741 256.751 138.293 256.158 138.293ZM261.817 137.301C261.82 137.878 261.424 138.181 260.995 138.181C260.543 138.181 260.251 137.864 260.248 137.357V134.827H259.052V137.57C259.055 138.577 259.645 139.191 260.512 139.191C261.16 139.191 261.626 138.857 261.82 138.352H261.865V139.135H263.013V134.827H261.817V137.301ZM263.969 139.135H265.165V136.698C265.165 136.168 265.553 135.803 266.08 135.803C266.246 135.803 266.473 135.831 266.586 135.867V134.807C266.479 134.782 266.33 134.766 266.21 134.766C265.727 134.766 265.331 135.046 265.174 135.579H265.129V134.827H263.969V139.135ZM271.094 139.135C272.846 139.135 273.907 138.052 273.907 136.257C273.907 134.468 272.846 133.391 271.111 133.391H269.056V139.135H271.094ZM270.272 138.094V134.431H271.046C272.124 134.431 272.694 134.981 272.694 136.257C272.694 137.539 272.124 138.094 271.043 138.094H270.272ZM276.75 139.219C277.816 139.219 278.535 138.7 278.704 137.901L277.597 137.828C277.477 138.156 277.168 138.327 276.769 138.327C276.171 138.327 275.793 137.932 275.793 137.289V137.287H278.729V136.958C278.729 135.495 277.841 134.771 276.702 134.771C275.433 134.771 274.611 135.671 274.611 137.001C274.611 138.366 275.422 139.219 276.75 139.219ZM275.793 136.546C275.818 136.055 276.191 135.663 276.722 135.663C277.241 135.663 277.6 136.033 277.603 136.546H275.793ZM283.097 136.055C282.99 135.262 282.35 134.771 281.261 134.771C280.157 134.771 279.43 135.282 279.433 136.111C279.43 136.757 279.838 137.175 280.68 137.343L281.426 137.491C281.802 137.567 281.974 137.704 281.979 137.921C281.974 138.175 281.696 138.358 281.277 138.358C280.851 138.358 280.567 138.175 280.494 137.825L279.318 137.887C279.43 138.711 280.132 139.219 281.275 139.219C282.392 139.219 283.192 138.65 283.194 137.8C283.192 137.177 282.785 136.804 281.948 136.633L281.168 136.476C280.767 136.389 280.618 136.252 280.621 136.044C280.618 135.786 280.91 135.618 281.28 135.618C281.696 135.618 281.943 135.845 282.002 136.123L283.097 136.055ZM283.948 139.135H285.144V134.827H283.948V139.135ZM284.548 134.272C284.905 134.272 285.197 134 285.197 133.666C285.197 133.335 284.905 133.063 284.548 133.063C284.195 133.063 283.903 133.335 283.903 133.666C283.903 134 284.195 134.272 284.548 134.272ZM288.044 140.84C289.276 140.84 290.152 140.279 290.152 139.177V134.827H288.965V135.551H288.92C288.76 135.2 288.409 134.771 287.688 134.771C286.742 134.771 285.942 135.506 285.942 136.972C285.942 138.405 286.719 139.073 287.69 139.073C288.378 139.073 288.762 138.728 288.92 138.372H288.97V139.16C288.97 139.752 288.591 139.982 288.072 139.982C287.544 139.982 287.277 139.752 287.179 139.491L286.073 139.64C286.217 140.318 286.882 140.84 288.044 140.84ZM288.069 138.175C287.483 138.175 287.162 137.71 287.162 136.967C287.162 136.235 287.477 135.722 288.069 135.722C288.65 135.722 288.976 136.212 288.976 136.967C288.976 137.727 288.645 138.175 288.069 138.175ZM292.3 136.644C292.302 136.089 292.633 135.764 293.116 135.764C293.596 135.764 293.885 136.078 293.883 136.605V139.135H295.079V136.392C295.079 135.388 294.489 134.771 293.591 134.771C292.951 134.771 292.488 135.085 292.294 135.587H292.243V134.827H291.104V139.135H292.3V136.644ZM297.873 139.135H299.089V136.762H301.556V139.135H302.768V133.391H301.556V135.761H299.089V133.391H297.873V139.135ZM305.713 139.219C306.78 139.219 307.498 138.7 307.667 137.901L306.561 137.828C306.44 138.156 306.131 138.327 305.733 138.327C305.135 138.327 304.756 137.932 304.756 137.289V137.287H307.692V136.958C307.692 135.495 306.805 134.771 305.666 134.771C304.396 134.771 303.574 135.671 303.574 137.001C303.574 138.366 304.385 139.219 305.713 139.219ZM304.756 136.546C304.781 136.055 305.154 135.663 305.685 135.663C306.204 135.663 306.564 136.033 306.566 136.546H304.756ZM308.472 139.135H309.668V136.698C309.668 136.168 310.056 135.803 310.583 135.803C310.749 135.803 310.977 135.831 311.088 135.867V134.807C310.982 134.782 310.833 134.766 310.712 134.766C310.229 134.766 309.834 135.046 309.677 135.579H309.632V134.827H308.472V139.135ZM313.471 139.219C314.538 139.219 315.257 138.7 315.425 137.901L314.319 137.828C314.198 138.156 313.89 138.327 313.491 138.327C312.893 138.327 312.514 137.932 312.514 137.289V137.287H315.45V136.958C315.45 135.495 314.563 134.771 313.423 134.771C312.155 134.771 311.332 135.671 311.332 137.001C311.332 138.366 312.144 139.219 313.471 139.219ZM312.514 136.546C312.539 136.055 312.913 135.663 313.443 135.663C313.963 135.663 314.322 136.033 314.325 136.546H312.514Z" fill="#2D3748"/>
<path d="M257.234 223.222V226.334H257.775V224.192H257.804L258.665 226.324H259.07L259.93 224.197H259.959V226.334H260.5V223.222H259.81L258.885 225.477H258.849L257.925 223.222H257.234ZM261.762 226.381C262.129 226.381 262.348 226.209 262.448 226.013H262.466V226.334H262.995V224.772C262.995 224.155 262.492 223.97 262.047 223.97C261.556 223.97 261.179 224.189 261.057 224.614L261.571 224.687C261.625 224.528 261.781 224.391 262.05 224.391C262.305 224.391 262.445 224.522 262.445 224.751V224.76C262.445 224.918 262.279 224.926 261.867 224.969C261.414 225.018 260.981 225.153 260.981 225.679C260.981 226.138 261.317 226.381 261.762 226.381ZM261.905 225.977C261.675 225.977 261.511 225.872 261.511 225.67C261.511 225.459 261.695 225.371 261.941 225.336C262.086 225.316 262.375 225.279 262.446 225.222V225.497C262.446 225.756 262.237 225.977 261.905 225.977ZM264.568 226.379C265.154 226.379 265.529 226.031 265.568 225.536H265.042C264.995 225.787 264.814 225.931 264.572 225.931C264.228 225.931 264.006 225.644 264.006 225.167C264.006 224.696 264.233 224.414 264.572 224.414C264.837 224.414 264.999 224.584 265.042 224.809H265.568C265.53 224.303 265.135 223.97 264.565 223.97C263.88 223.97 263.448 224.464 263.448 225.176C263.448 225.883 263.87 226.379 264.568 226.379ZM266.044 226.334H266.586V225.966H266.618C266.704 226.136 266.885 226.375 267.287 226.375C267.837 226.375 268.249 225.939 268.249 225.17C268.249 224.392 267.825 223.97 267.285 223.97C266.873 223.97 266.701 224.218 266.618 224.386H266.595V223.222H266.044V226.334ZM266.584 225.167C266.584 224.714 266.779 224.421 267.133 224.421C267.5 224.421 267.688 224.733 267.688 225.167C267.688 225.604 267.496 225.924 267.133 225.924C266.782 225.924 266.584 225.62 266.584 225.167ZM269.736 226.379C270.42 226.379 270.855 225.898 270.855 225.176C270.855 224.453 270.42 223.97 269.736 223.97C269.052 223.97 268.617 224.453 268.617 225.176C268.617 225.898 269.052 226.379 269.736 226.379ZM269.739 225.939C269.36 225.939 269.175 225.602 269.175 225.175C269.175 224.748 269.36 224.406 269.739 224.406C270.112 224.406 270.297 224.748 270.297 225.175C270.297 225.602 270.112 225.939 269.739 225.939ZM272.341 226.379C273.025 226.379 273.46 225.898 273.46 225.176C273.46 224.453 273.025 223.97 272.341 223.97C271.656 223.97 271.222 224.453 271.222 225.176C271.222 225.898 271.656 226.379 272.341 226.379ZM272.344 225.939C271.965 225.939 271.78 225.602 271.78 225.175C271.78 224.748 271.965 224.406 272.344 224.406C272.717 224.406 272.902 224.748 272.902 225.175C272.902 225.602 272.717 225.939 272.344 225.939ZM273.927 226.334H274.478V225.55L274.678 225.336L275.393 226.334H276.051L275.093 225.008L275.998 224H275.355L274.515 224.938H274.478V223.222H273.927V226.334ZM277.851 226.334L278.108 225.567H279.279L279.537 226.334H280.139L279.041 223.222H278.345L277.249 226.334H277.851ZM278.26 225.114L278.681 223.861H278.706L279.127 225.114H278.26ZM280.542 226.334H281.093V224H280.542V226.334ZM280.819 223.669C280.994 223.669 281.137 223.536 281.137 223.372C281.137 223.206 280.994 223.072 280.819 223.072C280.642 223.072 280.499 223.206 280.499 223.372C280.499 223.536 280.642 223.669 280.819 223.669ZM281.658 226.334H282.209V224.962C282.209 224.666 282.432 224.456 282.735 224.456C282.828 224.456 282.943 224.473 282.99 224.488V223.982C282.94 223.973 282.854 223.967 282.793 223.967C282.525 223.967 282.302 224.119 282.217 224.389H282.192V224H281.658V226.334Z" fill="#A0AEC0"/>
<path d="M104 228.637C104 228.273 104.295 227.979 104.659 227.979H435.341C435.703 227.979 436 228.273 436 228.637V229.953H104V228.637Z" fill="#A3ACB1"/>
<path d="M104 228.637C104 228.273 104.295 227.979 104.659 227.979H435.341C435.703 227.979 436 228.273 436 228.637V229.953H104V228.637Z" fill="url(#paint0_linear_562_281)"/>
<path d="M104 229.953H436L429.295 231.304C420.723 233.032 411.997 233.902 403.25 233.902H136.248C126.635 233.902 117.052 232.851 107.668 230.768L104 229.953Z" fill="#647279"/>
<path d="M104 229.953H436L429.295 231.304C420.723 233.032 411.997 233.902 403.25 233.902H136.248C126.635 233.902 117.052 232.851 107.668 230.768L104 229.953Z" fill="url(#paint1_linear_562_281)"/>
<path fill-rule="evenodd" clip-rule="evenodd" d="M245.638 227.979C245.807 229.082 244.985 229.953 247.603 229.953H292.726C295.344 229.953 294.522 229.082 294.691 227.979H245.638Z" fill="#96A1A8"/>
<path fill-rule="evenodd" clip-rule="evenodd" d="M245.638 227.979C245.807 229.082 244.985 229.953 247.603 229.953H292.726C295.344 229.953 294.522 229.082 294.691 227.979H245.638Z" fill="url(#paint2_linear_562_281)"/>
<path d="M395.65 56H145V216.678H395.65V56Z" fill="#DB5E20"/>
<path d="M230.815 155.796C229.614 155.796 228.816 155.515 228.421 154.953L215.424 137.558L209.195 143.331V154.749C209.195 155.447 208.492 155.796 207.085 155.796C205.695 155.796 205 155.447 205 154.749V120.955C205 120.257 205.695 119.908 207.085 119.908C208.492 119.908 209.195 120.257 209.195 120.955V139.551L229.965 120.368C230.291 120.061 230.806 119.908 231.51 119.908C231.75 119.908 232.042 119.942 232.385 120.01C233.037 120.164 233.363 120.427 233.363 120.802C233.363 120.921 233.285 121.058 233.131 121.211L218.718 134.544L233.234 154.085C233.354 154.255 233.414 154.408 233.414 154.544C233.414 155.021 232.994 155.37 232.153 155.592C231.724 155.728 231.278 155.796 230.815 155.796Z" fill="white"/>
<path d="M238.742 155.796C237.335 155.796 236.631 155.404 236.631 154.621V130.815C236.631 130.032 237.335 129.64 238.742 129.64C240.132 129.64 240.827 130.032 240.827 130.815V133.65C242.062 130.977 244.31 129.64 247.57 129.64C249.492 129.64 251.156 130.1 252.563 131.019C252.906 131.241 253.078 131.513 253.078 131.837C253.078 132.228 252.846 132.594 252.383 132.935C252.022 133.19 251.619 133.318 251.173 133.318C250.572 133.318 250.015 133.105 249.5 132.68C248.985 132.237 248.17 132.015 247.055 132.015C244.601 132.015 242.946 133.182 242.088 135.515C241.247 137.848 240.827 140.027 240.827 142.054V154.621C240.827 155.404 240.132 155.796 238.742 155.796Z" fill="white"/>
<path d="M268.777 127.086C268.554 127.086 268.331 127 268.108 126.83L258.328 119.678C257.968 119.423 257.788 119.065 257.788 118.605C257.788 118.129 257.993 117.609 258.405 117.047C258.954 116.349 259.555 116 260.207 116C260.55 116 260.85 116.119 261.108 116.358L269.833 124.429C270.193 124.787 270.373 125.11 270.373 125.4C270.373 125.706 270.219 126.055 269.91 126.447C269.567 126.873 269.189 127.086 268.777 127.086ZM268.391 155.796C264.531 155.796 261.331 154.629 258.791 152.297C256.269 149.947 255.008 146.822 255.008 142.922C255.008 138.972 256.286 135.77 258.843 133.318C261.417 130.866 264.668 129.64 268.597 129.64C272.286 129.64 275.426 130.636 278.017 132.628C280.625 134.621 281.929 137.55 281.929 141.415C281.929 142.335 281.234 142.795 279.845 142.795H259.177C259.177 145.519 259.967 147.98 261.545 150.176C263.141 152.373 265.432 153.472 268.417 153.472C270.596 153.472 272.544 152.893 274.26 151.735C276.113 150.509 277.116 149.104 277.271 147.52C277.357 146.788 278.043 146.422 279.33 146.422C280.737 146.422 281.44 146.805 281.44 147.571C281.44 148.116 281.252 148.78 280.874 149.563C280.188 150.994 279.055 152.22 277.477 153.242C274.903 154.944 271.875 155.796 268.391 155.796ZM277.708 140.445C277.279 134.791 274.242 131.964 268.597 131.964C263.553 131.964 260.49 134.791 259.409 140.445H277.708Z" fill="white"/>
<path d="M308.954 155.796C306.946 155.796 305.616 154.578 304.964 152.143C302.802 154.578 299.611 155.796 295.39 155.796C292.799 155.796 290.577 155.277 288.724 154.238C286.339 152.927 285.147 151.011 285.147 148.491C285.147 146.669 285.661 145.204 286.691 144.097C287.737 142.973 289.11 142.258 290.809 141.952C292.525 141.628 294.215 141.466 295.879 141.466C296.428 141.466 297.046 141.483 297.732 141.517C298.436 141.551 299.148 141.568 299.868 141.568C302.013 141.568 303.54 141.288 304.45 140.726V138.146C304.45 134.025 302.047 131.964 297.243 131.964C295.441 131.964 293.846 132.416 292.456 133.318C290.877 134.34 290.088 135.566 290.088 136.996C290.088 137.78 289.393 138.171 288.003 138.171C286.614 138.171 285.919 137.78 285.919 136.996C285.953 135.004 287.068 133.276 289.264 131.811C291.444 130.364 294.103 129.64 297.243 129.64C299.903 129.64 302.468 130.287 304.939 131.581C307.409 132.875 308.645 135.064 308.645 138.146V149.359C308.645 150.619 308.808 151.615 309.134 152.348C309.443 152.995 309.889 153.489 310.472 153.829C310.85 154.05 311.038 154.314 311.038 154.621C311.038 155.404 310.343 155.796 308.954 155.796ZM295.39 153.472C297.415 153.472 299.431 152.867 301.438 151.658C303.446 150.449 304.45 148.712 304.45 146.447V143.535C303.334 143.774 301.987 143.893 300.409 143.893C299.62 143.893 298.83 143.876 298.041 143.842C297.252 143.791 296.462 143.765 295.673 143.765C294.644 143.748 293.571 143.85 292.456 144.072C291.341 144.276 290.5 144.881 289.934 145.885C289.505 146.635 289.29 147.477 289.29 148.414C289.325 150.066 289.934 151.334 291.118 152.22C292.181 153.054 293.606 153.472 295.39 153.472Z" fill="white"/>
<path d="M324.062 155.796C321.745 155.796 319.455 155.285 317.19 154.263C314.942 153.225 313.569 151.471 313.072 149.001C313.003 148.695 312.969 148.465 312.969 148.312C312.969 147.563 313.681 147.188 315.105 147.188C316.289 147.188 316.967 147.52 317.138 148.184C318.065 151.709 320.373 153.472 324.062 153.472C325.606 153.472 327.116 153.012 328.591 152.092C330.084 151.173 330.831 149.836 330.831 148.082C330.831 146.958 330.024 146.047 328.411 145.349C327.347 144.872 325.94 144.506 324.19 144.251C322.921 144.063 321.642 143.859 320.355 143.637C319.068 143.416 317.85 142.922 316.701 142.156C314.624 140.76 313.586 138.963 313.586 136.766C313.586 134.229 314.813 132.407 317.267 131.3C319.721 130.193 322.011 129.64 324.139 129.64C326.249 129.64 328.291 130.117 330.264 131.07C332.238 132.024 333.542 133.565 334.176 135.694C334.262 135.983 334.305 136.187 334.305 136.307C334.305 137.022 333.602 137.379 332.195 137.379C330.976 137.379 330.29 137.056 330.136 136.409C329.398 133.446 327.399 131.964 324.139 131.964C322.749 131.964 321.342 132.356 319.918 133.139C318.494 133.906 317.782 135.089 317.782 136.69C317.782 137.797 318.682 138.708 320.484 139.423C321.617 139.883 322.998 140.24 324.628 140.496C325.846 140.666 327.081 140.879 328.334 141.134C329.587 141.373 330.796 141.866 331.963 142.616C333.988 143.927 335 145.698 335 147.929C335 150.67 333.773 152.671 331.32 153.931C328.883 155.174 326.464 155.796 324.062 155.796Z" fill="white"/>
</g>
</g>
</g>
<defs>
<filter id="filter0_f_562_281" x="77.127" y="190.231" width="386.075" height="91.291" filterUnits="userSpaceOnUse" color-interpolation-filters="sRGB">
<feFlood flood-opacity="0" result="BackgroundImageFix"/>
<feBlend mode="normal" in="SourceGraphic" in2="BackgroundImageFix" result="shape"/>
<feGaussianBlur stdDeviation="22" result="effect1_foregroundBlur_562_281"/>
</filter>
<linearGradient id="paint0_linear_562_281" x1="104" y1="228.966" x2="436" y2="228.966" gradientUnits="userSpaceOnUse">
<stop stop-color="#0D1012"/>
<stop offset="0.0295345" stop-color="#CAD4DB"/>
<stop offset="0.0625" stop-color="#242729"/>
<stop offset="0.133609" stop-color="#A3ACB1"/>
<stop offset="0.865967" stop-color="#A3ACB1"/>
<stop offset="0.941937" stop-color="#242729"/>
<stop offset="0.971275" stop-color="#CAD4DB"/>
<stop offset="0.996436" stop-color="#0D1012"/>
</linearGradient>
<linearGradient id="paint1_linear_562_281" x1="270" y1="229.953" x2="270" y2="233.902" gradientUnits="userSpaceOnUse">
<stop stop-color="#7A7F83"/>
<stop offset="1" stop-color="#0B0B0E"/>
</linearGradient>
<linearGradient id="paint2_linear_562_281" x1="248.097" y1="229.178" x2="293.22" y2="229.178" gradientUnits="userSpaceOnUse">
<stop stop-color="#3C3C3C"/>
<stop offset="0.317518" stop-color="#3C3C3C" stop-opacity="0"/>
<stop offset="0.660584" stop-color="#3C3C3C" stop-opacity="0"/>
<stop offset="1" stop-color="#444444"/>
</linearGradient>
<clipPath id="clip0_562_281">
<rect width="540" height="300" fill="white"/>
</clipPath>
<clipPath id="clip1_562_281">
<rect width="332" height="205" fill="white" transform="translate(104 47)"/>
</clipPath>
</defs>
</svg>
