<svg width="1920" height="1080" viewBox="0 0 1920 1080" fill="none" xmlns="http://www.w3.org/2000/svg">
<g clip-path="url(#clip0_428_570)">
<rect width="1920" height="1080" fill="black"/>
<rect width="1920" height="1080" fill="#3A7BBF"/>
<path d="M1577.88 1013.93C1579.11 1014.46 1580.08 1015.26 1580.8 1016.34C1581.54 1017.4 1581.92 1018.61 1581.92 1019.98C1581.92 1021.92 1581.23 1023.58 1579.86 1024.95C1578.5 1026.32 1576.84 1027 1574.9 1027H1563.92V1001.8H1574.07C1575.94 1001.8 1577.54 1002.47 1578.86 1003.82C1580.18 1005.14 1580.84 1006.72 1580.84 1008.57C1580.84 1010.92 1579.85 1012.71 1577.88 1013.93ZM1574.07 1004.18H1566.44V1012.96H1574.07C1575.24 1012.96 1576.24 1012.54 1577.06 1011.7C1577.9 1010.84 1578.32 1009.79 1578.32 1008.57C1578.32 1007.37 1577.9 1006.34 1577.06 1005.47C1576.24 1004.61 1575.24 1004.18 1574.07 1004.18ZM1574.9 1024.62C1576.14 1024.62 1577.2 1024.18 1578.06 1023.29C1578.95 1022.38 1579.4 1021.28 1579.4 1019.98C1579.4 1018.71 1578.95 1017.62 1578.06 1016.7C1577.2 1015.79 1576.14 1015.34 1574.9 1015.34H1566.44V1024.62H1574.9ZM1588.26 1011.99C1589.36 1009.8 1591.26 1008.71 1593.94 1008.71V1011.02C1592.31 1011.02 1590.96 1011.5 1589.88 1012.46C1588.8 1013.42 1588.26 1014.93 1588.26 1016.99V1027H1585.88V1009H1588.26V1011.99ZM1611.59 1009H1613.97V1027H1611.59V1023.47C1609.93 1026.11 1607.51 1027.43 1604.32 1027.43C1601.75 1027.43 1599.55 1026.52 1597.73 1024.7C1595.93 1022.87 1595.03 1020.64 1595.03 1018C1595.03 1015.36 1595.93 1013.13 1597.73 1011.3C1599.55 1009.48 1601.75 1008.57 1604.32 1008.57C1607.51 1008.57 1609.93 1009.89 1611.59 1012.53V1009ZM1599.46 1023.08C1600.83 1024.44 1602.51 1025.13 1604.5 1025.13C1606.49 1025.13 1608.17 1024.44 1609.54 1023.08C1610.91 1021.68 1611.59 1019.99 1611.59 1018C1611.59 1016.01 1610.91 1014.33 1609.54 1012.96C1608.17 1011.57 1606.49 1010.87 1604.5 1010.87C1602.51 1010.87 1600.83 1011.57 1599.46 1012.96C1598.09 1014.33 1597.41 1016.01 1597.41 1018C1597.41 1019.99 1598.09 1021.68 1599.46 1023.08ZM1627.42 1008.57C1629.6 1008.57 1631.32 1009.24 1632.57 1010.58C1633.84 1011.9 1634.48 1013.69 1634.48 1015.95V1027H1632.1V1015.95C1632.1 1014.34 1631.67 1013.09 1630.8 1012.2C1629.96 1011.32 1628.76 1010.87 1627.2 1010.87C1625.48 1010.87 1624.07 1011.42 1622.99 1012.53C1621.91 1013.61 1621.37 1015.29 1621.37 1017.57V1027H1619V1009H1621.37V1011.81C1622.72 1009.65 1624.73 1008.57 1627.42 1008.57ZM1654.55 1001.8H1656.93V1027H1654.55V1023.47C1652.89 1026.11 1650.47 1027.43 1647.28 1027.43C1644.71 1027.43 1642.51 1026.52 1640.69 1024.7C1638.89 1022.87 1637.99 1020.64 1637.99 1018C1637.99 1015.36 1638.89 1013.13 1640.69 1011.3C1642.51 1009.48 1644.71 1008.57 1647.28 1008.57C1650.47 1008.57 1652.89 1009.89 1654.55 1012.53V1001.8ZM1642.42 1023.08C1643.79 1024.44 1645.47 1025.13 1647.46 1025.13C1649.45 1025.13 1651.13 1024.44 1652.5 1023.08C1653.87 1021.68 1654.55 1019.99 1654.55 1018C1654.55 1016.01 1653.87 1014.33 1652.5 1012.96C1651.13 1011.57 1649.45 1010.87 1647.46 1010.87C1645.47 1010.87 1643.79 1011.57 1642.42 1012.96C1641.05 1014.33 1640.37 1016.01 1640.37 1018C1640.37 1019.99 1641.05 1021.68 1642.42 1023.08ZM1695.4 1015.01V1016.31C1695.4 1019.43 1694.29 1022.07 1692.05 1024.23C1689.82 1026.36 1686.83 1027.43 1683.09 1027.43C1679.27 1027.43 1676.12 1026.17 1673.62 1023.65C1671.13 1021.13 1669.88 1018.05 1669.88 1014.4C1669.88 1010.75 1671.13 1007.67 1673.62 1005.15C1676.12 1002.63 1679.27 1001.37 1683.09 1001.37C1685.42 1001.37 1687.55 1001.93 1689.5 1003.06C1691.44 1004.19 1692.94 1005.69 1694 1007.56L1691.77 1008.86C1690.97 1007.32 1689.8 1006.1 1688.24 1005.18C1686.68 1004.27 1684.96 1003.82 1683.09 1003.82C1679.95 1003.82 1677.38 1004.84 1675.39 1006.88C1673.39 1008.92 1672.4 1011.42 1672.4 1014.4C1672.4 1017.38 1673.39 1019.88 1675.39 1021.92C1677.38 1023.96 1679.95 1024.98 1683.09 1024.98C1685.92 1024.98 1688.19 1024.28 1689.89 1022.86C1691.6 1021.42 1692.57 1019.6 1692.81 1017.39H1682.8V1015.01H1695.4ZM1712.21 1009H1714.59V1027H1712.21V1024.19C1710.87 1026.35 1708.85 1027.43 1706.16 1027.43C1703.98 1027.43 1702.25 1026.77 1700.98 1025.45C1699.73 1024.11 1699.11 1022.31 1699.11 1020.05V1009H1701.48V1020.05C1701.48 1021.66 1701.9 1022.91 1702.74 1023.8C1703.61 1024.68 1704.82 1025.13 1706.38 1025.13C1708.11 1025.13 1709.51 1024.59 1710.59 1023.51C1711.67 1022.4 1712.21 1020.71 1712.21 1018.43V1009ZM1722.03 1004.68C1721.69 1005.02 1721.28 1005.18 1720.8 1005.18C1720.32 1005.18 1719.91 1005.02 1719.58 1004.68C1719.24 1004.34 1719.07 1003.94 1719.07 1003.46C1719.07 1002.98 1719.24 1002.57 1719.58 1002.23C1719.91 1001.9 1720.32 1001.73 1720.8 1001.73C1721.28 1001.73 1721.69 1001.9 1722.03 1002.23C1722.36 1002.57 1722.53 1002.98 1722.53 1003.46C1722.53 1003.94 1722.36 1004.34 1722.03 1004.68ZM1719.61 1027V1009H1721.99V1027H1719.61ZM1742.51 1001.8H1744.89V1027H1742.51V1023.47C1740.86 1026.11 1738.43 1027.43 1735.24 1027.43C1732.67 1027.43 1730.48 1026.52 1728.65 1024.7C1726.85 1022.87 1725.95 1020.64 1725.95 1018C1725.95 1015.36 1726.85 1013.13 1728.65 1011.3C1730.48 1009.48 1732.67 1008.57 1735.24 1008.57C1738.43 1008.57 1740.86 1009.89 1742.51 1012.53V1001.8ZM1730.38 1023.08C1731.75 1024.44 1733.43 1025.13 1735.42 1025.13C1737.41 1025.13 1739.09 1024.44 1740.46 1023.08C1741.83 1021.68 1742.51 1019.99 1742.51 1018C1742.51 1016.01 1741.83 1014.33 1740.46 1012.96C1739.09 1011.57 1737.41 1010.87 1735.42 1010.87C1733.43 1010.87 1731.75 1011.57 1730.38 1012.96C1729.01 1014.33 1728.33 1016.01 1728.33 1018C1728.33 1019.99 1729.01 1021.68 1730.38 1023.08ZM1758.23 1008.57C1760.9 1008.57 1763.05 1009.52 1764.68 1011.41C1766.33 1013.28 1767.16 1015.5 1767.16 1018.07C1767.16 1018.34 1767.14 1018.71 1767.09 1019.19H1751.29C1751.53 1021.01 1752.29 1022.46 1753.59 1023.54C1754.91 1024.6 1756.53 1025.13 1758.45 1025.13C1759.82 1025.13 1760.99 1024.85 1761.98 1024.3C1762.99 1023.72 1763.74 1022.98 1764.25 1022.07L1766.33 1023.29C1765.54 1024.56 1764.46 1025.57 1763.09 1026.32C1761.73 1027.06 1760.17 1027.43 1758.41 1027.43C1755.58 1027.43 1753.28 1026.54 1751.5 1024.77C1749.73 1022.99 1748.84 1020.74 1748.84 1018C1748.84 1015.31 1749.71 1013.07 1751.47 1011.27C1753.22 1009.47 1755.47 1008.57 1758.23 1008.57ZM1758.23 1010.87C1756.36 1010.87 1754.79 1011.44 1753.52 1012.56C1752.27 1013.67 1751.53 1015.11 1751.29 1016.88H1764.71C1764.47 1014.99 1763.74 1013.51 1762.52 1012.46C1761.29 1011.4 1759.87 1010.87 1758.23 1010.87ZM1770.94 1027V1000.72H1773.32V1027H1770.94ZM1780.77 1004.68C1780.44 1005.02 1780.03 1005.18 1779.55 1005.18C1779.07 1005.18 1778.66 1005.02 1778.32 1004.68C1777.99 1004.34 1777.82 1003.94 1777.82 1003.46C1777.82 1002.98 1777.99 1002.57 1778.32 1002.23C1778.66 1001.9 1779.07 1001.73 1779.55 1001.73C1780.03 1001.73 1780.44 1001.9 1780.77 1002.23C1781.11 1002.57 1781.28 1002.98 1781.28 1003.46C1781.28 1003.94 1781.11 1004.34 1780.77 1004.68ZM1778.36 1027V1009H1780.74V1027H1778.36ZM1794.2 1008.57C1796.39 1008.57 1798.1 1009.24 1799.35 1010.58C1800.62 1011.9 1801.26 1013.69 1801.26 1015.95V1027H1798.88V1015.95C1798.88 1014.34 1798.45 1013.09 1797.59 1012.2C1796.75 1011.32 1795.55 1010.87 1793.99 1010.87C1792.26 1010.87 1790.85 1011.42 1789.77 1012.53C1788.69 1013.61 1788.15 1015.29 1788.15 1017.57V1027H1785.78V1009H1788.15V1011.81C1789.5 1009.65 1791.51 1008.57 1794.2 1008.57ZM1814.17 1008.57C1816.83 1008.57 1818.98 1009.52 1820.61 1011.41C1822.27 1013.28 1823.1 1015.5 1823.1 1018.07C1823.1 1018.34 1823.07 1018.71 1823.02 1019.19H1807.22C1807.46 1021.01 1808.23 1022.46 1809.52 1023.54C1810.84 1024.6 1812.46 1025.13 1814.38 1025.13C1815.75 1025.13 1816.93 1024.85 1817.91 1024.3C1818.92 1023.72 1819.68 1022.98 1820.18 1022.07L1822.27 1023.29C1821.48 1024.56 1820.4 1025.57 1819.03 1026.32C1817.66 1027.06 1816.1 1027.43 1814.35 1027.43C1811.52 1027.43 1809.21 1026.54 1807.44 1024.77C1805.66 1022.99 1804.77 1020.74 1804.77 1018C1804.77 1015.31 1805.65 1013.07 1807.4 1011.27C1809.15 1009.47 1811.41 1008.57 1814.17 1008.57ZM1814.17 1010.87C1812.3 1010.87 1810.72 1011.44 1809.45 1012.56C1808.2 1013.67 1807.46 1015.11 1807.22 1016.88H1820.65C1820.41 1014.99 1819.68 1013.51 1818.45 1012.46C1817.23 1011.4 1815.8 1010.87 1814.17 1010.87ZM1828.04 1013.72C1828.04 1014.53 1828.4 1015.18 1829.12 1015.66C1829.84 1016.14 1830.72 1016.51 1831.75 1016.78C1832.78 1017.04 1833.82 1017.34 1834.85 1017.68C1835.88 1017.99 1836.76 1018.53 1837.48 1019.3C1838.2 1020.04 1838.56 1021.02 1838.56 1022.25C1838.56 1023.78 1837.94 1025.03 1836.72 1025.99C1835.52 1026.95 1833.96 1027.43 1832.04 1027.43C1830.31 1027.43 1828.84 1027.05 1827.61 1026.28C1826.41 1025.51 1825.57 1024.52 1825.09 1023.29L1827.11 1022.1C1827.44 1023.04 1828.04 1023.78 1828.91 1024.34C1829.8 1024.86 1830.84 1025.13 1832.04 1025.13C1833.22 1025.13 1834.2 1024.9 1834.99 1024.44C1835.78 1023.96 1836.18 1023.23 1836.18 1022.25C1836.18 1021.43 1835.82 1020.78 1835.1 1020.3C1834.38 1019.82 1833.5 1019.45 1832.47 1019.19C1831.44 1018.92 1830.41 1018.64 1829.38 1018.32C1828.34 1017.99 1827.47 1017.45 1826.75 1016.7C1826.03 1015.94 1825.67 1014.94 1825.67 1013.72C1825.67 1012.25 1826.24 1011.03 1827.4 1010.04C1828.57 1009.06 1830.05 1008.57 1831.82 1008.57C1833.29 1008.57 1834.57 1008.9 1835.68 1009.58C1836.78 1010.22 1837.6 1011.11 1838.12 1012.24L1836.14 1013.39C1835.45 1011.71 1834.01 1010.87 1831.82 1010.87C1830.79 1010.87 1829.9 1011.12 1829.16 1011.63C1828.42 1012.11 1828.04 1012.8 1828.04 1013.72Z" fill="white"/>
<path d="M80.96 1027V1025.49L87.008 1019.39C88.736 1017.66 89.6 1016.18 89.6 1014.95C89.6 1013.88 89.264 1013.05 88.592 1012.46C87.936 1011.85 87.144 1011.54 86.216 1011.54C84.488 1011.54 83.232 1012.34 82.448 1013.92L81.032 1013.08C81.56 1012.04 82.28 1011.26 83.192 1010.73C84.104 1010.18 85.112 1009.91 86.216 1009.91C87.56 1009.91 88.736 1010.37 89.744 1011.28C90.768 1012.18 91.28 1013.4 91.28 1014.95C91.28 1015.93 91.008 1016.86 90.464 1017.76C89.92 1018.66 89.152 1019.6 88.16 1020.59L83.36 1025.37H91.64V1027H80.96ZM104.615 1024.94C103.511 1026.5 101.951 1027.29 99.935 1027.29C97.919 1027.29 96.351 1026.5 95.231 1024.94C94.127 1023.35 93.575 1021.24 93.575 1018.6C93.575 1015.96 94.127 1013.86 95.231 1012.29C96.351 1010.7 97.919 1009.91 99.935 1009.91C101.951 1009.91 103.511 1010.7 104.615 1012.29C105.735 1013.86 106.295 1015.96 106.295 1018.6C106.295 1021.24 105.735 1023.35 104.615 1024.94ZM96.479 1023.81C97.311 1025.04 98.463 1025.66 99.935 1025.66C101.407 1025.66 102.551 1025.04 103.367 1023.81C104.199 1022.58 104.615 1020.84 104.615 1018.6C104.615 1016.36 104.199 1014.62 103.367 1013.39C102.551 1012.16 101.407 1011.54 99.935 1011.54C98.463 1011.54 97.311 1012.16 96.479 1013.39C95.663 1014.62 95.255 1016.36 95.255 1018.6C95.255 1020.84 95.663 1022.58 96.479 1023.81ZM108.218 1027V1025.49L114.266 1019.39C115.994 1017.66 116.858 1016.18 116.858 1014.95C116.858 1013.88 116.522 1013.05 115.85 1012.46C115.194 1011.85 114.402 1011.54 113.474 1011.54C111.746 1011.54 110.49 1012.34 109.706 1013.92L108.29 1013.08C108.818 1012.04 109.538 1011.26 110.45 1010.73C111.362 1010.18 112.37 1009.91 113.474 1009.91C114.818 1009.91 115.994 1010.37 117.002 1011.28C118.026 1012.18 118.538 1013.4 118.538 1014.95C118.538 1015.93 118.266 1016.86 117.722 1017.76C117.178 1018.66 116.41 1019.6 115.418 1020.59L110.618 1025.37H118.898V1027H108.218ZM126.761 1017.18C128.105 1017.36 129.209 1017.88 130.073 1018.74C130.953 1019.59 131.393 1020.72 131.393 1022.13C131.393 1023.73 130.841 1024.99 129.737 1025.92C128.649 1026.83 127.321 1027.29 125.753 1027.29C124.505 1027.29 123.393 1027 122.417 1026.42C121.441 1025.85 120.753 1025.02 120.353 1023.95L121.745 1023.14C122.017 1023.97 122.505 1024.6 123.209 1025.03C123.913 1025.45 124.761 1025.66 125.753 1025.66C126.905 1025.66 127.849 1025.35 128.585 1024.74C129.337 1024.12 129.713 1023.25 129.713 1022.13C129.713 1021.01 129.337 1020.14 128.585 1019.54C127.849 1018.91 126.905 1018.6 125.753 1018.6V1018.58L125.729 1018.6H125.273L124.553 1017.5L128.729 1011.78H120.833V1010.2H130.673V1011.78L126.761 1017.18Z" fill="white"/>
<path d="M1832.73 89.808L1836.5 85.488H1821.07V84.096H1836.48L1832.73 79.8H1834.34L1838.78 84.792L1834.34 89.808H1832.73Z" fill="white"/>
<rect opacity="0.4" x="40" y="80" width="1" height="960" fill="white"/>
<rect x="40" y="1000" width="1" height="40" fill="white"/>
<rect x="40" y="80" width="1" height="376" fill="white"/>
<rect opacity="0.4" x="1863" y="354" width="1" height="80" fill="white"/>
<path d="M1858.12 573.257L1858.12 577.807L1861.74 577.807L1861.74 573.467L1862.66 573.467L1862.66 577.807L1867 577.807L1867 578.787L1857.2 578.787L1857.2 573.257L1858.12 573.257ZM1866.08 567.802L1866.08 563.322L1867 563.322L1867 568.782L1857.2 568.782L1857.2 567.802L1866.08 567.802ZM1867 552.321L1864.59 553.231L1864.59 557.879L1867 558.789L1867 559.825L1857.2 556.059L1857.2 555.051L1867 551.285L1867 552.321ZM1863.67 557.529L1863.67 553.581L1858.42 555.555L1863.67 557.529ZM1867 545.155L1857.2 548.767L1857.2 547.703L1865.7 544.651L1857.2 541.599L1857.2 540.535L1867 544.147L1867 545.155ZM1857.2 536.47L1857.2 535.49L1867 535.49L1867 536.47L1857.2 536.47ZM1865.7 522.337C1866.68 523.317 1867.17 524.516 1867.17 525.935C1867.17 527.354 1866.68 528.553 1865.7 529.533C1864.71 530.513 1863.51 531.003 1862.1 531.003C1860.69 531.003 1859.5 530.513 1858.52 529.533C1857.53 528.553 1857.03 527.354 1857.03 525.935C1857.03 524.516 1857.53 523.317 1858.52 522.337C1859.5 521.357 1860.69 520.867 1862.1 520.867C1863.51 520.867 1864.71 521.357 1865.7 522.337ZM1865.03 528.847C1865.82 528.063 1866.22 527.092 1866.22 525.935C1866.22 524.778 1865.82 523.807 1865.03 523.023C1864.22 522.239 1863.25 521.847 1862.1 521.847C1860.95 521.847 1859.98 522.239 1859.19 523.023C1858.39 523.807 1857.98 524.778 1857.98 525.935C1857.98 527.092 1858.39 528.063 1859.19 528.847C1859.98 529.631 1860.95 530.023 1862.1 530.023C1863.25 530.023 1864.22 529.631 1865.03 528.847ZM1857.2 506.311C1857.2 504.976 1857.68 503.875 1858.63 503.007C1859.57 502.13 1860.73 501.691 1862.1 501.691C1863.47 501.691 1864.63 502.13 1865.59 503.007C1866.53 503.875 1867 504.976 1867 506.311L1867 510.091L1857.2 510.091L1857.2 506.311ZM1866.08 506.311C1866.08 505.238 1865.69 504.36 1864.93 503.679C1864.16 502.988 1863.22 502.643 1862.1 502.643C1860.98 502.643 1860.04 502.988 1859.27 503.679C1858.51 504.36 1858.12 505.238 1858.12 506.311L1858.12 509.111L1866.08 509.111L1866.08 506.311ZM1865.7 489.109C1866.68 490.089 1867.17 491.288 1867.17 492.707C1867.17 494.126 1866.68 495.325 1865.7 496.305C1864.71 497.285 1863.51 497.775 1862.1 497.775C1860.69 497.775 1859.5 497.285 1858.52 496.305C1857.53 495.325 1857.03 494.126 1857.03 492.707C1857.03 491.288 1857.53 490.089 1858.52 489.109C1859.5 488.129 1860.69 487.639 1862.1 487.639C1863.51 487.639 1864.71 488.129 1865.7 489.109ZM1865.03 495.619C1865.82 494.835 1866.22 493.864 1866.22 492.707C1866.22 491.55 1865.82 490.579 1865.03 489.795C1864.22 489.011 1863.25 488.619 1862.1 488.619C1860.95 488.619 1859.98 489.011 1859.19 489.795C1858.39 490.579 1857.98 491.55 1857.98 492.707C1857.98 493.864 1858.39 494.835 1859.19 495.619C1859.98 496.403 1860.95 496.795 1862.1 496.795C1863.25 496.795 1864.22 496.403 1865.03 495.619ZM1867 477.143L1863.08 479.439L1863.08 482.183L1867 482.183L1867 483.163L1857.2 483.163L1857.2 479.243C1857.2 478.431 1857.49 477.74 1858.07 477.171C1858.64 476.592 1859.33 476.303 1860.14 476.303C1860.8 476.303 1861.4 476.504 1861.92 476.905C1862.43 477.297 1862.78 477.801 1862.95 478.417L1867 476.023L1867 477.143ZM1858.12 482.183L1862.16 482.183L1862.16 479.243C1862.16 478.702 1861.96 478.24 1861.57 477.857C1861.17 477.474 1860.69 477.283 1860.14 477.283C1859.58 477.283 1859.1 477.474 1858.71 477.857C1858.32 478.24 1858.12 478.702 1858.12 479.243L1858.12 482.183ZM1857.2 471.818L1857.2 470.838L1867 470.838L1867 471.818L1857.2 471.818ZM1867 459.268L1864.59 460.178L1864.59 464.826L1867 465.736L1867 466.772L1857.2 463.006L1857.2 461.998L1867 458.232L1867 459.268ZM1863.67 464.476L1863.67 460.528L1858.42 462.502L1863.67 464.476Z" fill="white"/>
<rect opacity="0.4" x="1863" y="604" width="1" height="80" fill="white"/>
<path d="M973.266 393.803C967 395.403 959.133 399.403 954.2 403.536C951.666 405.669 948.066 407.003 943.533 407.403C931.133 408.603 924.333 416.603 924.333 430.069C924.466 442.603 931.666 453.669 941.8 456.736C949 458.869 948.466 461.003 941 460.069C933.533 459.003 924.866 454.736 922.866 451.003C922.066 449.403 921.666 445.803 921.933 443.003C922.466 437.669 921.266 436.069 919.8 439.936C917.933 445.003 919 452.336 922.333 456.336C929.133 464.203 945.8 466.203 954.733 459.936C957.533 458.069 960.466 456.469 961.266 456.469C962.733 456.469 965 451.803 966.466 445.403C967.8 439.669 973 436.469 980.6 436.469C991.933 436.469 999 443.803 999 455.669C999 462.469 997.4 464.469 988.466 469.003C973.666 476.603 953.8 477.803 889 475.136C856.333 473.936 836.2 474.603 835.4 477.269C834.866 478.736 845.933 479.269 922.333 481.403C942.466 481.936 952.866 482.603 950.333 483.269C944.866 484.869 906.333 489.536 890.6 490.603C883.4 491.136 877.266 492.069 876.866 492.603C875.666 494.469 903.666 493.936 923 491.669C949.933 488.603 966.333 484.869 987.666 477.003C989.8 476.203 989.533 476.869 986.466 480.203C978.333 489.003 945.4 502.203 926.6 504.203C920.6 504.869 918.333 505.669 918.333 507.136C918.333 514.069 952.333 506.603 975.666 494.603C993.933 485.269 1004.33 471.936 1005.4 456.469C1006.6 439.403 993.266 426.603 976.866 429.136C973.666 429.536 971 429.669 971 429.269C971 428.869 973.533 427.136 976.733 425.536C981.133 423.269 984.733 422.603 993.666 422.603C999.933 422.469 1007 423.003 1009.4 423.536C1012.87 424.469 1013.67 424.336 1013.67 422.603C1013.67 417.669 996.733 415.136 984.6 418.336C968.866 422.336 959.4 431.136 957.8 443.269L957 450.203L952.866 446.736C947.266 441.936 945.266 436.603 945.933 428.069C947 415.669 957.533 403.936 971.8 399.669C978.6 397.669 998.866 397.269 1008.07 399.003C1013 399.936 1013.67 399.803 1013.67 397.803C1013.67 396.469 1012.6 395.003 1011.4 394.469C1007.67 392.869 978.866 392.469 973.266 393.803ZM943.666 416.203C936.866 429.669 938.066 440.069 947.4 448.736C953.133 454.203 951.933 455.269 943.933 451.936C935.266 448.336 928.333 437.136 928.333 426.736C928.333 417.936 935.533 409.936 943.266 409.803H946.866L943.666 416.203Z" fill="white"/>
<path d="M1274 553.006V562.147H1188.85V580.43H1263.36V589.571H1188.85V607.854H1274V616.995H1178.2V553.006H1274Z" fill="white"/>
<path d="M1167.56 553.006V562.147H1082.41V580.43H1156.92V589.571H1082.41V607.854H1167.56V616.995H1071.76V553.006H1167.56Z" fill="white"/>
<path d="M975.966 569.14V616.994H965.322V552L1050.47 600.86V553.006H1061.12V618L975.966 569.14Z" fill="white"/>
<path d="M869.524 569.14V616.994H858.88V552L944.032 600.86V553.006H954.677V618L869.524 569.14Z" fill="white"/>
<path d="M752.442 598.712V553.006H763.086V598.712C763.086 604.806 766.634 607.854 773.731 607.854H826.951C834.047 607.854 837.595 604.806 837.595 598.712V553.006H848.239V598.712C848.239 610.901 841.143 616.995 826.951 616.995H773.731C759.538 616.995 752.442 610.901 752.442 598.712Z" fill="white"/>
<path d="M720.509 553.006C734.701 553.006 741.797 559.1 741.797 571.288H731.153C731.153 565.194 727.605 562.147 720.509 562.147H667.288C660.192 562.147 656.644 565.194 656.644 571.288C656.644 577.383 660.192 580.43 667.288 580.43H720.509C734.701 580.43 741.797 586.524 741.797 598.712C741.797 610.901 734.701 616.995 720.509 616.995H667.288C653.096 616.995 646 610.901 646 598.712H656.644C656.644 604.806 660.192 607.854 667.288 607.854H720.509C727.605 607.854 731.153 604.806 731.153 598.712C731.153 592.618 727.605 589.571 720.509 589.571H667.288C653.096 589.571 646 583.477 646 571.288C646 559.1 653.096 553.006 667.288 553.006H720.509Z" fill="white"/>
<path d="M1138.5 683.762L1130.87 670.614H1123.86V683.762H1117.93V647.67H1132.37C1135.6 647.67 1138.33 648.804 1140.57 651.073C1142.83 653.307 1143.97 656.04 1143.97 659.271C1143.97 661.574 1143.3 663.688 1141.96 665.613C1140.65 667.503 1138.93 668.878 1136.8 669.738L1145 683.762H1138.5ZM1123.86 653.238V665.303H1132.37C1133.95 665.303 1135.29 664.719 1136.39 663.55C1137.49 662.382 1138.04 660.955 1138.04 659.271C1138.04 657.587 1137.49 656.16 1136.39 654.991C1135.29 653.823 1133.95 653.238 1132.37 653.238H1123.86Z" fill="white"/>
<path d="M1099.41 683.762L1096.88 676.492H1081.52L1078.99 683.762H1072.54L1085.64 647.67H1092.76L1105.8 683.762H1099.41ZM1083.47 670.923H1094.92L1089.2 654.631L1083.47 670.923Z" fill="white"/>
<path d="M1045.73 678.09H1061.71V683.762H1039.8V647.67H1061.45V653.342H1045.73V662.725H1060.17V668.345H1045.73V678.09Z" fill="white"/>
<path d="M987.672 683.762L977.463 647.67H983.702L991.281 675.873L999.479 647.67H1004.94L1013.09 675.873L1020.67 647.67H1026.91L1016.7 683.762H1009.84L1002.21 657.415L994.529 683.762H987.672Z" fill="white"/>
<path d="M958.648 647.67H964.578V683.762H958.648V668.139H943.18V683.762H937.251V647.67H943.18V662.468H958.648V647.67Z" fill="white"/>
<path d="M908.555 684.433C903.124 684.433 898.621 682.645 895.046 679.07C891.471 675.461 889.684 671.01 889.684 665.716C889.684 660.423 891.471 655.989 895.046 652.414C898.621 648.805 903.124 647 908.555 647C911.82 647 914.828 647.773 917.578 649.32C920.362 650.867 922.527 652.964 924.074 655.611L918.918 658.601C917.956 656.814 916.546 655.404 914.69 654.373C912.868 653.308 910.823 652.775 908.555 652.775C904.705 652.775 901.577 653.995 899.171 656.435C896.799 658.876 895.613 661.97 895.613 665.716C895.613 669.463 896.799 672.557 899.171 674.997C901.577 677.438 904.705 678.658 908.555 678.658C910.823 678.658 912.886 678.142 914.742 677.111C916.598 676.045 917.99 674.619 918.918 672.832L924.074 675.77C922.562 678.417 920.413 680.531 917.629 682.112C914.879 683.659 911.854 684.433 908.555 684.433Z" fill="white"/>
<path d="M874.325 683.762L871.798 676.492H856.433L853.907 683.762H847.462L860.558 647.67H867.673L880.718 683.762H874.325ZM858.393 670.923H869.839L864.116 654.631L858.393 670.923Z" fill="white"/>
<path d="M820.649 678.09H836.633V683.762H814.72V647.67H836.375V653.342H820.649V662.725H835.086V668.345H820.649V678.09Z" fill="white"/>
<path d="M796.243 665.046C797.824 665.871 799.061 667.005 799.955 668.449C800.849 669.892 801.296 671.559 801.296 673.45C801.296 676.406 800.247 678.864 798.15 680.823C796.054 682.782 793.493 683.762 790.468 683.762H775V647.67H789.334C792.29 647.67 794.782 648.632 796.81 650.557C798.872 652.448 799.903 654.82 799.903 657.673C799.903 660.801 798.683 663.258 796.243 665.046ZM789.334 653.238H780.929V662.725H789.334C790.64 662.725 791.74 662.279 792.634 661.385C793.527 660.457 793.974 659.322 793.974 657.982C793.974 656.641 793.527 655.524 792.634 654.631C791.74 653.702 790.64 653.238 789.334 653.238ZM790.468 678.193C791.843 678.193 792.994 677.712 793.923 676.75C794.885 675.753 795.366 674.55 795.366 673.141C795.366 671.731 794.885 670.545 793.923 669.583C792.994 668.586 791.843 668.088 790.468 668.088H780.929V678.193H790.468Z" fill="white"/>
</g>
<defs>
<clipPath id="clip0_428_570">
<rect width="1920" height="1080" fill="white"/>
</clipPath>
</defs>
</svg>
