<svg width="540" height="300" fill="none" xmlns="http://www.w3.org/2000/svg"><g clip-path="url(#a)"><g clip-path="url(#b)"><mask id="c" style="mask-type:luminance" maskUnits="userSpaceOnUse" x="0" y="0" width="540" height="304"><path d="M540 0H0v304h540V0Z" fill="#fff"/></mask><g mask="url(#c)"><path d="M540 0H0v304h540V0Z" fill="#000"/><path d="M540 0H0v304h540V0Z" fill="#3A7BBF"/><path d="M443.779 285.402c.346.15.619.375.821.679.208.298.315.639.315 1.024a1.91 1.91 0 0 1-.579 1.399c-.383.386-.85.577-1.395.577h-3.088v-7.093h2.854c.526 0 .976.189 1.347.569.372.371.557.816.557 1.337 0 .661-.278 1.165-.832 1.508Zm-1.072-2.744h-2.146v2.471h2.146c.329 0 .611-.118.841-.354a1.22 1.22 0 0 0 .355-.881c0-.338-.119-.628-.355-.873a1.119 1.119 0 0 0-.841-.363Zm.234 5.753c.348 0 .647-.123.888-.374.251-.256.377-.566.377-.932a1.28 1.28 0 0 0-.377-.923 1.176 1.176 0 0 0-.888-.383h-2.38v2.612h2.38Zm3.757-3.555c.31-.616.844-.923 1.598-.923v.65c-.459 0-.838.135-1.142.406-.304.27-.456.695-.456 1.275v2.817h-.669v-5.066h.669v.841Zm6.562-.841h.669v5.066h-.669v-.993c-.467.743-1.148 1.114-2.045 1.114a2.524 2.524 0 0 1-1.853-.768c-.507-.515-.76-1.143-.76-1.886 0-.743.253-1.371.76-1.886a2.524 2.524 0 0 1 1.853-.768c.897 0 1.578.371 2.045 1.114v-.993Zm-3.412 3.963c.385.383.858.577 1.418.577.559 0 1.032-.194 1.417-.577a1.97 1.97 0 0 0 .577-1.43c0-.56-.192-1.033-.577-1.419a1.914 1.914 0 0 0-1.417-.588c-.56 0-1.033.197-1.418.588a1.93 1.93 0 0 0-.576 1.419c0 .56.191 1.036.576 1.43Zm7.864-4.084c.613 0 1.097.188 1.448.566.358.371.538.875.538 1.511v3.11h-.67v-3.11c0-.453-.121-.805-.365-1.055-.237-.248-.574-.375-1.013-.375-.484 0-.88.155-1.184.467-.304.304-.456.777-.456 1.419v2.654h-.666v-5.066h.666v.791c.38-.608.945-.912 1.702-.912Zm7.63-1.906h.67v7.093h-.67v-.993c-.467.743-1.147 1.114-2.044 1.114a2.528 2.528 0 0 1-1.854-.768c-.506-.515-.759-1.143-.759-1.886 0-.743.253-1.371.759-1.886a2.528 2.528 0 0 1 1.854-.768c.897 0 1.577.371 2.044 1.114v-3.02Zm-3.411 5.99c.385.383.857.577 1.417.577s1.032-.194 1.418-.577c.385-.394.576-.87.576-1.43a1.93 1.93 0 0 0-.576-1.419 1.916 1.916 0 0 0-1.418-.588c-.56 0-1.032.197-1.417.588a1.928 1.928 0 0 0-.577 1.419c0 .56.191 1.036.577 1.43Zm14.9-2.272v.366c0 .879-.312 1.622-.942 2.23-.627.599-1.468.9-2.52.9-1.074 0-1.96-.354-2.663-1.064-.701-.709-1.052-1.576-1.052-2.603 0-1.028.351-1.895 1.052-2.604.703-.709 1.589-1.064 2.663-1.064.655 0 1.254.158 1.803.476.546.318.967.74 1.266 1.266l-.628.366a2.552 2.552 0 0 0-.992-1.036 2.825 2.825 0 0 0-1.449-.382c-.883 0-1.606.287-2.166.861-.562.574-.84 1.278-.84 2.117s.278 1.542.84 2.116c.56.575 1.283.862 2.166.862.796 0 1.434-.197 1.913-.597.481-.405.753-.918.821-1.54h-2.815v-.67h3.543Zm4.728-1.691h.669v5.066h-.669v-.791c-.377.608-.945.912-1.701.912-.614 0-1.1-.185-1.457-.557-.352-.377-.526-.884-.526-1.52v-3.11h.666v3.11c0 .453.118.805.355 1.056.244.247.585.374 1.023.374.487 0 .881-.152 1.184-.456.304-.312.456-.788.456-1.43v-2.654Zm2.762-1.216a.471.471 0 0 1-.346.14.46.46 0 0 1-.343-.14.467.467 0 0 1-.144-.344c0-.135.048-.25.144-.346a.469.469 0 0 1 .343-.141.48.48 0 0 1 .487.487.476.476 0 0 1-.141.344Zm-.681 6.282v-5.066h.67v5.066h-.67Zm6.441-7.093h.669v7.093h-.669v-.993c-.464.743-1.148 1.114-2.045 1.114a2.53 2.53 0 0 1-1.853-.768c-.506-.515-.76-1.143-.76-1.886 0-.743.254-1.371.76-1.886a2.53 2.53 0 0 1 1.853-.768c.897 0 1.581.371 2.045 1.114v-3.02Zm-3.412 5.99c.386.383.858.577 1.418.577.56 0 1.032-.194 1.417-.577.386-.394.577-.87.577-1.43 0-.56-.191-1.033-.577-1.419a1.912 1.912 0 0 0-1.417-.588c-.56 0-1.032.197-1.418.588a1.93 1.93 0 0 0-.576 1.419c0 .56.191 1.036.576 1.43Zm7.833-4.084c.751 0 1.356.267 1.814.799.464.526.698 1.151.698 1.875 0 .076-.006.18-.02.315h-4.444c.068.512.282.92.647 1.224.371.299.827.448 1.367.448.385 0 .714-.079.993-.234.284-.163.495-.371.638-.627l.585.343a2.415 2.415 0 0 1-.911.853 2.709 2.709 0 0 1-1.316.312c-.796 0-1.443-.25-1.944-.748-.497-.501-.748-1.135-.748-1.906 0-.757.245-1.388.74-1.894.492-.507 1.125-.76 1.901-.76Zm0 .647c-.526 0-.967.161-1.324.476-.352.312-.56.718-.628 1.216h3.775c-.068-.532-.273-.949-.616-1.244a1.785 1.785 0 0 0-1.207-.448Zm3.575 4.54v-7.397h.669v7.397h-.669Zm2.765-6.282a.462.462 0 0 1-.344.14.468.468 0 0 1-.345-.14.476.476 0 0 1-.141-.344.48.48 0 0 1 .486-.487.47.47 0 0 1 .344.141.474.474 0 0 1 .143.346.47.47 0 0 1-.143.344Zm-.678 6.282v-5.066h.669v5.066h-.669Zm4.455-5.187c.616 0 1.097.188 1.448.566.357.371.537.875.537 1.511v3.11h-.669v-3.11c0-.453-.121-.805-.363-1.055-.236-.248-.574-.375-1.012-.375-.487 0-.883.155-1.187.467-.304.304-.456.777-.456 1.419v2.654h-.666v-5.066h.666v.791c.38-.608.945-.912 1.702-.912Zm5.616 0c.748 0 1.353.267 1.812.799a2.734 2.734 0 0 1 .677 2.19h-4.443c.067.512.284.92.647 1.224.371.299.826.448 1.366.448.386 0 .718-.079.993-.234.284-.163.498-.371.639-.627l.587.343a2.407 2.407 0 0 1-.911.853 2.725 2.725 0 0 1-1.316.312c-.796 0-1.446-.25-1.943-.748-.501-.501-.751-1.135-.751-1.906 0-.757.247-1.388.739-1.894.492-.507 1.128-.76 1.904-.76Zm0 .647c-.526 0-.97.161-1.327.476-.352.312-.56.718-.627 1.216h3.777c-.068-.532-.273-.949-.619-1.244a1.776 1.776 0 0 0-1.204-.448Zm3.901.802c0 .228.102.411.304.546.203.136.45.24.74.316.289.073.582.157.872.253.289.087.537.239.739.456.203.208.304.484.304.83 0 .431-.174.783-.517 1.053-.338.27-.777.405-1.317.405-.486 0-.9-.106-1.246-.323a1.741 1.741 0 0 1-.708-.842l.568-.335c.093.265.261.473.506.631.25.146.543.222.88.222.332 0 .608-.065.83-.194a.675.675 0 0 0 .335-.617.632.632 0 0 0-.304-.549 2.375 2.375 0 0 0-.74-.312 20.582 20.582 0 0 1-.869-.245 1.739 1.739 0 0 1-.74-.456c-.202-.214-.303-.495-.303-.839 0-.413.16-.757.486-1.036.329-.275.746-.413 1.243-.413.414 0 .774.093 1.086.284.309.18.54.431.686.749l-.557.323c-.194-.472-.599-.709-1.215-.709-.289 0-.54.07-.748.214a.658.658 0 0 0-.315.588ZM22.77 289.082v-.426l1.701-1.717c.486-.487.729-.903.729-1.249 0-.302-.095-.535-.284-.701a.946.946 0 0 0-.668-.259c-.486 0-.839.225-1.06.67l-.398-.237a1.612 1.612 0 0 1 1.458-.892c.378 0 .709.129.992.386.289.253.433.596.433 1.033 0 .276-.077.537-.23.791a4.28 4.28 0 0 1-.648.796l-1.35 1.346h2.329v.459H22.77Zm6.653-.58c-.31.439-.75.661-1.316.661-.567 0-1.008-.222-1.323-.661-.31-.448-.466-1.042-.466-1.785 0-.743.155-1.334.466-1.776.315-.448.756-.67 1.323-.67s1.006.222 1.316.67c.315.442.473 1.033.473 1.776 0 .743-.158 1.337-.473 1.785Zm-2.288-.318c.234.346.558.52.972.52.414 0 .736-.174.965-.52.234-.347.351-.836.351-1.467 0-.63-.117-1.12-.351-1.466a1.094 1.094 0 0 0-.965-.521 1.11 1.11 0 0 0-.972.521c-.23.346-.345.836-.345 1.466 0 .631.115 1.12.345 1.467Zm3.301.898v-.426l1.701-1.717c.486-.487.73-.903.73-1.249 0-.302-.095-.535-.284-.701a.946.946 0 0 0-.668-.259c-.486 0-.84.225-1.06.67l-.398-.237c.148-.292.35-.512.607-.661.257-.155.54-.231.85-.231.379 0 .71.129.993.386.288.253.432.596.432 1.033 0 .276-.077.537-.23.791a4.28 4.28 0 0 1-.648.796l-1.35 1.346h2.33v.459h-3.005Zm5.216-2.765c.378.051.688.197.931.439.248.24.371.558.371.955 0 .45-.155.805-.465 1.067-.306.256-.68.385-1.12.385-.352 0-.665-.081-.94-.245a1.313 1.313 0 0 1-.58-.695l.392-.228a.944.944 0 0 0 .412.532c.198.118.436.177.715.177.324 0 .59-.087.797-.259.211-.174.317-.419.317-.734 0-.316-.106-.56-.317-.729-.207-.178-.473-.265-.797-.265v-.006l-.007.006h-.128l-.202-.31 1.174-1.61h-2.22v-.444h2.767v.444l-1.1 1.52ZM515.455 25.28l1.06-1.216h-4.339v-.392h4.334l-1.055-1.21h.453l1.249 1.406-1.249 1.412h-.453Z" fill="#fff"/><path opacity=".4" d="M11.531 22.519h-.281V292.74h.281V22.519Z" fill="#fff"/><path d="M11.531 281.481h-.281v11.26h.281v-11.26ZM11.531 22.519h-.281v105.837h.281V22.519Z" fill="#fff"/><path opacity=".4" d="M524.25 99.644h-.281v22.519h.281V99.644Z" fill="#fff"/><path d="M522.596 161.361v1.281h1.018v-1.222h.259v1.222h1.221v.276h-2.756v-1.557h.258Zm2.239-1.535v-1.261h.259v1.537h-2.756v-.276h2.497Zm.259-4.358-.678.256v1.309l.678.256v.291l-2.756-1.06v-.283l2.756-1.06v.291Zm-.937 1.466v-1.111l-1.476.556 1.476.555Zm.937-3.483-2.756 1.017v-.3l2.39-.859-2.39-.859v-.299l2.756 1.016v.284Zm-2.756-2.445v-.275h2.756v.275h-2.756Zm2.39-3.978c.276.276.414.614.414 1.013 0 .399-.138.737-.414 1.013a1.384 1.384 0 0 1-1.012.414c-.397 0-.732-.138-1.007-.414a1.371 1.371 0 0 1-.419-1.013c0-.399.14-.737.419-1.013.275-.276.61-.414 1.007-.414.396 0 .734.138 1.012.414Zm-.188 1.833c.222-.221.334-.494.334-.82 0-.326-.112-.599-.334-.82a1.142 1.142 0 0 0-.824-.331 1.12 1.12 0 0 0-.819.331c-.225.221-.34.494-.34.82 0 .326.115.599.34.82.222.22.495.331.819.331.323 0 .596-.111.824-.331Zm-2.202-6.344c0-.376.135-.685.402-.93.264-.247.59-.37.976-.37a1.4 1.4 0 0 1 .981.37c.265.245.397.554.397.93v1.064h-2.756v-1.064Zm2.497 0a.955.955 0 0 0-.323-.741 1.15 1.15 0 0 0-.796-.291c-.315 0-.58.097-.796.291a.953.953 0 0 0-.324.741v.788h2.239v-.788Zm-.107-4.842c.276.276.414.614.414 1.013 0 .399-.138.737-.414 1.013a1.384 1.384 0 0 1-1.012.414c-.397 0-.732-.138-1.007-.414a1.371 1.371 0 0 1-.419-1.013c0-.399.14-.737.419-1.013.275-.276.61-.414 1.007-.414.396 0 .734.138 1.012.414Zm-.188 1.833c.222-.221.334-.494.334-.82 0-.326-.112-.599-.334-.82a1.142 1.142 0 0 0-.824-.331 1.12 1.12 0 0 0-.819.331c-.225.221-.34.494-.34.82 0 .326.115.599.34.82.222.22.495.331.819.331.323 0 .596-.111.824-.331Zm.554-5.201-1.103.646v.773h1.103v.276h-2.756v-1.104c0-.228.081-.423.244-.583a.788.788 0 0 1 .582-.244.8.8 0 0 1 .501.169c.144.11.242.252.29.426l1.139-.674v.315Zm-2.498 1.419h1.137v-.828a.564.564 0 0 0-.569-.552.554.554 0 0 0-.402.162.532.532 0 0 0-.166.39v.828Zm-.258-2.918v-.276h2.756v.276h-2.756Zm2.756-3.532-.678.256v1.308l.678.256v.292l-2.756-1.06v-.284l2.756-1.06v.292Zm-.937 1.465v-1.111l-1.476.556 1.476.555Z" fill="#fff"/><path opacity=".4" d="M524.25 170.015h-.281v22.518h.281v-22.518Z" fill="#fff"/><path d="M273.731 110.848c-1.762.451-3.975 1.576-5.362 2.74-.713.6-1.726.976-3 1.088-3.488.338-5.4 2.59-5.4 6.38.037 3.528 2.062 6.643 4.912 7.507 2.025.6 1.875 1.201-.225.938-2.1-.3-4.538-1.501-5.1-2.552-.225-.45-.338-1.464-.262-2.252.149-1.501-.188-1.952-.6-.863-.525 1.426-.225 3.49.712 4.616 1.913 2.214 6.6 2.777 9.113 1.013.787-.525 1.612-.976 1.837-.976.413 0 1.05-1.313 1.462-3.114.376-1.614 1.838-2.515 3.976-2.515 3.187 0 5.175 2.064 5.175 5.404 0 1.914-.45 2.477-2.963 3.754-4.163 2.139-9.75 2.477-27.975 1.726-9.187-.338-14.85-.15-15.075.6-.15.413 2.963.563 24.45 1.164 5.662.15 8.587.338 7.875.525-1.538.451-12.375 1.764-16.8 2.065-2.025.15-3.75.412-3.863.563-.337.525 7.538.375 12.976-.263 7.575-.863 12.187-1.914 18.187-4.129.6-.225.525-.037-.338.901-2.287 2.477-11.549 6.193-16.837 6.756-1.687.187-2.325.412-2.325.825 0 1.952 9.563-.15 16.125-3.528 5.138-2.627 8.062-6.38 8.363-10.734.337-4.803-3.413-8.406-8.026-7.693-.9.112-1.649.15-1.649.037 0-.112.712-.6 1.612-1.051 1.238-.638 2.25-.825 4.762-.825 1.763-.038 3.751.112 4.426.262.976.263 1.201.226 1.201-.262 0-1.389-4.764-2.102-8.176-1.201-4.426 1.126-7.088 3.603-7.538 7.018l-.225 1.952-1.163-.976c-1.574-1.351-2.137-2.852-1.949-5.255.3-3.49 3.262-6.793 7.275-7.994 1.912-.563 7.612-.675 10.201-.187 1.386.262 1.575.225 1.575-.338 0-.375-.301-.788-.639-.938-1.049-.451-9.15-.563-10.725-.188Zm-8.325 6.305c-1.913 3.791-1.575 6.718 1.05 9.158 1.613 1.539 1.275 1.839-.975.901-2.438-1.014-4.387-4.166-4.387-7.094 0-2.477 2.025-4.729 4.199-4.766h1.013l-.9 1.801ZM358.312 155.661v2.573h-23.948v5.146h20.956v2.574h-20.956v5.146h23.948v2.573h-26.943v-18.012h26.943ZM328.376 155.661v2.573h-23.948v5.146h20.956v2.574h-20.956v5.146h23.948v2.573h-26.943v-18.012h26.943ZM274.49 160.203v13.47h-2.993v-18.295l23.948 13.753v-13.47h2.995v18.295l-23.95-13.753ZM244.554 160.203v13.47h-2.994v-18.295l23.949 13.753v-13.47h2.994v18.295l-23.949-13.753ZM211.624 168.527v-12.866h2.994v12.866c0 1.715.998 2.573 2.994 2.573h14.968c1.996 0 2.994-.858 2.994-2.573v-12.866h2.993v12.866c0 3.431-1.996 5.146-5.987 5.146h-14.968c-3.992 0-5.988-1.715-5.988-5.146ZM202.643 155.661c3.992 0 5.987 1.715 5.987 5.146h-2.993c0-1.715-.998-2.573-2.994-2.573h-14.968c-1.996 0-2.994.858-2.994 2.573 0 1.716.998 2.573 2.994 2.573h14.968c3.992 0 5.987 1.716 5.987 5.147s-1.995 5.146-5.987 5.146h-14.968c-3.992 0-5.987-1.715-5.987-5.146h2.993c0 1.715.998 2.573 2.994 2.573h14.968c1.996 0 2.994-.858 2.994-2.573 0-1.716-.998-2.573-2.994-2.573h-14.968c-3.992 0-5.987-1.716-5.987-5.147s1.995-5.146 5.987-5.146h14.968ZM320.203 192.466l-2.146-3.701h-1.971v3.701h-1.668v-10.159h4.061c.908 0 1.676.319 2.306.958.636.629.956 1.398.956 2.308 0 .648-.188 1.243-.565 1.785a3.174 3.174 0 0 1-1.451 1.161l2.306 3.947h-1.828Zm-4.117-8.592v3.396h2.393c.444 0 .821-.164 1.131-.493.309-.329.464-.73.464-1.204s-.155-.876-.464-1.205a1.496 1.496 0 0 0-1.131-.494h-2.393ZM309.209 192.466l-.712-2.046h-4.32l-.711 2.046h-1.814l3.684-10.159h2.003l3.667 10.159h-1.797Zm-4.483-3.614h3.22l-1.609-4.585-1.611 4.585ZM294.112 190.87h4.494v1.596h-6.162v-10.159h6.089v1.597h-4.421v2.641h4.061v1.582h-4.061v2.743ZM277.783 192.466l-2.872-10.159h1.755l2.132 7.939 2.305-7.939h1.536l2.292 7.939 2.132-7.939h1.755l-2.871 10.159h-1.93l-2.146-7.416-2.16 7.416h-1.928ZM269.62 182.307h1.668v10.159h-1.668v-4.397h-4.351v4.397h-1.667v-10.159h1.667v4.166h4.351v-4.166ZM255.531 192.655c-1.527 0-2.794-.503-3.799-1.509-1.006-1.016-1.508-2.269-1.508-3.759 0-1.49.502-2.738 1.508-3.744 1.005-1.016 2.272-1.524 3.799-1.524.918 0 1.764.217 2.538.653a4.727 4.727 0 0 1 1.827 1.77l-1.45.842a2.936 2.936 0 0 0-1.189-1.19 3.354 3.354 0 0 0-1.726-.45c-1.083 0-1.962.344-2.639 1.03-.667.688-1.001 1.558-1.001 2.613s.334 1.925 1.001 2.612c.677.687 1.556 1.031 2.639 1.031.638 0 1.218-.145 1.74-.436.522-.3.914-.701 1.175-1.204l1.45.827a4.727 4.727 0 0 1-1.813 1.785 5.116 5.116 0 0 1-2.552.653ZM245.904 192.466l-.711-2.046h-4.321l-.711 2.046h-1.812l3.683-10.159h2.001l3.669 10.159h-1.798Zm-4.481-3.614h3.219l-1.609-4.585-1.61 4.585ZM230.807 190.87h4.496v1.596h-6.163v-10.159h6.09v1.597h-4.423v2.641h4.061v1.582h-4.061v2.743ZM223.943 187.198c.445.232.793.552 1.044.958.252.406.378.875.378 1.408 0 .832-.296 1.524-.885 2.075-.59.552-1.31.827-2.161.827h-4.35v-10.159H222c.832 0 1.532.271 2.103.813.58.532.87 1.2.87 2.003 0 .88-.343 1.572-1.03 2.075ZM222 183.874h-2.364v2.671H222c.367 0 .677-.126.928-.377.251-.262.377-.581.377-.958a1.28 1.28 0 0 0-.377-.943 1.235 1.235 0 0 0-.928-.393Zm.319 7.025c.387 0 .711-.136.972-.406.27-.281.406-.62.406-1.016 0-.397-.136-.731-.406-1.002a1.276 1.276 0 0 0-.972-.421h-2.683v2.845h2.683Z" fill="#fff"/></g></g></g><defs><clipPath id="a"><path fill="#fff" d="M0 0h540v300H0z"/></clipPath><clipPath id="b"><path fill="#fff" d="M0 0h540v304H0z"/></clipPath></defs></svg>