<svg width="540" height="300" viewBox="0 0 540 300" fill="none" xmlns="http://www.w3.org/2000/svg">
<g clip-path="url(#clip0_561_162)">
<g clip-path="url(#clip1_561_162)">
<mask id="mask0_561_162" style="mask-type:luminance" maskUnits="userSpaceOnUse" x="0" y="0" width="540" height="304">
<path d="M540 0H0V304H540V0Z" fill="white"/>
</mask>
<g mask="url(#mask0_561_162)">
<path d="M540 0H0V304H540V0Z" fill="black"/>
<path d="M540 0H0V304H540V0Z" fill="#3A7BBF"/>
<path d="M443.779 285.402C444.125 285.552 444.398 285.777 444.6 286.081C444.808 286.379 444.915 286.72 444.915 287.105C444.915 287.651 444.721 288.119 444.336 288.504C443.953 288.89 443.486 289.081 442.941 289.081H439.853V281.988H442.707C443.233 281.988 443.683 282.177 444.054 282.557C444.426 282.928 444.611 283.373 444.611 283.894C444.611 284.555 444.333 285.059 443.779 285.402ZM442.707 282.658H440.561V285.129H442.707C443.036 285.129 443.318 285.011 443.548 284.775C443.784 284.533 443.903 284.237 443.903 283.894C443.903 283.556 443.784 283.266 443.548 283.021C443.318 282.779 443.036 282.658 442.707 282.658ZM442.941 288.411C443.289 288.411 443.588 288.288 443.829 288.037C444.08 287.781 444.206 287.471 444.206 287.105C444.206 286.748 444.08 286.441 443.829 286.182C443.588 285.926 443.289 285.799 442.941 285.799H440.561V288.411H442.941ZM446.698 284.856C447.008 284.24 447.542 283.933 448.296 283.933V284.583C447.837 284.583 447.458 284.718 447.154 284.989C446.85 285.259 446.698 285.684 446.698 286.264V289.081H446.029V284.015H446.698V284.856ZM453.26 284.015H453.929V289.081H453.26V288.088C452.793 288.831 452.112 289.202 451.215 289.202C450.492 289.202 449.873 288.946 449.362 288.434C448.855 287.919 448.602 287.291 448.602 286.548C448.602 285.805 448.855 285.177 449.362 284.662C449.873 284.15 450.492 283.894 451.215 283.894C452.112 283.894 452.793 284.265 453.26 285.008V284.015ZM449.848 287.978C450.233 288.361 450.706 288.555 451.266 288.555C451.825 288.555 452.298 288.361 452.683 287.978C453.068 287.584 453.26 287.108 453.26 286.548C453.26 285.988 453.068 285.515 452.683 285.129C452.298 284.738 451.825 284.541 451.266 284.541C450.706 284.541 450.233 284.738 449.848 285.129C449.463 285.515 449.272 285.988 449.272 286.548C449.272 287.108 449.463 287.584 449.848 287.978ZM457.712 283.894C458.325 283.894 458.809 284.082 459.16 284.46C459.518 284.831 459.698 285.335 459.698 285.971V289.081H459.028V285.971C459.028 285.518 458.907 285.166 458.663 284.916C458.426 284.668 458.089 284.541 457.65 284.541C457.166 284.541 456.77 284.696 456.466 285.008C456.162 285.312 456.01 285.785 456.01 286.427V289.081H455.344V284.015H456.01V284.806C456.39 284.198 456.955 283.894 457.712 283.894ZM465.342 281.988H466.012V289.081H465.342V288.088C464.875 288.831 464.195 289.202 463.298 289.202C462.575 289.202 461.956 288.946 461.444 288.434C460.938 287.919 460.685 287.291 460.685 286.548C460.685 285.805 460.938 285.177 461.444 284.662C461.956 284.15 462.575 283.894 463.298 283.894C464.195 283.894 464.875 284.265 465.342 285.008V281.988ZM461.931 287.978C462.316 288.361 462.788 288.555 463.348 288.555C463.908 288.555 464.38 288.361 464.766 287.978C465.151 287.584 465.342 287.108 465.342 286.548C465.342 285.988 465.151 285.515 464.766 285.129C464.38 284.738 463.908 284.541 463.348 284.541C462.788 284.541 462.316 284.738 461.931 285.129C461.545 285.515 461.354 285.988 461.354 286.548C461.354 287.108 461.545 287.584 461.931 287.978ZM476.831 285.706V286.072C476.831 286.951 476.519 287.694 475.889 288.302C475.262 288.901 474.421 289.202 473.369 289.202C472.295 289.202 471.409 288.848 470.706 288.138C470.005 287.429 469.654 286.562 469.654 285.535C469.654 284.507 470.005 283.64 470.706 282.931C471.409 282.222 472.295 281.867 473.369 281.867C474.024 281.867 474.623 282.025 475.172 282.343C475.718 282.661 476.139 283.083 476.438 283.609L475.81 283.975C475.585 283.542 475.256 283.198 474.818 282.939C474.379 282.683 473.895 282.557 473.369 282.557C472.486 282.557 471.763 282.844 471.203 283.418C470.641 283.992 470.363 284.696 470.363 285.535C470.363 286.374 470.641 287.077 471.203 287.651C471.763 288.226 472.486 288.513 473.369 288.513C474.165 288.513 474.803 288.316 475.282 287.916C475.763 287.511 476.035 286.998 476.103 286.376H473.288V285.706H476.831ZM481.559 284.015H482.228V289.081H481.559V288.29C481.182 288.898 480.614 289.202 479.858 289.202C479.244 289.202 478.758 289.017 478.401 288.645C478.049 288.268 477.875 287.761 477.875 287.125V284.015H478.541V287.125C478.541 287.578 478.659 287.93 478.896 288.181C479.14 288.428 479.481 288.555 479.919 288.555C480.406 288.555 480.8 288.403 481.103 288.099C481.407 287.787 481.559 287.311 481.559 286.669V284.015ZM484.321 282.799C484.225 282.894 484.11 282.939 483.975 282.939C483.84 282.939 483.725 282.894 483.632 282.799C483.536 282.703 483.488 282.59 483.488 282.455C483.488 282.32 483.536 282.205 483.632 282.109C483.725 282.016 483.84 281.968 483.975 281.968C484.11 281.968 484.225 282.016 484.321 282.109C484.414 282.205 484.462 282.32 484.462 282.455C484.462 282.59 484.414 282.703 484.321 282.799ZM483.64 289.081V284.015H484.31V289.081H483.64ZM490.081 281.988H490.75V289.081H490.081V288.088C489.617 288.831 488.933 289.202 488.036 289.202C487.313 289.202 486.698 288.946 486.183 288.434C485.677 287.919 485.423 287.291 485.423 286.548C485.423 285.805 485.677 285.177 486.183 284.662C486.698 284.15 487.313 283.894 488.036 283.894C488.933 283.894 489.617 284.265 490.081 285.008V281.988ZM486.669 287.978C487.055 288.361 487.527 288.555 488.087 288.555C488.647 288.555 489.119 288.361 489.504 287.978C489.89 287.584 490.081 287.108 490.081 286.548C490.081 285.988 489.89 285.515 489.504 285.129C489.119 284.738 488.647 284.541 488.087 284.541C487.527 284.541 487.055 284.738 486.669 285.129C486.284 285.515 486.093 285.988 486.093 286.548C486.093 287.108 486.284 287.584 486.669 287.978ZM494.502 283.894C495.253 283.894 495.858 284.161 496.316 284.693C496.78 285.219 497.014 285.844 497.014 286.568C497.014 286.644 497.008 286.748 496.994 286.883H492.55C492.618 287.395 492.832 287.803 493.197 288.107C493.568 288.406 494.024 288.555 494.564 288.555C494.949 288.555 495.278 288.476 495.557 288.321C495.841 288.158 496.052 287.95 496.195 287.694L496.78 288.037C496.558 288.395 496.254 288.679 495.869 288.89C495.487 289.098 495.048 289.202 494.553 289.202C493.757 289.202 493.11 288.952 492.609 288.454C492.112 287.953 491.861 287.319 491.861 286.548C491.861 285.791 492.106 285.16 492.601 284.654C493.093 284.147 493.726 283.894 494.502 283.894ZM494.502 284.541C493.976 284.541 493.535 284.702 493.178 285.017C492.826 285.329 492.618 285.735 492.55 286.233H496.325C496.257 285.701 496.052 285.284 495.709 284.989C495.363 284.69 494.963 284.541 494.502 284.541ZM498.077 289.081V281.684H498.746V289.081H498.077ZM500.842 282.799C500.749 282.894 500.633 282.939 500.498 282.939C500.363 282.939 500.248 282.894 500.153 282.799C500.06 282.703 500.012 282.59 500.012 282.455C500.012 282.32 500.06 282.205 500.153 282.109C500.248 282.016 500.363 281.968 500.498 281.968C500.633 281.968 500.749 282.016 500.842 282.109C500.937 282.205 500.985 282.32 500.985 282.455C500.985 282.59 500.937 282.703 500.842 282.799ZM500.164 289.081V284.015H500.833V289.081H500.164ZM504.619 283.894C505.235 283.894 505.716 284.082 506.067 284.46C506.424 284.831 506.604 285.335 506.604 285.971V289.081H505.935V285.971C505.935 285.518 505.814 285.166 505.572 284.916C505.336 284.668 504.998 284.541 504.56 284.541C504.073 284.541 503.677 284.696 503.373 285.008C503.069 285.312 502.917 285.785 502.917 286.427V289.081H502.251V284.015H502.917V284.806C503.297 284.198 503.862 283.894 504.619 283.894ZM510.235 283.894C510.983 283.894 511.588 284.161 512.047 284.693C512.513 285.219 512.747 285.844 512.747 286.568C512.747 286.644 512.738 286.748 512.724 286.883H508.281C508.348 287.395 508.565 287.803 508.928 288.107C509.299 288.406 509.754 288.555 510.294 288.555C510.68 288.555 511.012 288.476 511.287 288.321C511.571 288.158 511.785 287.95 511.926 287.694L512.513 288.037C512.291 288.395 511.988 288.679 511.602 288.89C511.217 289.098 510.778 289.202 510.286 289.202C509.49 289.202 508.84 288.952 508.343 288.454C507.842 287.953 507.592 287.319 507.592 286.548C507.592 285.791 507.839 285.16 508.331 284.654C508.823 284.147 509.459 283.894 510.235 283.894ZM510.235 284.541C509.709 284.541 509.265 284.702 508.908 285.017C508.556 285.329 508.348 285.735 508.281 286.233H512.058C511.99 285.701 511.785 285.284 511.439 284.989C511.096 284.69 510.694 284.541 510.235 284.541ZM514.136 285.343C514.136 285.571 514.238 285.754 514.44 285.889C514.643 286.025 514.89 286.129 515.18 286.205C515.469 286.278 515.762 286.362 516.052 286.458C516.341 286.545 516.589 286.697 516.791 286.914C516.994 287.122 517.095 287.398 517.095 287.744C517.095 288.175 516.921 288.527 516.578 288.797C516.24 289.067 515.801 289.202 515.261 289.202C514.775 289.202 514.361 289.096 514.015 288.879C513.678 288.662 513.442 288.383 513.307 288.037L513.875 287.702C513.968 287.967 514.136 288.175 514.381 288.333C514.631 288.479 514.924 288.555 515.261 288.555C515.593 288.555 515.869 288.49 516.091 288.361C516.313 288.226 516.426 288.02 516.426 287.744C516.426 287.514 516.324 287.331 516.122 287.195C515.919 287.06 515.672 286.956 515.382 286.883C515.093 286.807 514.803 286.728 514.513 286.638C514.221 286.545 513.976 286.393 513.773 286.182C513.571 285.968 513.47 285.687 513.47 285.343C513.47 284.93 513.63 284.586 513.956 284.307C514.285 284.032 514.702 283.894 515.199 283.894C515.613 283.894 515.973 283.987 516.285 284.178C516.594 284.358 516.825 284.609 516.971 284.927L516.414 285.25C516.22 284.778 515.815 284.541 515.199 284.541C514.91 284.541 514.659 284.611 514.451 284.755C514.243 284.89 514.136 285.084 514.136 285.343Z" fill="white"/>
<path d="M22.77 289.082V288.656L24.471 286.939C24.957 286.452 25.2 286.036 25.2 285.69C25.2 285.388 25.1055 285.155 24.9165 284.989C24.732 284.817 24.5093 284.73 24.2483 284.73C23.7623 284.73 23.409 284.955 23.1885 285.4L22.7903 285.163C22.9388 284.871 23.1413 284.651 23.3978 284.502C23.6543 284.347 23.9378 284.271 24.2483 284.271C24.6263 284.271 24.957 284.4 25.2405 284.657C25.5285 284.91 25.6725 285.253 25.6725 285.69C25.6725 285.966 25.596 286.227 25.443 286.481C25.29 286.734 25.074 286.999 24.795 287.277L23.445 288.623H25.7738V289.082H22.77ZM29.423 288.502C29.1125 288.941 28.6737 289.163 28.1067 289.163C27.5397 289.163 27.0987 288.941 26.7837 288.502C26.4732 288.054 26.318 287.46 26.318 286.717C26.318 285.974 26.4732 285.383 26.7837 284.941C27.0987 284.493 27.5397 284.271 28.1067 284.271C28.6737 284.271 29.1125 284.493 29.423 284.941C29.738 285.383 29.8955 285.974 29.8955 286.717C29.8955 287.46 29.738 288.054 29.423 288.502ZM27.1347 288.184C27.3687 288.53 27.6927 288.704 28.1067 288.704C28.5207 288.704 28.8425 288.53 29.072 288.184C29.306 287.837 29.423 287.348 29.423 286.717C29.423 286.087 29.306 285.597 29.072 285.251C28.8425 284.904 28.5207 284.73 28.1067 284.73C27.6927 284.73 27.3687 284.904 27.1347 285.251C26.9052 285.597 26.7905 286.087 26.7905 286.717C26.7905 287.348 26.9052 287.837 27.1347 288.184ZM30.4363 289.082V288.656L32.1373 286.939C32.6233 286.452 32.8663 286.036 32.8663 285.69C32.8663 285.388 32.7718 285.155 32.5828 284.989C32.3983 284.817 32.1756 284.73 31.9146 284.73C31.4286 284.73 31.0753 284.955 30.8548 285.4L30.4566 285.163C30.6051 284.871 30.8076 284.651 31.0641 284.502C31.3206 284.347 31.6041 284.271 31.9146 284.271C32.2926 284.271 32.6233 284.4 32.9068 284.657C33.1948 284.91 33.3388 285.253 33.3388 285.69C33.3388 285.966 33.2623 286.227 33.1093 286.481C32.9563 286.734 32.7403 286.999 32.4613 287.277L31.1113 288.623H33.4401V289.082H30.4363ZM35.6516 286.317C36.0296 286.368 36.3401 286.514 36.5831 286.756C36.8306 286.996 36.9543 287.314 36.9543 287.711C36.9543 288.161 36.7991 288.516 36.4886 288.778C36.1826 289.034 35.8091 289.163 35.3681 289.163C35.0171 289.163 34.7043 289.082 34.4298 288.918C34.1553 288.758 33.9618 288.524 33.8493 288.223L34.2408 287.995C34.3173 288.229 34.4546 288.406 34.6526 288.527C34.8506 288.645 35.0891 288.704 35.3681 288.704C35.6921 288.704 35.9576 288.617 36.1646 288.445C36.3761 288.271 36.4818 288.026 36.4818 287.711C36.4818 287.395 36.3761 287.151 36.1646 286.982C35.9576 286.804 35.6921 286.717 35.3681 286.717V286.711L35.3613 286.717H35.2331L35.0306 286.407L36.2051 284.797H33.9843V284.353H36.7518V284.797L35.6516 286.317Z" fill="white"/>
<path d="M515.455 25.2795L516.515 24.0635H512.176V23.6716H516.51L515.455 22.4624H515.908L517.157 23.8676L515.908 25.2795H515.455Z" fill="white"/>
<path opacity="0.4" d="M11.5312 22.5186H11.25V292.741H11.5312V22.5186Z" fill="white"/>
<path d="M11.5312 281.481H11.25V292.741H11.5312V281.481Z" fill="white"/>
<path d="M11.5312 22.5186H11.25V128.356H11.5312V22.5186Z" fill="white"/>
<path opacity="0.4" d="M524.25 99.6445H523.969V122.163H524.25V99.6445Z" fill="white"/>
<path d="M522.596 161.361V162.642H523.614V161.42H523.873V162.642H525.094V162.918H522.338V161.361H522.596ZM524.835 159.826V158.565H525.094V160.102H522.338V159.826H524.835ZM525.094 155.468L524.416 155.724V157.033L525.094 157.289V157.58L522.338 156.52V156.237L525.094 155.177V155.468ZM524.157 156.934V155.823L522.681 156.379L524.157 156.934ZM525.094 153.451L522.338 154.468V154.168L524.728 153.309L522.338 152.45V152.151L525.094 153.167V153.451ZM522.338 151.006V150.731H525.094V151.006H522.338ZM524.728 147.028C525.004 147.304 525.142 147.642 525.142 148.041C525.142 148.44 525.004 148.778 524.728 149.054C524.45 149.33 524.112 149.468 523.716 149.468C523.319 149.468 522.984 149.33 522.709 149.054C522.43 148.778 522.29 148.44 522.29 148.041C522.29 147.642 522.43 147.304 522.709 147.028C522.984 146.752 523.319 146.614 523.716 146.614C524.112 146.614 524.45 146.752 524.728 147.028ZM524.54 148.861C524.762 148.64 524.874 148.367 524.874 148.041C524.874 147.715 524.762 147.442 524.54 147.221C524.312 147.001 524.039 146.89 523.716 146.89C523.392 146.89 523.119 147.001 522.897 147.221C522.672 147.442 522.557 147.715 522.557 148.041C522.557 148.367 522.672 148.64 522.897 148.861C523.119 149.081 523.392 149.192 523.716 149.192C524.039 149.192 524.312 149.081 524.54 148.861ZM522.338 142.517C522.338 142.141 522.473 141.832 522.74 141.587C523.004 141.34 523.33 141.217 523.716 141.217C524.101 141.217 524.427 141.34 524.697 141.587C524.962 141.832 525.094 142.141 525.094 142.517V143.581H522.338V142.517ZM524.835 142.517C524.835 142.215 524.725 141.968 524.512 141.776C524.295 141.582 524.031 141.485 523.716 141.485C523.401 141.485 523.136 141.582 522.92 141.776C522.706 141.968 522.596 142.215 522.596 142.517V143.305H524.835V142.517ZM524.728 137.675C525.004 137.951 525.142 138.289 525.142 138.688C525.142 139.087 525.004 139.425 524.728 139.701C524.45 139.977 524.112 140.115 523.716 140.115C523.319 140.115 522.984 139.977 522.709 139.701C522.43 139.425 522.29 139.087 522.29 138.688C522.29 138.289 522.43 137.951 522.709 137.675C522.984 137.399 523.319 137.261 523.716 137.261C524.112 137.261 524.45 137.399 524.728 137.675ZM524.54 139.508C524.762 139.287 524.874 139.014 524.874 138.688C524.874 138.362 524.762 138.089 524.54 137.868C524.312 137.648 524.039 137.537 523.716 137.537C523.392 137.537 523.119 137.648 522.897 137.868C522.672 138.089 522.557 138.362 522.557 138.688C522.557 139.014 522.672 139.287 522.897 139.508C523.119 139.728 523.392 139.839 523.716 139.839C524.039 139.839 524.312 139.728 524.54 139.508ZM525.094 134.307L523.991 134.953V135.726H525.094V136.002H522.338V134.898C522.338 134.67 522.419 134.475 522.582 134.315C522.743 134.152 522.937 134.071 523.164 134.071C523.35 134.071 523.519 134.127 523.665 134.24C523.809 134.35 523.907 134.492 523.955 134.666L525.094 133.992V134.307ZM522.596 135.726H523.733V134.898C523.733 134.746 523.676 134.616 523.567 134.508C523.454 134.4 523.319 134.346 523.164 134.346C523.007 134.346 522.872 134.4 522.762 134.508C522.653 134.616 522.596 134.746 522.596 134.898V135.726ZM522.338 132.808V132.532H525.094V132.808H522.338ZM525.094 129.276L524.416 129.532V130.84L525.094 131.096V131.388L522.338 130.328V130.044L525.094 128.984V129.276ZM524.157 130.741V129.63L522.681 130.186L524.157 130.741Z" fill="white"/>
<path opacity="0.4" d="M524.25 170.015H523.969V192.533H524.25V170.015Z" fill="white"/>
<path d="M273.731 110.848C271.969 111.299 269.756 112.424 268.369 113.588C267.656 114.188 266.643 114.564 265.369 114.676C261.881 115.014 259.969 117.266 259.969 121.056C260.006 124.584 262.031 127.699 264.881 128.563C266.906 129.163 266.756 129.764 264.656 129.501C262.556 129.201 260.118 128 259.556 126.949C259.331 126.499 259.218 125.485 259.294 124.697C259.443 123.196 259.106 122.745 258.694 123.834C258.169 125.26 258.469 127.324 259.406 128.45C261.319 130.664 266.006 131.227 268.519 129.463C269.306 128.938 270.131 128.487 270.356 128.487C270.769 128.487 271.406 127.174 271.818 125.373C272.194 123.759 273.656 122.858 275.794 122.858C278.981 122.858 280.969 124.922 280.969 128.262C280.969 130.176 280.519 130.739 278.006 132.016C273.843 134.155 268.256 134.493 250.031 133.742C240.844 133.404 235.181 133.592 234.956 134.342C234.806 134.755 237.919 134.905 259.406 135.506C265.068 135.656 267.993 135.844 267.281 136.031C265.743 136.482 254.906 137.795 250.481 138.096C248.456 138.246 246.731 138.508 246.618 138.659C246.281 139.184 254.156 139.034 259.594 138.396C267.169 137.533 271.781 136.482 277.781 134.267C278.381 134.042 278.306 134.23 277.443 135.168C275.156 137.645 265.894 141.361 260.606 141.924C258.919 142.111 258.281 142.336 258.281 142.749C258.281 144.701 267.844 142.599 274.406 139.221C279.544 136.594 282.468 132.841 282.769 128.487C283.106 123.684 279.356 120.081 274.743 120.794C273.843 120.906 273.094 120.944 273.094 120.831C273.094 120.719 273.806 120.231 274.706 119.78C275.944 119.142 276.956 118.955 279.468 118.955C281.231 118.917 283.219 119.067 283.894 119.217C284.87 119.48 285.095 119.443 285.095 118.955C285.095 117.566 280.331 116.853 276.919 117.754C272.493 118.88 269.831 121.357 269.381 124.772L269.156 126.724L267.993 125.748C266.419 124.397 265.856 122.896 266.044 120.493C266.344 117.003 269.306 113.7 273.319 112.499C275.231 111.936 280.931 111.824 283.52 112.312C284.906 112.574 285.095 112.537 285.095 111.974C285.095 111.599 284.794 111.186 284.456 111.036C283.407 110.585 275.306 110.473 273.731 110.848ZM265.406 117.153C263.493 120.944 263.831 123.871 266.456 126.311C268.069 127.85 267.731 128.15 265.481 127.212C263.043 126.198 261.094 123.046 261.094 120.118C261.094 117.641 263.119 115.389 265.293 115.352H266.306L265.406 117.153Z" fill="white"/>
<path d="M358.312 155.661V158.234H334.364V163.38H355.32V165.954H334.364V171.1H358.312V173.673H331.369V155.661H358.312Z" fill="white"/>
<path d="M328.376 155.661V158.234H304.428V163.38H325.384V165.954H304.428V171.1H328.376V173.673H301.433V155.661H328.376Z" fill="white"/>
<path d="M274.49 160.203V173.673H271.497V155.378L295.445 169.131V155.661H298.44V173.956L274.49 160.203Z" fill="white"/>
<path d="M244.554 160.203V173.673H241.56V155.378L265.509 169.131V155.661H268.503V173.956L244.554 160.203Z" fill="white"/>
<path d="M211.624 168.527V155.661H214.618V168.527C214.618 170.242 215.616 171.1 217.612 171.1H232.58C234.576 171.1 235.574 170.242 235.574 168.527V155.661H238.567V168.527C238.567 171.958 236.571 173.673 232.58 173.673H217.612C213.62 173.673 211.624 171.958 211.624 168.527Z" fill="white"/>
<path d="M202.643 155.661C206.635 155.661 208.63 157.376 208.63 160.807H205.637C205.637 159.092 204.639 158.234 202.643 158.234H187.675C185.679 158.234 184.681 159.092 184.681 160.807C184.681 162.523 185.679 163.38 187.675 163.38H202.643C206.635 163.38 208.63 165.096 208.63 168.527C208.63 171.958 206.635 173.673 202.643 173.673H187.675C183.683 173.673 181.688 171.958 181.688 168.527H184.681C184.681 170.242 185.679 171.1 187.675 171.1H202.643C204.639 171.1 205.637 170.242 205.637 168.527C205.637 166.811 204.639 165.954 202.643 165.954H187.675C183.683 165.954 181.688 164.238 181.688 160.807C181.688 157.376 183.683 155.661 187.675 155.661H202.643Z" fill="white"/>
<path d="M320.203 192.466L318.057 188.765H316.086V192.466H314.418V182.307H318.479C319.387 182.307 320.155 182.626 320.785 183.265C321.421 183.894 321.741 184.663 321.741 185.573C321.741 186.221 321.553 186.816 321.176 187.358C320.808 187.89 320.324 188.277 319.725 188.519L322.031 192.466H320.203ZM316.086 183.874V187.27H318.479C318.923 187.27 319.3 187.106 319.61 186.777C319.919 186.448 320.074 186.047 320.074 185.573C320.074 185.099 319.919 184.697 319.61 184.368C319.3 184.039 318.923 183.874 318.479 183.874H316.086Z" fill="white"/>
<path d="M309.209 192.466L308.497 190.42H304.177L303.466 192.466H301.652L305.336 182.307H307.339L311.006 192.466H309.209ZM304.726 188.852H307.946L306.337 184.267L304.726 188.852Z" fill="white"/>
<path d="M294.112 190.87H298.606V192.466H292.444V182.307H298.533V183.904H294.112V186.545H298.173V188.127H294.112V190.87Z" fill="white"/>
<path d="M277.783 192.466L274.911 182.307H276.666L278.798 190.246L281.103 182.307H282.639L284.931 190.246L287.063 182.307H288.818L285.947 192.466H284.017L281.871 185.05L279.711 192.466H277.783Z" fill="white"/>
<path d="M269.62 182.307H271.288V192.466H269.62V188.069H265.269V192.466H263.602V182.307H265.269V186.473H269.62V182.307Z" fill="white"/>
<path d="M255.531 192.655C254.004 192.655 252.737 192.152 251.732 191.146C250.726 190.13 250.224 188.877 250.224 187.387C250.224 185.897 250.726 184.649 251.732 183.643C252.737 182.627 254.004 182.119 255.531 182.119C256.449 182.119 257.295 182.336 258.069 182.772C258.852 183.207 259.461 183.797 259.896 184.542L258.446 185.384C258.175 184.881 257.779 184.484 257.257 184.194C256.744 183.894 256.169 183.744 255.531 183.744C254.448 183.744 253.569 184.088 252.892 184.774C252.225 185.462 251.891 186.332 251.891 187.387C251.891 188.442 252.225 189.312 252.892 189.999C253.569 190.686 254.448 191.03 255.531 191.03C256.169 191.03 256.749 190.885 257.271 190.594C257.793 190.294 258.185 189.893 258.446 189.39L259.896 190.217C259.471 190.962 258.866 191.557 258.083 192.002C257.31 192.437 256.459 192.655 255.531 192.655Z" fill="white"/>
<path d="M245.904 192.466L245.193 190.42H240.872L240.161 192.466H238.349L242.032 182.307H244.033L247.702 192.466H245.904ZM241.423 188.852H244.642L243.033 184.267L241.423 188.852Z" fill="white"/>
<path d="M230.807 190.87H235.303V192.466H229.14V182.307H235.23V183.904H230.807V186.545H234.868V188.127H230.807V190.87Z" fill="white"/>
<path d="M223.943 187.198C224.388 187.43 224.736 187.75 224.987 188.156C225.239 188.562 225.365 189.031 225.365 189.564C225.365 190.396 225.069 191.088 224.48 191.639C223.89 192.191 223.17 192.466 222.319 192.466H217.969V182.307H222C222.832 182.307 223.532 182.578 224.103 183.12C224.683 183.652 224.973 184.32 224.973 185.123C224.973 186.003 224.63 186.695 223.943 187.198ZM222 183.874H219.636V186.545H222C222.367 186.545 222.677 186.419 222.928 186.168C223.179 185.906 223.305 185.587 223.305 185.21C223.305 184.832 223.179 184.518 222.928 184.267C222.677 184.005 222.367 183.874 222 183.874ZM222.319 190.899C222.706 190.899 223.03 190.763 223.291 190.493C223.561 190.212 223.697 189.873 223.697 189.477C223.697 189.08 223.561 188.746 223.291 188.475C223.03 188.195 222.706 188.054 222.319 188.054H219.636V190.899H222.319Z" fill="white"/>
</g>
</g>
</g>
<defs>
<clipPath id="clip0_561_162">
<rect width="540" height="300" fill="white"/>
</clipPath>
<clipPath id="clip1_561_162">
<rect width="540" height="304" fill="white"/>
</clipPath>
</defs>
</svg>
