<?xml version="1.0" encoding="UTF-8" standalone="no"?>
<!DOCTYPE svg PUBLIC "-//W3C//DTD SVG 1.1//EN" "http://www.w3.org/Graphics/SVG/1.1/DTD/svg11.dtd">
<!-- Created with Vectornator (http://vectornator.io/) -->
<svg height="100%" stroke-miterlimit="10" style="fill-rule:nonzero;clip-rule:evenodd;stroke-linecap:round;stroke-linejoin:round;" version="1.1" viewBox="0 0 512 512" width="100%" xml:space="preserve" xmlns="http://www.w3.org/2000/svg" xmlns:vectornator="http://vectornator.io" xmlns:xlink="http://www.w3.org/1999/xlink">
<defs/>
<clipPath id="ArtboardFrame">
<rect height="512" width="512" x="0" y="0"/>
</clipPath>
<g clip-path="url(#ArtboardFrame)" id="Untitled" vectornator:layerName="Untitled">
<g opacity="1">
<path d="M2.6 53.1L0 55.1L0 256L0 456.9L2.6 458.9L5.3 461L256 461L506.7 461L509.4 458.9L512 456.9L512 256L512 55.1L509.4 53.1L506.7 51L256 51L5.3 51L2.6 53.1ZM494 94L494 119L256 119L18 119L18 94L18 69L256 69L494 69L494 94ZM494 290L494 443L256 443L18 443L18 290L18 137L256 137L494 137L494 290Z" fill="#000000" fill-rule="evenodd" opacity="1" stroke="none"/>
<path d="M34 93.5L34 102L42.5 102L51 102L51 93.5L51 85L42.5 85L34 85L34 93.5Z" fill="#000000" fill-rule="evenodd" opacity="1" stroke="none"/>
<path d="M68 93.5L68 102L76.5 102L85 102L85 93.5L85 85L76.5 85L68 85L68 93.5Z" fill="#000000" fill-rule="evenodd" opacity="1" stroke="none"/>
<path d="M102 93.5L102 102L110.5 102L119 102L119 93.5L119 85L110.5 85L102 85L102 93.5Z" fill="#000000" fill-rule="evenodd" opacity="1" stroke="none"/>
<path d="M151.5 152.5C144.9 155.9 144.6 157.2 144 181.8L143.5 204L131 191.4C114.4 174.7 112.1 173 105.5 173C98.7 173 96.6 174.6 76.8 194.7C60 211.8 58.9 213.5 60.5 221.7C61.1 224.9 63.8 228.1 76.8 241.2L92.4 257L70.1 257C45.1 257 43.9 257.3 40.1 264C38.1 267.6 38 269.2 38 292.9C38 320.9 38.4 323 44.1 327.1C47.4 329.4 48.1 329.5 69.4 329.8L91.3 330.1L76.2 345.3C63.7 357.9 61.1 361.1 60.5 364.2C58.9 372.7 59.9 374.2 78.3 392.8C87.8 402.4 96.7 410.8 98.2 411.6C101.4 413.3 109.3 413.4 112.3 411.9C113.5 411.3 121.1 404.2 129.3 396.2L144 381.5L144 403.5C144 428.7 144.5 430.5 152.3 434C156.1 435.8 159 436 180.5 436C203.5 436 204.8 435.9 209 433.8C216.5 429.9 217 428 217 403L217 381.5L231.8 396.2C239.9 404.2 247.5 411.3 248.7 411.9C251.7 413.4 259.6 413.3 262.8 411.6C266.8 409.5 298.7 376.9 299.9 373.7C301.4 369.7 301.3 365.4 299.4 361.7C298.5 359.9 291.4 352.1 283.7 344.2L269.5 330L290.1 330C309.4 330 310.8 329.9 315 327.7C322.7 323.8 323 322.3 323 293.7C323 266.4 322.7 264.4 317.1 259.7L313.8 257L291.2 257L268.6 257L284.2 241.2C297.4 228 299.9 224.9 300.5 221.7C302 214 300 210.8 284.1 194.7C276.1 186.5 267.8 178.4 265.7 176.8C261.6 173.5 255.4 172.2 250.3 173.5C248.6 173.9 241.7 179.9 232.3 189.3L217 204.4L217 183.2C217 160.3 216.7 158.9 211.5 154L208.8 151.5L181.7 151.2C158.8 151 154 151.2 151.5 152.5ZM199 192.2C199 218.3 199.5 220.4 205.9 224.7C209.6 227.2 216.6 227.8 220.3 225.9C221.5 225.3 229.9 217.4 239 208.4L255.5 192L268.5 205L281.4 218L264.8 234.7C251 248.7 248 252.2 247.1 255.7C245.1 263.2 247.8 269.2 255 273.1C256.9 274.2 263.5 274.6 281.3 274.8L305 275.2L305 293.6L305 312L280.8 312C258.5 312 256.2 312.2 253.3 314C248 317.2 245.2 324.8 247 331C247.7 333.5 252.7 339.1 264.7 351.2L281.5 368L268.5 381L255.5 394L239.5 378.1C230.7 369.4 222 361.4 220.1 360.5C215.8 358.3 209.3 358.9 205.2 361.8C199.5 365.9 199 368.4 199 394.4L199 418L180.5 418L162 418L162 394.7C162 373.9 161.8 371.1 160 367.2C157 360.6 148.4 357.4 141.3 360.1C139.8 360.7 131.1 368.5 122 377.6L105.4 394L92.5 381L79.5 368L95.7 351.7C104.5 342.8 112.3 334.5 112.9 333.3C114.7 329.8 114.2 322.1 112 318.5C108.3 312.5 105.9 312 79.6 312L56 312L56 293.6L56 275.2L79.8 274.8C106.1 274.5 108.2 274 112 267.7C114.2 264.1 114.7 256.2 112.9 252.7C112.3 251.5 104.5 243.2 95.7 234.3L79.5 218L92.5 205L105.5 192L122 208.4C131.1 217.4 139.5 225.3 140.7 225.9C144.1 227.6 151.1 227.2 154.7 225C161.3 221 161.5 220.2 161.8 193.3L162.1 169L180.6 169L199 169L199 192.2Z" fill="#000000" fill-rule="evenodd" opacity="1" stroke="none"/>
<path d="M168 253.9C160.4 256.3 158.4 257.6 152.2 263.4C131.2 283.3 136.7 317.9 162.8 330.3C169.1 333.3 170.2 333.5 180.5 333.5C190.7 333.5 192 333.3 198 330.4C222.8 318.7 229.4 285.6 211 265.6C200 253.7 183 249 168 253.9ZM187.1 271.2C194.7 273.4 201.8 281.5 203.3 289.8C205 298.5 199.3 309.2 190.8 313.4C177.3 320.1 161.5 312.8 158 298C154 281.4 170.5 266.2 187.1 271.2Z" fill="#000000" fill-rule="evenodd" opacity="1" stroke="none"/>
<path d="M408.3 155.2C406.1 157.6 395 170.7 383.6 184.4C364.5 207.4 363 209.6 363 213.2C363 219.5 366.3 222 374.5 222L381 222L381 280L381 338L390 338L399.1 338L398.8 273.4L398.5 208.8L395.2 206L391.9 203.3L404.1 188.6C410.8 180.6 416.4 174.1 416.6 174.2C416.7 174.4 422.2 181 428.8 188.9L440.8 203.3L437.4 206.5L434 209.7L434 238.4L434 267L443 267L452 267L452 244.5L452 222L458.1 222C463.5 222 464.5 221.7 467.1 219.1C471.4 214.7 471 211.3 465.3 204.3C447.2 182 421.7 152.1 420.4 151.6C416 149.9 412.4 151 408.3 155.2Z" fill="#000000" fill-rule="evenodd" opacity="1" stroke="none"/>
<path d="M434 293.5L434 303L443 303L452 303L452 293.5L452 284L443 284L434 284L434 293.5Z" fill="#000000" fill-rule="evenodd" opacity="1" stroke="none"/>
<path d="M434 328.5L434 338L443 338L452 338L452 328.5L452 319L443 319L434 319L434 328.5Z" fill="#000000" fill-rule="evenodd" opacity="1" stroke="none"/>
<path d="M381 364.5L381 374L390 374L399 374L399 364.5L399 355L390 355L381 355L381 364.5Z" fill="#000000" fill-rule="evenodd" opacity="1" stroke="none"/>
<path d="M434 364.5L434 374L443 374L452 374L452 364.5L452 355L443 355L434 355L434 364.5Z" fill="#000000" fill-rule="evenodd" opacity="1" stroke="none"/>
<path d="M381 400L381 409L390 409L399 409L399 400L399 391L390 391L381 391L381 400Z" fill="#000000" fill-rule="evenodd" opacity="1" stroke="none"/>
<path d="M434 400L434 409L443 409L452 409L452 400L452 391L443 391L434 391L434 400Z" fill="#000000" fill-rule="evenodd" opacity="1" stroke="none"/>
</g>
</g>
</svg>
