<?xml version="1.0" encoding="utf-8" ?>
<svg xmlns="http://www.w3.org/2000/svg" xmlns:xlink="http://www.w3.org/1999/xlink" width="512" height="512">
	<path fill="#A44747" d="M262.375 474.988L67.1738 474.987C38.6588 474.924 15.394 460.41 5.86859 432.783C2.56156 423.191 1.99885 416.04 1.99585 406.048L1.99134 206.667C1.99219 201.098 1.73265 195.398 2.33337 189.857C4.94891 165.731 21.0434 143.669 44.5417 136.113C52.5078 133.552 60.1244 132.966 68.4347 132.955L146.199 132.874C151.089 76.8302 192.644 30.1093 250.481 27.5645C256.225 27.5034 262.088 27.2823 267.812 27.777C316.415 31.9769 354.123 71.2846 363.904 117.782C364.961 122.804 365.459 127.806 365.993 132.894L444.884 132.952C453.266 132.956 459.293 133.391 467.28 135.885C482.61 140.672 500.792 157.125 506.095 172.912C508.633 180.468 509.958 189.035 509.981 196.98L509.989 390.77C509.988 402.037 510.693 413.458 508.459 424.553C502.569 453.799 476.684 475.019 447.04 475.017L262.375 474.988ZM254.119 69.2879C248.138 69.9611 242.311 70.9512 236.603 72.8981C171.279 95.1804 175.947 210.368 254.29 210.256C263.04 210.244 278.081 209.309 283.529 202.291C285.858 199.292 287.992 188.764 279.762 190.873C275.442 191.981 271.349 193.637 266.951 194.562C255.395 196.994 241.054 195.944 230.692 189.983C192.347 167.921 202.746 96.0013 247.062 84.5955C268.124 79.1749 289.169 88.0195 300.781 106.036C311.434 123.474 312.72 142.048 307.93 161.92C306.936 166.045 305.334 171.465 301.375 173.73C297.958 175.685 292.631 174.57 290.836 170.868C288.023 165.066 291.874 132.956 292.471 125.664C292.959 119.702 293.97 113.067 293.202 107.126L271.733 104.428C247.689 101.777 227.621 115.954 224.139 140.266C221.993 155.254 227.3 170.764 243.986 173.053C260.703 175.346 261.085 170.666 274.791 166.044C276.688 168.845 277.149 172.056 278.223 175.208C282.453 187.631 300.701 189.751 310.502 183.14C324.953 173.392 326.348 147.787 324.717 131.395C320.853 92.5617 292.265 68.0588 254.119 69.2879ZM136.588 151.761L69.1512 151.771C53.5705 151.793 41.9444 154.796 30.5177 166.64L216.2 304.857C223.939 310.764 231.3 317.535 239.767 322.382C260.053 333.995 273.516 322.358 289.068 309.947L365.642 252.274L395.363 230.641L481.911 166.194C470.412 155.605 460.618 151.821 445.522 151.767L366.726 151.754C365.984 153.052 365.798 154.49 365.266 155.876L360.918 166.509C351.174 189.093 331.725 201.577 307.51 199.265L299.132 198.256C296.069 197.966 295.233 200.524 293.573 203.382L292.179 205.864C293.505 207.513 295.895 208.807 297.617 210.083C303.918 214.751 307.669 220.704 306.745 228.766C305.591 238.831 296.956 243.388 288.356 246.158C221.128 267.809 154.457 219.539 146.701 151.67L136.588 151.761ZM489.754 184.125C485.491 186.782 481.521 190.105 477.53 193.159L324.839 305.986C321.174 308.672 317.426 311.248 314.07 314.325L386.05 365.833L484.837 435.974C491.579 425.788 491.485 411.147 491.488 399.555L491.484 199.107C491.48 195.68 491.75 191.879 491.044 188.518L490.815 187.616C490.57 186.728 490.452 184.601 489.754 184.125ZM21.842 184.109C21.0353 187.04 20.4535 190.147 20.3313 193.192L20.2405 406.648C20.2605 417.115 21.9205 426.739 27.4106 435.772L125.937 365.531L198.184 314.236L21.842 184.109ZM213.032 326.625L50.0099 442.345C46.7668 444.576 43.0386 446.762 40.4504 449.757C49.3183 454.763 54.8799 455.966 64.6728 455.975L318.125 455.975L439.405 455.963C451.366 455.954 460.615 455.73 471.261 449.828C465.607 444.882 459.356 440.835 453.184 436.577L305.564 331.019C303.443 329.503 301.289 327.774 299.033 326.475C291.898 331.762 284.847 337.549 276.721 341.261C259.319 349.212 241.372 346.827 225.974 335.954L216.325 328.434C215.47 327.765 214.503 326.377 213.312 326.554L213.032 326.625Z"/>
	<path fill="#A44747" d="M256.562 160.224C236.398 161.297 241.464 123.19 257.803 119.8C278.079 118.945 271.643 156.682 256.562 160.224Z"/>
</svg>
