<svg width="32" height="32" viewBox="0 0 32 32" fill="none" xmlns="http://www.w3.org/2000/svg">
<rect width="32" height="32" fill="#1F1F1F"/>
<path d="M13.5447 7.07161V10.6468H6.06945V14.509H11.6628V17.9798H6.06945V25.3912H1.59998V7.07161H13.5447Z" fill="white"/>
<path d="M15.0051 18.0842C15.0051 16.588 15.2839 15.2745 15.8415 14.1437C16.4165 13.0129 17.1919 12.143 18.1677 11.5341C19.1435 10.9252 20.2326 10.6207 21.4349 10.6207C22.3933 10.6207 23.2645 10.8208 24.0486 11.2209C24.8502 11.6211 25.4775 12.1604 25.9305 12.8389V6.07996H30.4V25.3912H25.9305V23.3035C25.5123 23.9994 24.9111 24.5561 24.127 24.9736C23.3603 25.3912 22.463 25.6 21.4349 25.6C20.2326 25.6 19.1435 25.2955 18.1677 24.6866C17.1919 24.0603 16.4165 23.1817 15.8415 22.0509C15.2839 20.9026 15.0051 19.5804 15.0051 18.0842ZM25.9305 18.1103C25.9305 16.9969 25.6169 16.1183 24.9896 15.4746C24.3797 14.8309 23.6304 14.509 22.7418 14.509C21.8531 14.509 21.0951 14.8309 20.4678 15.4746C19.8579 16.1009 19.553 16.9708 19.553 18.0842C19.553 19.1977 19.8579 20.0849 20.4678 20.7461C21.0951 21.3898 21.8531 21.7116 22.7418 21.7116C23.6304 21.7116 24.3797 21.3898 24.9896 20.7461C25.6169 20.1023 25.9305 19.2238 25.9305 18.1103Z" fill="white"/>
</svg>
