<svg width="48" height="48" viewBox="0 0 48 48" fill="none" xmlns="http://www.w3.org/2000/svg">
<rect width="48" height="48" rx="24" fill="url(#paint0_linear_234_363)"/>
<rect x="8" y="8" width="32" height="32" rx="16" fill="white"/>
<path fill-rule="evenodd" clip-rule="evenodd" d="M24.0433 15.804C19.2519 15.804 15.3711 19.6693 15.3711 24.4417C15.3711 28.2639 17.8535 31.4922 21.3007 32.6367C21.7343 32.7123 21.8969 32.4531 21.8969 32.2264C21.8969 32.0212 21.8861 31.341 21.8861 30.6176C19.7072 31.0171 19.1435 30.0886 18.9701 29.6027C18.8725 29.3544 18.4497 28.5878 18.0812 28.3826C17.7776 28.2207 17.344 27.8212 18.0703 27.8104C18.7532 27.7996 19.2411 28.4366 19.4037 28.6957C20.1842 30.0022 21.4308 29.6351 21.9294 29.4083C22.0053 28.8469 22.233 28.469 22.4823 28.2531C20.5527 28.0371 18.5364 27.2921 18.5364 23.9882C18.5364 23.0488 18.8725 22.2714 19.4253 21.6668C19.3386 21.4509 19.0351 20.5655 19.5121 19.3778C19.5121 19.3778 20.2384 19.1511 21.8969 20.2632C22.5907 20.0688 23.3278 19.9717 24.065 19.9717C24.8021 19.9717 25.5392 20.0688 26.233 20.2632C27.8916 19.1403 28.6179 19.3778 28.6179 19.3778C29.0948 20.5655 28.7913 21.4509 28.7046 21.6668C29.2574 22.2714 29.5935 23.038 29.5935 23.9882C29.5935 27.3029 27.5664 28.0371 25.6368 28.2531C25.9512 28.523 26.2222 29.0412 26.2222 29.851C26.2222 31.0063 26.2113 31.9349 26.2113 32.2264C26.2113 32.4531 26.3739 32.7231 26.8075 32.6367C30.2331 31.4922 32.7155 28.2531 32.7155 24.4417C32.7155 19.6693 28.8347 15.804 24.0433 15.804Z" fill="#1B1F23"/>
<defs>
<linearGradient id="paint0_linear_234_363" x1="4.03493" y1="3.1441" x2="39.6681" y2="48" gradientUnits="userSpaceOnUse">
<stop/>
<stop offset="1" stop-color="#4B4B4B"/>
</linearGradient>
</defs>
</svg>
