<svg width="350" height="350" viewBox="0 0 350 350" fill="none" xmlns="http://www.w3.org/2000/svg">
<path fill-rule="evenodd" clip-rule="evenodd" d="M175.223 50C104.872 50 48 107.291 48 178.169C48 234.825 84.4399 282.783 134.992 299.757C141.312 301.033 143.627 296.999 143.627 293.606C143.627 290.634 143.419 280.45 143.419 269.838C108.028 277.478 100.659 254.559 100.659 254.559C94.9711 239.705 86.5441 235.887 86.5441 235.887C74.9608 228.036 87.3878 228.036 87.3878 228.036C100.237 228.885 106.979 241.192 106.979 241.192C118.351 260.713 136.677 255.197 144.049 251.801C145.101 243.525 148.473 237.796 152.054 234.614C123.828 231.642 94.13 220.609 94.13 171.377C94.13 157.372 99.182 145.914 107.187 137.002C105.924 133.82 101.5 120.661 108.453 103.049C108.453 103.049 119.195 99.6534 143.416 116.205C153.786 113.4 164.481 111.973 175.223 111.961C185.965 111.961 196.916 113.448 207.028 116.205C231.252 99.6534 241.994 103.049 241.994 103.049C248.947 120.661 244.52 133.82 243.257 137.002C251.473 145.914 256.317 157.372 256.317 171.377C256.317 220.609 226.619 231.429 198.181 234.614C202.817 238.645 206.817 246.283 206.817 258.379C206.817 275.567 206.609 289.361 206.609 293.603C206.609 296.999 208.926 301.033 215.244 299.759C265.796 282.78 302.236 234.825 302.236 178.169C302.444 107.291 245.364 50 175.223 50Z" fill="white"/>
</svg>
