<svg width="350" height="350" viewBox="0 0 350 350" fill="none" xmlns="http://www.w3.org/2000/svg">
<path d="M297.688 177.813C297.688 169.583 296.958 161.771 295.708 154.167H178V201.146H245.396C242.375 216.563 233.521 229.583 220.396 238.438V269.688H260.604C284.146 247.917 297.688 215.833 297.688 177.813Z" fill="white"/>
<path d="M178 300C211.75 300 239.979 288.75 260.604 269.688L220.396 238.438C209.146 245.938 194.875 250.521 178 250.521C145.396 250.521 117.792 228.542 107.896 198.854H66.4375V231.042C86.9583 271.875 129.146 300 178 300Z" fill="white"/>
<path d="M107.896 198.854C105.292 191.354 103.938 183.333 103.938 175C103.938 166.667 105.396 158.646 107.896 151.146V118.958H66.4375C57.8958 135.833 53 154.792 53 175C53 195.208 57.8958 214.167 66.4375 231.042L107.896 198.854Z" fill="white"/>
<path d="M178 99.4792C196.438 99.4792 212.896 105.833 225.917 118.229L261.542 82.6042C239.979 62.3958 211.75 50 178 50C129.146 50 86.9583 78.125 66.4375 118.958L107.896 151.146C117.792 121.458 145.396 99.4792 178 99.4792Z" fill="white"/>
</svg>
