<?xml version="1.0" encoding="UTF-8" standalone="no"?>
<!DOCTYPE svg PUBLIC "-//W3C//DTD SVG 1.1//EN" "http://www.w3.org/Graphics/SVG/1.1/DTD/svg11.dtd">
<!-- Created with Vectornator (http://vectornator.io/) -->
<svg height="100%" stroke-miterlimit="10" style="fill-rule:nonzero;clip-rule:evenodd;stroke-linecap:round;stroke-linejoin:round;" version="1.1" viewBox="0 0 512 512" width="100%" xml:space="preserve" xmlns="http://www.w3.org/2000/svg" xmlns:vectornator="http://vectornator.io" xmlns:xlink="http://www.w3.org/1999/xlink">
<defs/>
<clipPath id="ArtboardFrame">
<rect height="512" width="512" x="0" y="0"/>
</clipPath>
<g clip-path="url(#ArtboardFrame)" id="Untitled" vectornator:layerName="Untitled">
<g opacity="1">
<path d="M246 19.5L246 39L255.75 39L265.5 39L265.5 19.5L265.5-7.62939e-06L255.75-7.62939e-06L246-7.62939e-06L246 19.5Z" fill="#000000" fill-rule="evenodd" opacity="1" stroke="none"/>
<path d="M84.5554 53.4665C80.5531 56.7854 78.2104 59.3234 78.6984 60.0067C79.0889 60.69 84.653 67.6207 90.998 75.5276C102.614 89.7795 102.712 89.8771 104.957 88.2176C113.157 81.8726 116.964 78.6513 117.061 77.968C117.061 76.6014 93.4384 48 92.267 48C91.6813 48 88.2648 50.4404 84.5554 53.4665Z" fill="#000000" fill-rule="evenodd" opacity="1" stroke="none"/>
<path d="M244.9 70C185.8 75.3 134.1 115.7 114.2 172.1C107.9 189.9 106.5 199.2 106.5 223C106.5 246.9 107.4 253.4 113.5 271.8C118.2 285.7 123.7 296.9 131.9 309.2C144 327.3 163.9 346.2 180.6 355.6L187 359.2L187 375.4C187 384.3 187.5 394.3 188.1 397.6C191.5 416.7 207.3 433.5 226.5 438.5C235 440.7 284 440.7 292.4 438.5C311.4 433.5 326 418.6 330.5 399.8C331.5 395.6 332 387.9 332 376.5L332 359.5L338.5 355.7C361.7 342.2 384.7 317.5 397 293.1C422 243.1 418.5 185 387.7 138.9C372.2 115.7 351.1 97.3 326 84.9C300.4 72.3 274 67.5 244.9 70ZM281.6 90.5C330.4 99 373.3 136.8 388.3 184.5C403 231.3 389.3 284.3 353.5 319.6C345 327.9 332.1 337.3 321.4 342.9C318 344.7 314.8 347.1 314.2 348.3C313.5 349.6 312.9 359.2 312.7 372.5C312.3 398.2 311.6 401 303.8 409.5C296.7 417.3 290.3 420.2 278.4 420.8L269 421.3L269 347.8L269 274.3L279.3 270.8L289.6 267.2L292 271.7C295.2 277.7 303 284.5 309.6 286.9C317 289.7 328 289.7 335.4 287C342.2 284.4 349.8 277.4 353.6 270C356.2 265.1 356.5 263.5 356.5 255C356.5 247.3 356.1 244.6 354.3 240.8C351.3 234.2 343.8 226.5 337.1 223.3C332.2 220.9 330.3 220.5 322.5 220.5C314.9 220.5 312.6 220.9 307.9 223.1C304.7 224.6 300.4 227.6 298.1 229.9C294.1 233.9 289 242.6 289 245.4C289 246.8 282.4 249.5 265.9 254.9L259.3 257.1L245.5 252.2C237.8 249.5 231.3 246.7 230.9 245.9C230.5 245.1 229.2 242.4 228.1 239.9C224.8 232.7 219.6 227.4 212.2 223.8C206.1 220.8 204.8 220.5 196.5 220.6C189.6 220.6 186.4 221.1 182.7 222.8C176.1 225.8 168.5 233.2 165.3 239.9C163 244.7 162.6 246.8 162.5 254.5C162.5 262.2 162.9 264.3 165.2 269.2C168.4 276.1 174.9 282.8 181.5 286.1C185.8 288.2 187.9 288.5 197 288.5C206.1 288.5 208.1 288.2 211.8 286.2C217.9 283 224.3 276.8 227 271.6L229.4 267.3L239.7 270.7L250 274.2L250 347.7L250 421.3L240.7 420.8C234.4 420.5 230 419.6 226.8 418.2C219.8 415.1 212.7 408 209.4 400.7C206.6 394.6 206.6 394.2 206.2 372C206 359.6 205.4 348.8 204.9 347.8C204.4 346.9 200.5 344.3 196.3 342C184.2 335.5 173.9 327.6 163.2 316.6C144.6 297.4 133 275.6 127.3 249C124.8 237.1 124.8 209 127.4 197C133.3 169.9 145.3 147.6 164.5 128.5C184.4 108.5 209.1 95.5 236.5 90.6C247.4 88.7 270.5 88.6 281.6 90.5ZM203 241.2C208.6 244.1 212 249 212 254.2C212 266.1 198.5 274.1 188.9 267.7C184.1 264.6 180.7 257.3 181.6 252.4C182.8 245.9 190.2 239.5 197 239.1C197.9 239 200.6 240 203 241.2ZM330.5 242C332.4 243.2 334.8 246 336 248.6C339.6 256 337.5 262.6 330 267.7C320.2 274.4 305.9 265.3 307.3 253.3C307.9 247.6 310.4 244.1 316.1 241.2C321.2 238.5 325.2 238.7 330.5 242Z" fill="#000000" fill-rule="evenodd" opacity="1" stroke="none"/>
<path d="M420.29 98.8421L403 107.487L407.08 115.744C409.314 120.309 411.548 124 411.936 124C412.616 124 445.739 107.681 446.516 107.001C446.905 106.613 438.551 90.0028 437.969 90.1C437.677 90.1 429.712 93.9854 420.29 98.8421Z" fill="#000000" fill-rule="evenodd" opacity="1" stroke="none"/>
<path d="M19 226.5L19 236L38 236L57 236L57 226.5L57 217L38 217L19 217L19 226.5Z" fill="#000000" fill-rule="evenodd" opacity="1" stroke="none"/>
<path d="M453 226.5L453 236L472 236L491 236L491 226.5L491 217L472 217L453 217L453 226.5Z" fill="#000000" fill-rule="evenodd" opacity="1" stroke="none"/>
<path d="M71.0016 337.452C61.9694 342.017 54.394 345.902 54.1998 345.999C53.9084 346.193 61.4838 361.927 62.2607 362.801C62.9406 363.578 96.7385 345.902 96.7385 344.833C96.7385 342.697 89.5516 329.003 88.4832 329.1C87.9976 329.1 80.1309 332.888 71.0016 337.452Z" fill="#000000" fill-rule="evenodd" opacity="1" stroke="#000000" stroke-linecap="round" stroke-linejoin="round" stroke-width="0.73"/>
<path d="M388.542 354.468C384.929 357.398 382 360.327 382 360.815C382 362.085 405.338 390.5 406.412 390.5C406.9 390.5 410.415 387.961 414.224 384.836L421.156 379.173L414.907 371.654C411.587 367.553 405.924 360.718 402.604 356.519C399.186 352.418 396.061 349 395.768 349C395.378 349 392.155 351.441 388.542 354.468Z" fill="#000000" fill-rule="evenodd" opacity="1" stroke="none"/>
<path d="M215.3 458.4L212.5 460.8L212.5 475.7C212.5 489.1 212.8 490.9 214.8 495.1C217.9 501.3 223.4 506.7 229.5 509.6C234.4 511.9 235.1 512 263 512C290.9 512 291.6 511.9 296.6 509.6C302.7 506.8 308.1 501.4 311.2 495.1C313.3 490.9 313.5 489.1 313.5 475.7L313.5 460.8L310.7 458.4L307.9 456L263 456L218.1 456L215.3 458.4ZM295 478.2C295 484.4 293.1 489 289.7 491C286.8 492.8 284.5 493 263.2 493C233.5 493 232 492.4 232 480.6L232 475L263.5 475L295 475L295 478.2Z" fill="#000000" fill-rule="evenodd" opacity="1" stroke="none"/>
</g>
</g>
</svg>
