<svg width="350" height="350" viewBox="0 0 350 350" fill="none" xmlns="http://www.w3.org/2000/svg">
<path fill-rule="evenodd" clip-rule="evenodd" d="M175 110.811C139.549 110.811 110.811 139.549 110.811 175C110.811 210.451 139.549 239.189 175 239.189C210.451 239.189 239.189 210.451 239.189 175C239.189 139.549 210.451 110.811 175 110.811ZM175 216.667C151.988 216.667 133.333 198.012 133.333 175C133.333 151.988 151.988 133.333 175 133.333C198.012 133.333 216.667 151.988 216.667 175C216.667 198.012 198.012 216.667 175 216.667Z" fill="white"/>
<path d="M241.725 123.275C250.01 123.275 256.725 116.559 256.725 108.275C256.725 99.9905 250.01 93.2746 241.725 93.2746C233.441 93.2746 226.725 99.9905 226.725 108.275C226.725 116.559 233.441 123.275 241.725 123.275Z" fill="white"/>
<path fill-rule="evenodd" clip-rule="evenodd" d="M175 50C141.052 50 136.795 50.1439 123.463 50.7522C110.158 51.3591 101.071 53.4723 93.1203 56.5626C84.9004 59.7566 77.9294 64.0307 70.9798 70.9798C64.0307 77.9294 59.7566 84.9004 56.5626 93.1203C53.4723 101.071 51.3591 110.158 50.7522 123.463C50.1439 136.795 50 141.052 50 175C50 208.948 50.1439 213.205 50.7522 226.537C51.3591 239.842 53.4723 248.929 56.5626 256.88C59.7566 265.1 64.0307 272.071 70.9798 279.02C77.9294 285.969 84.9004 290.243 93.1203 293.438C101.071 296.528 110.158 298.641 123.463 299.248C136.795 299.856 141.052 300 175 300C208.948 300 213.205 299.856 226.537 299.248C239.842 298.641 248.929 296.528 256.88 293.438C265.1 290.243 272.071 285.969 279.02 279.02C285.969 272.071 290.243 265.1 293.438 256.88C296.528 248.929 298.641 239.842 299.248 226.537C299.856 213.205 300 208.948 300 175C300 141.052 299.856 136.795 299.248 123.463C298.641 110.158 296.528 101.071 293.438 93.1203C290.243 84.9004 285.969 77.9294 279.02 70.9798C272.071 64.0307 265.1 59.7566 256.88 56.5626C248.929 53.4723 239.842 51.3591 226.537 50.7522C213.205 50.1439 208.948 50 175 50ZM175 72.5225C208.376 72.5225 212.33 72.65 225.511 73.2514C237.698 73.8071 244.317 75.8435 248.721 77.5553C254.556 79.8229 258.72 82.5316 263.094 86.906C267.468 91.2799 270.177 95.4439 272.445 101.279C274.157 105.683 276.193 112.302 276.749 124.489C277.35 137.67 277.478 141.624 277.478 175C277.478 208.376 277.35 212.33 276.749 225.511C276.193 237.698 274.157 244.317 272.445 248.721C270.177 254.556 267.468 258.72 263.094 263.094C258.72 267.468 254.556 270.177 248.721 272.445C244.317 274.157 237.698 276.193 225.511 276.749C212.332 277.35 208.379 277.478 175 277.478C141.621 277.478 137.669 277.35 124.489 276.749C112.302 276.193 105.683 274.157 101.279 272.445C95.4439 270.177 91.2799 267.468 86.906 263.094C82.5321 258.72 79.8229 254.556 77.5553 248.721C75.8435 244.317 73.8071 237.698 73.2514 225.511C72.65 212.33 72.5225 208.376 72.5225 175C72.5225 141.624 72.65 137.67 73.2514 124.489C73.8071 112.302 75.8435 105.683 77.5553 101.279C79.8229 95.4439 82.5316 91.2799 86.906 86.906C91.2799 82.5316 95.4439 79.8229 101.279 77.5553C105.683 75.8435 112.302 73.8071 124.489 73.2514C137.67 72.65 141.624 72.5225 175 72.5225Z" fill="white"/>
</svg>
