<svg width="48" height="48" viewBox="0 0 48 48" fill="none" xmlns="http://www.w3.org/2000/svg">
<rect width="48" height="48" rx="24" fill="url(#paint0_linear_234_359)"/>
<rect x="8" y="8" width="32" height="32" rx="16" fill="white"/>
<g clip-path="url(#clip0_234_359)">
<g filter="url(#filter0_i_234_359)">
<path d="M30.2125 33.0715C31.524 32.5648 32.5609 31.5279 33.0676 30.2164C33.3075 29.5951 33.4754 28.8863 33.521 27.8495C33.5318 27.6066 33.5402 27.4027 33.548 27.1982V20.2707C33.5426 20.1262 33.5366 19.9757 33.5288 19.8065C33.4832 18.7697 33.3153 18.0573 33.0754 17.4396C32.8277 16.7842 32.4463 16.1971 31.9474 15.7095C31.4593 15.2136 30.8686 14.8286 30.2203 14.5851C29.5991 14.3452 28.8902 14.1773 27.8534 14.1318C26.8087 14.082 26.4771 14.0706 23.8283 14.0706C21.1795 14.0706 20.8473 14.082 19.8069 14.1276C18.77 14.1731 18.0576 14.3411 17.4399 14.5809C16.7845 14.8286 16.1974 15.21 15.7092 15.7095C15.2139 16.1977 14.8289 16.7884 14.5848 17.436C14.345 18.0573 14.1771 18.7661 14.1315 19.8029C14.0817 20.8476 14.0703 21.1792 14.0703 23.8286C14.0703 26.478 14.0817 26.8096 14.1273 27.8501C14.1729 28.8869 14.3408 29.5999 14.5812 30.217C14.8289 30.8725 15.2139 31.4595 15.7092 31.9477C16.1974 32.443 16.7881 32.8286 17.4363 33.0721C18.0576 33.312 18.7664 33.4799 19.8033 33.5255C20.8437 33.5716 21.1753 33.583 23.8247 33.583C26.4741 33.583 26.8051 33.5716 27.8462 33.5255C28.883 33.4799 29.5955 33.312 30.2131 33.0721L30.2125 33.0715ZM23.8319 31.829C21.2281 31.829 20.9157 31.8176 19.8902 31.772C18.9373 31.73 18.4228 31.5699 18.0798 31.4368C17.657 31.2802 17.272 31.0326 16.959 30.7087C16.6351 30.3921 16.3869 30.0113 16.231 29.5879C16.0978 29.2449 15.9377 28.7262 15.8957 27.7775C15.8502 26.7485 15.8388 26.4396 15.8388 23.8358C15.8388 21.232 15.8502 20.9196 15.8957 19.8947C15.9377 18.9418 16.0978 18.4273 16.231 18.0843C16.3875 17.6609 16.6351 17.2759 16.9632 16.9635C17.2792 16.6396 17.6606 16.392 18.0834 16.2354C18.4264 16.1023 18.9451 15.9422 19.8938 15.9002C20.9229 15.8546 21.2317 15.8433 23.8349 15.8433C26.4381 15.8433 26.7512 15.8546 27.7766 15.9002C28.7295 15.9422 29.244 16.1023 29.5871 16.2354C30.0098 16.392 30.3948 16.6396 30.7073 16.9635C31.0311 17.2801 31.2794 17.6609 31.4353 18.0843C31.5684 18.4273 31.7285 18.9454 31.7705 19.8947C31.8161 20.9238 31.8275 21.2326 31.8275 23.8358C31.8275 26.439 31.8161 26.7443 31.7705 27.7733C31.7285 28.7262 31.5684 29.2407 31.4353 29.5837C31.1073 30.4341 30.4326 31.1087 29.5829 31.4362C29.2399 31.5693 28.7217 31.7294 27.7724 31.7714C26.7434 31.817 26.4345 31.8284 23.8313 31.8284L23.8319 31.829Z" fill="#1B1F23"/>
<path d="M23.8282 18.8152C21.0606 18.8152 18.8154 21.0604 18.8154 23.828C18.8154 26.5955 21.0606 28.8407 23.8282 28.8407C26.5957 28.8407 28.8403 26.5955 28.8403 23.828C28.8403 21.0604 26.5951 18.8152 23.8282 18.8152ZM23.8282 27.0788C22.0327 27.0788 20.5767 25.6228 20.5767 23.8274C20.5767 22.0319 22.0327 20.5759 23.8282 20.5759C25.6236 20.5759 27.0796 22.0319 27.0796 23.8274C27.0796 25.6228 25.6236 27.0788 23.8282 27.0788Z" fill="#1B1F23"/>
<path d="M30.2087 18.6174C30.2087 17.9709 29.6846 17.4474 29.0381 17.4474C28.3917 17.4474 27.8682 17.9715 27.8682 18.6174C27.8682 19.2632 28.3923 19.7873 29.0381 19.7873C29.684 19.7873 30.2087 19.2638 30.2087 18.6174Z" fill="#1B1F23"/>
</g>
</g>
<defs>
<filter id="filter0_i_234_359" x="14.0703" y="14.0706" width="19.4775" height="20.0124" filterUnits="userSpaceOnUse" color-interpolation-filters="sRGB">
<feFlood flood-opacity="0" result="BackgroundImageFix"/>
<feBlend mode="normal" in="SourceGraphic" in2="BackgroundImageFix" result="shape"/>
<feColorMatrix in="SourceAlpha" type="matrix" values="0 0 0 0 0 0 0 0 0 0 0 0 0 0 0 0 0 0 127 0" result="hardAlpha"/>
<feOffset dy="0.5"/>
<feGaussianBlur stdDeviation="1.25"/>
<feComposite in2="hardAlpha" operator="arithmetic" k2="-1" k3="1"/>
<feColorMatrix type="matrix" values="0 0 0 0 0 0 0 0 0 0 0 0 0 0 0 0 0 0 0.1 0"/>
<feBlend mode="normal" in2="shape" result="effect1_innerShadow_234_359"/>
</filter>
<linearGradient id="paint0_linear_234_359" x1="4.03493" y1="3.1441" x2="39.6681" y2="48" gradientUnits="userSpaceOnUse">
<stop/>
<stop offset="1" stop-color="#4B4B4B"/>
</linearGradient>
<clipPath id="clip0_234_359">
<rect width="19.5124" height="19.5124" fill="white" transform="translate(14.0703 14.0706)"/>
</clipPath>
</defs>
</svg>
