<svg width="360" height="360" viewBox="0 0 360 360" fill="none" xmlns="http://www.w3.org/2000/svg">
<rect width="360" height="360" fill="#DB7C47"/>
<path d="M138.602 202C137.318 202 136.465 201.696 136.043 201.089L122.145 182.294L115.486 188.531V200.868C115.486 201.623 114.733 202 113.229 202C111.743 202 111 201.623 111 200.868V164.354C111 163.6 111.743 163.223 113.229 163.223C114.733 163.223 115.486 163.6 115.486 164.354V184.447L137.694 163.72C138.042 163.388 138.593 163.223 139.345 163.223C139.602 163.223 139.914 163.26 140.281 163.333C140.978 163.499 141.326 163.784 141.326 164.189C141.326 164.318 141.244 164.465 141.079 164.63L125.668 179.037L141.189 200.151C141.317 200.335 141.381 200.5 141.381 200.648C141.381 201.163 140.932 201.54 140.033 201.779C139.574 201.926 139.097 202 138.602 202Z" fill="white"/>
<path d="M147.078 202C145.573 202 144.821 201.577 144.821 200.73V175.008C144.821 174.161 145.573 173.738 147.078 173.738C148.564 173.738 149.307 174.161 149.307 175.008V178.071C150.628 175.182 153.031 173.738 156.517 173.738C158.572 173.738 160.351 174.235 161.856 175.228C162.223 175.468 162.406 175.762 162.406 176.112C162.406 176.535 162.158 176.93 161.663 177.298C161.278 177.574 160.847 177.712 160.37 177.712C159.728 177.712 159.131 177.482 158.581 177.022C158.03 176.544 157.159 176.305 155.967 176.305C153.343 176.305 151.573 177.565 150.655 180.086C149.756 182.607 149.307 184.962 149.307 187.151V200.73C149.307 201.577 148.564 202 147.078 202Z" fill="white"/>
<path d="M179.193 170.978C178.954 170.978 178.716 170.886 178.477 170.702L168.02 162.974C167.635 162.698 167.442 162.312 167.442 161.815C167.442 161.3 167.662 160.739 168.103 160.132C168.69 159.377 169.332 159 170.029 159C170.396 159 170.717 159.129 170.992 159.386L180.321 168.108C180.706 168.494 180.899 168.844 180.899 169.157C180.899 169.488 180.734 169.865 180.404 170.288C180.037 170.748 179.633 170.978 179.193 170.978ZM178.78 202C174.652 202 171.231 200.74 168.515 198.219C165.818 195.68 164.47 192.303 164.47 188.09C164.47 183.821 165.837 180.362 168.57 177.712C171.322 175.063 174.799 173.738 179 173.738C182.945 173.738 186.302 174.815 189.072 176.967C191.861 179.12 193.255 182.285 193.255 186.461C193.255 187.455 192.512 187.952 191.026 187.952H168.928C168.928 190.896 169.772 193.555 171.46 195.928C173.166 198.302 175.615 199.488 178.808 199.488C181.138 199.488 183.22 198.863 185.054 197.612C187.036 196.287 188.109 194.769 188.274 193.058C188.366 192.267 189.1 191.871 190.476 191.871C191.98 191.871 192.732 192.285 192.732 193.113C192.732 193.702 192.531 194.419 192.127 195.266C191.393 196.811 190.182 198.136 188.494 199.24C185.742 201.08 182.504 202 178.78 202ZM188.742 185.413C188.283 179.304 185.036 176.25 179 176.25C173.606 176.25 170.332 179.304 169.176 185.413H188.742Z" fill="white"/>
<path d="M222.15 202C220.004 202 218.582 200.684 217.885 198.053C215.573 200.684 212.161 202 207.648 202C204.878 202 202.502 201.439 200.52 200.316C197.97 198.9 196.695 196.83 196.695 194.107C196.695 192.138 197.245 190.555 198.346 189.359C199.465 188.145 200.933 187.372 202.749 187.041C204.584 186.691 206.391 186.517 208.171 186.517C208.758 186.517 209.418 186.535 210.152 186.572C210.904 186.609 211.666 186.627 212.436 186.627C214.729 186.627 216.362 186.323 217.335 185.716V182.929C217.335 178.476 214.766 176.25 209.629 176.25C207.703 176.25 205.997 176.737 204.511 177.712C202.823 178.816 201.979 180.141 201.979 181.687C201.979 182.533 201.236 182.956 199.75 182.956C198.264 182.956 197.521 182.533 197.521 181.687C197.557 179.534 198.75 177.666 201.098 176.084C203.428 174.52 206.272 173.738 209.629 173.738C212.473 173.738 215.216 174.437 217.857 175.836C220.499 177.234 221.82 179.598 221.82 182.929V195.045C221.82 196.407 221.995 197.483 222.343 198.274C222.673 198.973 223.15 199.507 223.774 199.875C224.178 200.114 224.38 200.399 224.38 200.73C224.38 201.577 223.637 202 222.15 202ZM207.648 199.488C209.813 199.488 211.968 198.835 214.115 197.529C216.261 196.223 217.335 194.346 217.335 191.899V188.752C216.142 189.01 214.702 189.139 213.014 189.139C212.17 189.139 211.326 189.12 210.482 189.083C209.638 189.028 208.794 189.001 207.951 189.001C206.85 188.982 205.703 189.093 204.511 189.332C203.318 189.553 202.419 190.206 201.814 191.291C201.355 192.101 201.126 193.012 201.126 194.024C201.162 195.809 201.814 197.179 203.08 198.136C204.217 199.038 205.74 199.488 207.648 199.488Z" fill="white"/>
<path d="M238.304 202C235.828 202 233.378 201.448 230.957 200.344C228.553 199.222 227.086 197.326 226.554 194.659C226.48 194.327 226.443 194.079 226.443 193.913C226.443 193.104 227.205 192.699 228.728 192.699C229.993 192.699 230.718 193.058 230.902 193.775C231.892 197.584 234.36 199.488 238.304 199.488C239.955 199.488 241.57 198.992 243.148 197.998C244.744 197.004 245.542 195.56 245.542 193.665C245.542 192.451 244.68 191.466 242.955 190.712C241.818 190.197 240.313 189.801 238.442 189.525C237.084 189.323 235.717 189.102 234.342 188.863C232.966 188.623 231.663 188.09 230.434 187.262C228.214 185.753 227.104 183.812 227.104 181.438C227.104 178.697 228.416 176.728 231.039 175.532C233.663 174.336 236.112 173.738 238.387 173.738C240.643 173.738 242.827 174.253 244.936 175.284C247.046 176.314 248.441 177.979 249.119 180.279C249.211 180.592 249.257 180.813 249.257 180.942C249.257 181.714 248.505 182.101 247 182.101C245.698 182.101 244.964 181.751 244.799 181.052C244.01 177.85 241.873 176.25 238.387 176.25C236.901 176.25 235.396 176.673 233.874 177.519C232.351 178.347 231.59 179.626 231.59 181.356C231.59 182.552 232.553 183.536 234.479 184.309C235.69 184.806 237.167 185.192 238.91 185.468C240.212 185.652 241.533 185.882 242.873 186.158C244.212 186.415 245.505 186.949 246.753 187.759C248.918 189.175 250 191.089 250 193.499C250 196.462 248.688 198.624 246.065 199.985C243.46 201.328 240.873 202 238.304 202Z" fill="white"/>
</svg>
