<svg width="350" height="350" viewBox="0 0 350 350" fill="none" xmlns="http://www.w3.org/2000/svg">
<path fill-rule="evenodd" clip-rule="evenodd" d="M281.893 50H68.8452C58.6548 50 50 58.0595 50 67.9881V282C50 291.94 55.6786 300 65.8691 300H278.917C289.119 300 300 291.94 300 282V67.9881C300 58.0595 292.095 50 281.893 50ZM145.238 145.238H178.893V162.393H179.262C184.393 153.143 199.548 143.75 218.286 143.75C254.25 143.75 264.286 162.845 264.286 198.214V264.286H228.571V204.726C228.571 188.893 222.25 175 207.464 175C189.512 175 180.952 187.155 180.952 207.107V264.286H145.238V145.238ZM85.7143 264.286H121.429V145.238H85.7143V264.286ZM125.893 103.571C125.893 115.905 115.905 125.893 103.571 125.893C91.2381 125.893 81.25 115.905 81.25 103.571C81.25 91.2381 91.2381 81.25 103.571 81.25C115.905 81.25 125.893 91.2381 125.893 103.571Z" fill="white"/>
</svg>
