<svg width="48" height="48" viewBox="0 0 48 48" fill="none" xmlns="http://www.w3.org/2000/svg">
<rect width="48" height="48" rx="24" fill="url(#paint0_linear_383_1139)"/>
<rect x="8" y="8" width="32" height="32" rx="16" fill="#1B1F23"/>
<path d="M19.1426 31.6996V20.9749H15.581V31.6996H19.1429H19.1426ZM17.3625 19.5109C18.6043 19.5109 19.3773 18.6874 19.3773 17.6582C19.3541 16.6056 18.6043 15.805 17.3862 15.805C16.1672 15.805 15.3711 16.6056 15.3711 17.6581C15.3711 18.6873 16.1439 19.5108 17.3392 19.5108H17.3623L17.3625 19.5109ZM21.1139 31.6996H24.6752V25.7111C24.6752 25.391 24.6985 25.07 24.7925 24.8414C25.0499 24.2007 25.6359 23.5375 26.62 23.5375C27.9084 23.5375 28.4241 24.5209 28.4241 25.9628V31.6996H31.9853V25.5504C31.9853 22.2564 30.2285 20.7235 27.8853 20.7235C25.9643 20.7235 25.1205 21.7982 24.6518 22.5301H24.6755V20.9753H21.1141C21.1606 21.9814 21.1138 31.7 21.1138 31.7L21.1139 31.6996Z" fill="white"/>
<defs>
<linearGradient id="paint0_linear_383_1139" x1="4.03493" y1="3.1441" x2="39.6681" y2="48" gradientUnits="userSpaceOnUse">
<stop stop-color="white"/>
<stop offset="1" stop-color="white"/>
</linearGradient>
</defs>
</svg>
