<svg width="360" height="360" viewBox="0 0 360 360" fill="none" xmlns="http://www.w3.org/2000/svg">
<rect width="360" height="360" fill="#121212"/>
<path d="M66.1645 146.698V151.283H51.6204V161.39H62.9599V165.975H51.6204V180.962H46V146.698H66.1645Z" fill="white"/>
<path d="M76.9936 144.479V180.962H71.3731V144.479H76.9936Z" fill="white"/>
<path d="M82.4992 167.257C82.4992 164.528 83.0579 162.113 84.1755 160.009C85.3258 157.906 86.8706 156.279 88.8098 155.128C90.7819 153.945 92.9512 153.353 95.3177 153.353C97.4541 153.353 99.3111 153.781 100.889 154.635C102.499 155.457 103.781 156.492 104.734 157.741V153.797H110.404V180.962H104.734V176.92C103.781 178.202 102.483 179.27 100.839 180.124C99.1961 180.979 97.3226 181.406 95.2191 181.406C92.8855 181.406 90.749 180.815 88.8098 179.631C86.8706 178.415 85.3258 176.739 84.1755 174.603C83.0579 172.433 82.4992 169.985 82.4992 167.257ZM104.734 167.355C104.734 165.482 104.34 163.855 103.551 162.474C102.795 161.094 101.793 160.042 100.544 159.319C99.2947 158.596 97.9471 158.234 96.5009 158.234C95.0547 158.234 93.7072 158.596 92.4582 159.319C91.2092 160.009 90.1903 161.044 89.4015 162.425C88.6455 163.773 88.2675 165.383 88.2675 167.257C88.2675 169.13 88.6455 170.773 89.4015 172.187C90.1903 173.6 91.2092 174.685 92.4582 175.441C93.74 176.164 95.0876 176.525 96.5009 176.525C97.9471 176.525 99.2947 176.164 100.544 175.441C101.793 174.718 102.795 173.666 103.551 172.285C104.34 170.872 104.734 169.229 104.734 167.355Z" fill="white"/>
<path d="M128.288 175.934L135.979 153.797H141.944L131.591 180.962H124.886L114.582 153.797H120.596L128.288 175.934Z" fill="white"/>
<path d="M149.052 150.198C148.033 150.198 147.179 149.853 146.488 149.163C145.798 148.473 145.453 147.618 145.453 146.599C145.453 145.58 145.798 144.726 146.488 144.035C147.179 143.345 148.033 143 149.052 143C150.038 143 150.876 143.345 151.567 144.035C152.257 144.726 152.602 145.58 152.602 146.599C152.602 147.618 152.257 148.473 151.567 149.163C150.876 149.853 150.038 150.198 149.052 150.198ZM151.813 153.797V180.962H146.193V153.797H151.813Z" fill="white"/>
<path d="M170.975 181.406C168.412 181.406 166.094 180.831 164.024 179.681C161.953 178.497 160.326 176.854 159.143 174.75C157.96 172.614 157.368 170.149 157.368 167.355C157.368 164.594 157.976 162.146 159.192 160.009C160.408 157.873 162.068 156.229 164.172 155.079C166.275 153.929 168.625 153.353 171.222 153.353C173.818 153.353 176.168 153.929 178.272 155.079C180.375 156.229 182.035 157.873 183.251 160.009C184.468 162.146 185.076 164.594 185.076 167.355C185.076 170.116 184.451 172.565 183.202 174.701C181.953 176.838 180.244 178.497 178.075 179.681C175.938 180.831 173.572 181.406 170.975 181.406ZM170.975 176.525C172.421 176.525 173.769 176.18 175.018 175.49C176.3 174.8 177.335 173.764 178.124 172.384C178.913 171.003 179.307 169.327 179.307 167.355C179.307 165.383 178.929 163.723 178.173 162.376C177.417 160.995 176.415 159.96 175.166 159.27C173.917 158.579 172.569 158.234 171.123 158.234C169.677 158.234 168.329 158.579 167.08 159.27C165.864 159.96 164.895 160.995 164.172 162.376C163.449 163.723 163.087 165.383 163.087 167.355C163.087 170.28 163.827 172.548 165.306 174.159C166.817 175.736 168.707 176.525 170.975 176.525Z" fill="white"/>
<path d="M188.758 167.257C188.758 164.528 189.317 162.113 190.434 160.009C191.585 157.906 193.13 156.279 195.069 155.128C197.041 153.945 199.227 153.353 201.626 153.353C203.401 153.353 205.143 153.748 206.852 154.537C208.594 155.293 209.974 156.312 210.993 157.593V144.479H216.663V180.962H210.993V176.87C210.073 178.185 208.791 179.27 207.148 180.124C205.537 180.979 203.68 181.406 201.577 181.406C199.21 181.406 197.041 180.815 195.069 179.631C193.13 178.415 191.585 176.739 190.434 174.603C189.317 172.433 188.758 169.985 188.758 167.257ZM210.993 167.355C210.993 165.482 210.599 163.855 209.81 162.474C209.054 161.094 208.052 160.042 206.803 159.319C205.554 158.596 204.206 158.234 202.76 158.234C201.314 158.234 199.966 158.596 198.717 159.319C197.468 160.009 196.449 161.044 195.66 162.425C194.905 163.773 194.527 165.383 194.527 167.257C194.527 169.13 194.905 170.773 195.66 172.187C196.449 173.6 197.468 174.685 198.717 175.441C199.999 176.164 201.347 176.525 202.76 176.525C204.206 176.525 205.554 176.164 206.803 175.441C208.052 174.718 209.054 173.666 209.81 172.285C210.599 170.872 210.993 169.229 210.993 167.355Z" fill="white"/>
<path d="M235.828 181.406C233.265 181.406 230.948 180.831 228.877 179.681C226.806 178.497 225.179 176.854 223.996 174.75C222.813 172.614 222.221 170.149 222.221 167.355C222.221 164.594 222.829 162.146 224.045 160.009C225.261 157.873 226.921 156.229 229.025 155.079C231.128 153.929 233.478 153.353 236.075 153.353C238.672 153.353 241.022 153.929 243.125 155.079C245.229 156.229 246.889 157.873 248.105 160.009C249.321 162.146 249.929 164.594 249.929 167.355C249.929 170.116 249.304 172.565 248.055 174.701C246.806 176.838 245.097 178.497 242.928 179.681C240.791 180.831 238.425 181.406 235.828 181.406ZM235.828 176.525C237.275 176.525 238.622 176.18 239.871 175.49C241.153 174.8 242.188 173.764 242.977 172.384C243.766 171.003 244.16 169.327 244.16 167.355C244.16 165.383 243.782 163.723 243.027 162.376C242.271 160.995 241.268 159.96 240.019 159.27C238.77 158.579 237.423 158.234 235.976 158.234C234.53 158.234 233.183 158.579 231.934 159.27C230.717 159.96 229.748 160.995 229.025 162.376C228.302 163.723 227.94 165.383 227.94 167.355C227.94 170.28 228.68 172.548 230.159 174.159C231.671 175.736 233.561 176.525 235.828 176.525Z" fill="white"/>
<path d="M261.105 157.741C261.927 156.361 263.012 155.293 264.359 154.537C265.74 153.748 267.367 153.353 269.24 153.353V159.171H267.81C265.608 159.171 263.932 159.73 262.782 160.847C261.664 161.965 261.105 163.904 261.105 166.665V180.962H255.485V153.797H261.105V157.741Z" fill="white"/>
<path d="M277.266 150.198C276.247 150.198 275.392 149.853 274.702 149.163C274.012 148.473 273.667 147.618 273.667 146.599C273.667 145.58 274.012 144.726 274.702 144.035C275.392 143.345 276.247 143 277.266 143C278.252 143 279.09 143.345 279.78 144.035C280.471 144.726 280.816 145.58 280.816 146.599C280.816 147.618 280.471 148.473 279.78 149.163C279.09 149.853 278.252 150.198 277.266 150.198ZM280.027 153.797V180.962H274.406V153.797H280.027Z" fill="white"/>
<path d="M285.532 167.257C285.532 164.528 286.091 162.113 287.209 160.009C288.359 157.906 289.904 156.279 291.843 155.128C293.815 153.945 295.984 153.353 298.351 153.353C300.487 153.353 302.344 153.781 303.922 154.635C305.533 155.457 306.814 156.492 307.768 157.741V153.797H313.437V180.962H307.768V176.92C306.814 178.202 305.516 179.27 303.873 180.124C302.229 180.979 300.356 181.406 298.252 181.406C295.919 181.406 293.782 180.815 291.843 179.631C289.904 178.415 288.359 176.739 287.209 174.603C286.091 172.433 285.532 169.985 285.532 167.257ZM307.768 167.355C307.768 165.482 307.373 163.855 306.584 162.474C305.828 161.094 304.826 160.042 303.577 159.319C302.328 158.596 300.98 158.234 299.534 158.234C298.088 158.234 296.74 158.596 295.491 159.319C294.242 160.009 293.224 161.044 292.435 162.425C291.679 163.773 291.301 165.383 291.301 167.257C291.301 169.13 291.679 170.773 292.435 172.187C293.224 173.6 294.242 174.685 295.491 175.441C296.773 176.164 298.121 176.525 299.534 176.525C300.98 176.525 302.328 176.164 303.577 175.441C304.826 174.718 305.828 173.666 306.584 172.285C307.373 170.872 307.768 169.229 307.768 167.355Z" fill="white"/>
<path d="M149.641 191.372V205.464C149.641 207.14 150.078 208.402 150.951 209.25C151.845 210.098 153.08 210.522 154.656 210.522C156.253 210.522 157.488 210.098 158.361 209.25C159.255 208.402 159.703 207.14 159.703 205.464V191.372H163.344V205.401C163.344 207.203 162.95 208.73 162.162 209.982C161.374 211.233 160.32 212.166 159 212.781C157.68 213.396 156.221 213.703 154.624 213.703C153.027 213.703 151.568 213.396 150.248 212.781C148.949 212.166 147.916 211.233 147.15 209.982C146.383 208.73 146 207.203 146 205.401V191.372H149.641Z" fill="white"/>
<path d="M175.623 204.605L181.308 213.481H177.188L173.387 207.532L169.81 213.481H166.009L171.694 204.86L166.009 195.953H170.129L173.93 201.902L177.507 195.953H181.308L175.623 204.605Z" fill="white"/>
<path d="M188.623 217.075H184.982V188H188.623V217.075Z" fill="white"/>
<path d="M197.989 191.372V205.464C197.989 207.14 198.426 208.402 199.299 209.25C200.193 210.098 201.428 210.522 203.004 210.522C204.601 210.522 205.836 210.098 206.709 209.25C207.603 208.402 208.05 207.14 208.05 205.464V191.372H211.692V205.401C211.692 207.203 211.298 208.73 210.51 209.982C209.722 211.233 208.668 212.166 207.348 212.781C206.027 213.396 204.569 213.703 202.972 213.703C201.375 213.703 199.916 213.396 198.596 212.781C197.297 212.166 196.264 211.233 195.498 209.982C194.731 208.73 194.348 207.203 194.348 205.401V191.372H197.989Z" fill="white"/>
<path d="M218.285 193.631C217.625 193.631 217.071 193.408 216.624 192.963C216.177 192.517 215.953 191.966 215.953 191.308C215.953 190.651 216.177 190.1 216.624 189.654C217.071 189.209 217.625 188.986 218.285 188.986C218.924 188.986 219.467 189.209 219.914 189.654C220.361 190.1 220.585 190.651 220.585 191.308C220.585 191.966 220.361 192.517 219.914 192.963C219.467 193.408 218.924 193.631 218.285 193.631ZM220.074 195.953V213.481H216.433V195.953H220.074Z" fill="white"/>
</svg>
