<svg width="360" height="360" viewBox="0 0 360 360" fill="none" xmlns="http://www.w3.org/2000/svg">
<path d="M360 0H0V360H360V0Z" fill="white"/>
<mask id="mask0_459_230" style="mask-type:luminance" maskUnits="userSpaceOnUse" x="0" y="0" width="360" height="360">
<path d="M360 0H0V360H360V0Z" fill="white"/>
</mask>
<g mask="url(#mask0_459_230)">
<path d="M254.887 123.569C253.73 128.611 250.738 133.032 246.499 135.958C242.215 138.382 237.213 139.196 232.389 138.252C227.198 137.635 222.253 135.683 218.028 132.585C210.985 127.584 205.309 120.449 195.508 114.92C186.41 109.869 176.258 107.048 165.875 106.684C157.567 106.31 149.312 108.179 141.964 112.099C127.102 120.357 121.996 135.568 120.788 139.215C113.517 160.941 123.455 179.569 125.347 182.942C115.919 170.081 110.852 154.509 110.895 138.527C111.022 118.329 119.113 99.0071 133.389 84.8106C147.666 70.6139 166.959 62.7042 187.028 62.8201C206.882 62.7743 225.976 70.4992 240.276 84.3623L241.255 85.3028L243.262 87.4134L243.444 87.62C246.866 91.4509 249.667 95.8024 251.741 100.513C253.997 105.721 257.621 114.049 254.887 123.569Z" fill="#6AB9FF"/>
<path d="M250.555 180.074C244.692 188.876 237.082 196.361 228.205 202.058C219.327 207.756 209.374 211.542 198.972 213.179C194.983 213.807 190.951 214.121 186.914 214.12C174.946 214.137 163.142 211.325 152.452 205.909C141.762 200.494 132.485 192.627 125.369 182.942C123.477 179.57 113.562 160.941 120.811 139.238C122.042 135.568 127.147 120.358 142.009 112.099C149.31 108.181 157.517 106.296 165.784 106.639C176.17 107.003 186.323 109.833 195.416 114.898C205.195 120.403 210.871 127.561 217.914 132.539C213.253 131.029 208.277 130.787 203.493 131.839C198.708 132.891 194.286 135.198 190.675 138.527C181.557 147.52 182.241 161.01 185.979 169.452C189.413 176.585 195.337 182.196 202.619 185.213C224.068 195.422 247.478 181.91 250.555 180.074Z" fill="#3A529A"/>
<path d="M90.9505 239.699L88.6709 239.332L86.7562 238.919C85.9253 238.7 85.1492 238.31 84.4767 237.772C83.4041 237.107 82.5975 236.084 82.1974 234.881C81.9658 234.194 81.8501 233.473 81.8554 232.748C81.8581 232.129 81.9346 231.513 82.0834 230.912C82.2219 230.118 82.4672 229.346 82.8128 228.618C83.1773 227.887 83.6372 227.208 84.1805 226.599C84.8509 225.97 85.6215 225.458 86.4598 225.085C87.9817 224.413 89.6309 224.084 91.2922 224.122H91.771C93.6596 224.231 95.468 224.928 96.9452 226.118C98.5383 227.318 99.8141 228.893 100.661 230.706C100.774 231.046 100.979 231.349 101.253 231.579C101.526 231.81 101.858 231.96 102.211 232.014H102.37C102.538 232.039 102.709 232.03 102.873 231.985C103.036 231.94 103.189 231.86 103.32 231.752C103.451 231.644 103.558 231.509 103.634 231.357C103.71 231.204 103.753 231.037 103.761 230.867L104.558 223.984C100.686 221.562 96.2381 220.231 91.6798 220.13H90.5629C86.3732 219.978 82.2881 221.467 79.1657 224.282C77.7689 225.527 76.6565 227.062 75.9051 228.78C75.1537 230.499 74.7807 232.361 74.8121 234.239C74.7937 236.3 75.3039 238.331 76.2937 240.134C77.3158 241.994 78.9181 243.461 80.8525 244.31C81.9819 244.85 83.1565 245.287 84.3629 245.618C88.6707 243.73 93.1033 242.141 97.6289 240.869C96.7172 240.662 95.7826 240.456 94.8481 240.319L90.9505 239.699Z" fill="#6AB9FF"/>
<path d="M87.7135 246.353C90.0209 246.612 92.3064 247.042 94.5516 247.637C95.5015 247.894 96.3975 248.321 97.1959 248.899C97.9817 249.468 98.6184 250.219 99.0511 251.09C99.4839 251.962 99.6999 252.926 99.6804 253.901V254.266C99.7354 256.178 99.2448 258.065 98.2673 259.704C97.4107 261.086 96.1867 262.198 94.734 262.915C93.3111 263.633 91.7621 264.06 90.1752 264.178H88.5341C86.4535 264.252 84.3823 263.861 82.4707 263.03C80.2647 261.794 78.5556 259.824 77.6383 257.455C77.5167 257.146 77.3292 256.865 77.089 256.637C76.849 256.406 76.5619 256.231 76.248 256.126C75.9531 256.106 75.6581 256.164 75.3936 256.298C75.1294 256.43 74.905 256.632 74.7435 256.882C74.5397 257.153 74.4276 257.482 74.4245 257.822C74.3919 257.99 74.3919 258.161 74.4245 258.326L77.6383 267C80.5925 267.914 83.665 268.387 86.7562 268.399H88.1693C90.2885 268.344 92.3899 267.996 94.4151 267.367C96.8297 266.582 99.0787 265.351 101.048 263.741C102.859 262.387 104.326 260.621 105.332 258.588C106.338 256.555 106.854 254.311 106.838 252.041C106.848 250.399 106.538 248.77 105.926 247.246C105.454 246.101 104.825 245.028 104.057 244.058C102.617 242.681 100.864 241.68 98.9511 241.145L97.6973 240.823C93.1716 242.095 88.7391 243.682 84.4311 245.573C85.5027 245.921 86.6004 246.18 87.7135 246.353Z" fill="#3A529A"/>
<path d="M137.063 235.684C135.769 236.043 134.438 236.259 133.097 236.327C132.14 236.327 131.661 236.763 131.661 237.612C131.66 237.833 131.707 238.052 131.798 238.254C135.307 238.703 138.787 239.37 142.215 240.25V234.101C140.118 234.881 138.408 235.317 137.063 235.684Z" fill="#6AB9FF"/>
<path d="M133.256 239.469C133.728 239.59 134.144 239.87 134.434 240.264C134.725 240.655 134.872 241.138 134.852 241.625V261.814H134.51L133.963 261.998L132.14 262.709C131.41 262.985 130.863 263.191 130.453 263.306C129.457 263.664 128.41 263.858 127.353 263.88C126.636 263.906 125.92 263.791 125.247 263.539C124.574 263.287 123.957 262.903 123.432 262.411C121.632 260.666 120.72 257.57 120.72 253.051V237.611H118.987C116.083 237.679 113.184 237.901 110.303 238.277C110.459 238.555 110.668 238.8 110.919 238.996C111.169 239.193 111.456 239.338 111.762 239.424C112.219 239.569 112.62 239.855 112.906 240.242C113.193 240.629 113.351 241.097 113.357 241.579V253.051C113.357 259.726 114.725 264.086 117.506 266.174C119.108 267.413 121.07 268.09 123.09 268.102H124.048C126.174 267.9 128.269 267.454 130.293 266.77C131.091 266.494 131.957 266.196 132.869 265.829L134.852 265.094V266.126C134.852 266.839 135.308 267.182 136.197 267.182H143.947C144.927 267.182 145.406 266.748 145.406 265.874C145.406 265.003 144.882 264.499 143.81 264.132C143.317 264.002 142.885 263.7 142.592 263.28C142.3 262.86 142.166 262.349 142.215 261.838V240.25C138.786 239.37 135.307 238.703 131.798 238.254C131.94 238.55 132.144 238.812 132.396 239.021C132.647 239.231 132.941 239.384 133.256 239.469Z" fill="#3A529A"/>
<path d="M120.719 237.612V234.101C118.622 234.79 116.89 235.317 115.568 235.684C114.273 236.043 112.943 236.259 111.602 236.327C110.644 236.327 110.166 236.763 110.166 237.612C110.162 237.841 110.209 238.068 110.302 238.277C113.184 237.902 116.083 237.679 118.987 237.612H120.719Z" fill="#6AB9FF"/>
<path d="M177.5 237.359C175.899 236.077 173.916 235.374 171.87 235.363H170.981C168.821 235.565 166.694 236.027 164.644 236.74L162.091 237.657L160.131 238.392V234.101C158.034 234.79 156.324 235.317 155.002 235.684C153.707 236.043 152.377 236.259 151.036 236.327C150.079 236.327 149.6 236.763 149.6 237.612C149.6 238.46 150.124 239.034 151.195 239.424C151.653 239.569 152.053 239.855 152.34 240.242C152.627 240.629 152.784 241.097 152.791 241.579V243.576C155.389 244.541 157.829 245.549 160.131 246.535V241.764L160.974 241.442L162.843 240.732L164.621 240.089C165.592 239.721 166.616 239.512 167.653 239.47C168.378 239.456 169.099 239.589 169.772 239.861C170.446 240.132 171.058 240.538 171.573 241.054C173.374 242.82 174.286 245.916 174.286 250.414V252.432C176.565 253.282 179.05 254.062 181.626 254.726V250.368C181.557 243.828 180.258 239.47 177.5 237.359Z" fill="#6AB9FF"/>
<path d="M152.791 261.859C152.84 262.371 152.706 262.884 152.413 263.304C152.121 263.724 151.689 264.027 151.195 264.154C150.124 264.521 149.6 265.095 149.6 265.899C149.6 266.7 150.079 267.207 151.059 267.207H161.886C162.843 267.207 163.322 266.77 163.322 265.899C163.322 265.095 162.775 264.521 161.726 264.154C161.23 264.031 160.795 263.729 160.502 263.309C160.209 262.887 160.077 262.373 160.131 261.859V246.535C157.851 245.549 155.389 244.539 152.791 243.576V261.859Z" fill="#3A529A"/>
<path d="M174.286 266.059C174.286 266.77 174.742 267.115 175.631 267.115H183.381C184.339 267.115 184.817 266.678 184.817 265.807C184.817 265.003 184.293 264.43 183.222 264.062C182.725 263.938 182.291 263.638 181.998 263.215C181.704 262.795 181.572 262.282 181.626 261.768V254.818C179.05 254.107 176.611 253.327 174.286 252.523V266.059Z" fill="#3A529A"/>
<path d="M215.521 237.359C213.908 236.083 211.919 235.381 209.868 235.363H208.979C206.819 235.565 204.692 236.027 202.642 236.74L200.112 237.657L198.129 238.392V234.101C196.032 234.79 194.322 235.317 193 235.684C191.705 236.043 190.375 236.259 189.034 236.327C188.076 236.327 187.598 236.763 187.598 237.612C187.598 238.46 188.122 239.034 189.193 239.424C189.651 239.569 190.051 239.855 190.338 240.242C190.625 240.629 190.782 241.097 190.789 241.579V256.927C193.068 257.388 195.576 257.755 198.129 258.053V241.764C198.408 241.634 198.698 241.526 198.995 241.442L200.841 240.732L202.619 240.089C203.591 239.723 204.614 239.514 205.651 239.47C206.376 239.456 207.097 239.589 207.771 239.861C208.444 240.132 209.056 240.538 209.572 241.054C211.395 242.82 212.284 245.916 212.284 250.414V258.948C214.563 258.948 217.116 258.948 219.624 258.948V250.459C219.624 243.828 218.256 239.47 215.521 237.359Z" fill="#6AB9FF"/>
<path d="M212.284 258.994V266.059C212.284 266.77 212.74 267.115 213.629 267.115H221.379C222.336 267.115 222.815 266.679 222.815 265.807C222.815 265.003 222.291 264.43 221.22 264.063C220.723 263.938 220.289 263.638 219.996 263.215C219.702 262.795 219.57 262.282 219.624 261.768V258.9C217.117 258.994 214.655 259.015 212.284 258.994Z" fill="#3A529A"/>
<path d="M190.789 261.862C190.838 262.37 190.704 262.884 190.412 263.304C190.119 263.724 189.687 264.026 189.193 264.154C188.122 264.521 187.598 265.094 187.598 265.898C187.598 266.7 188.076 267.206 189.057 267.206H199.793C200.75 267.206 201.229 266.77 201.229 265.898C201.229 265.094 200.682 264.521 199.633 264.154C199.137 264.031 198.702 263.729 198.409 263.309C198.116 262.886 197.984 262.373 198.038 261.862V258.053C195.485 257.753 193.046 257.388 190.698 256.927L190.789 261.862Z" fill="#3A529A"/>
<path d="M228.468 262.411C230.082 264.307 232.114 265.798 234.401 266.767C236.688 267.735 239.167 268.152 241.644 267.987C245.268 268.183 248.839 267.051 251.695 264.797C251.832 264.636 252.014 264.475 252.197 264.293C252.473 263.94 252.703 263.556 252.881 263.146C253.152 262.726 253.315 262.246 253.358 261.747C253.358 261.607 253.327 261.473 253.274 261.346C253.219 261.221 253.14 261.106 253.039 261.012C252.79 260.873 252.506 260.801 252.218 260.806C251.194 260.969 250.21 261.334 249.324 261.883C247.548 262.915 245.542 263.484 243.49 263.535C242.791 263.539 242.095 263.463 241.416 263.307C239.026 262.822 236.913 261.435 235.511 259.428C235.106 258.879 234.748 258.295 234.44 257.686C231.636 258.053 228.924 258.327 226.257 258.533C226.8 259.93 227.545 261.235 228.468 262.411Z" fill="#3A529A"/>
<path d="M252.562 251.904C253.884 251.904 254.568 251.628 254.635 251.079C254.705 250.527 254.635 249.816 254.635 248.967C254.779 245.374 253.538 241.865 251.172 239.171C249.821 237.849 248.21 236.827 246.444 236.171C244.678 235.515 242.794 235.24 240.914 235.363C237.032 235.229 233.244 236.582 230.314 239.149C227.582 241.716 225.831 245.165 225.368 248.899C225.189 250.075 225.097 251.263 225.094 252.454C225.089 254.535 225.476 256.599 226.234 258.533C228.901 258.327 231.613 258.053 234.417 257.686C233.525 255.888 233.049 253.913 233.027 251.904H252.562ZM234.964 242.429C235.597 241.462 236.472 240.679 237.5 240.161C238.528 239.642 239.674 239.403 240.823 239.47H241.164C242.234 239.348 243.319 239.536 244.286 240.012C245.256 240.487 246.07 241.229 246.636 242.153C247.706 244.051 248.285 246.19 248.321 248.371H233.05C233.135 246.252 233.798 244.195 234.964 242.429Z" fill="#6AB9FF"/>
<path d="M280.188 246.811C280.188 247.315 280.188 247.819 280.188 248.326H275.539C269.155 250.366 263.023 252.065 257.302 253.464C257.402 256.711 258.521 259.841 260.494 262.411C262.109 264.307 264.139 265.798 266.426 266.767C268.714 267.735 271.193 268.152 273.67 267.987C277.294 268.183 280.865 267.051 283.721 264.797L284.222 264.293C284.498 263.94 284.729 263.556 284.906 263.146C285.178 262.726 285.341 262.246 285.386 261.747C285.384 261.607 285.355 261.473 285.3 261.346C285.245 261.221 285.166 261.106 285.067 261.012C284.822 260.849 284.537 260.763 284.246 260.76C283.21 260.919 282.218 261.283 281.328 261.838C279.552 262.872 277.546 263.441 275.494 263.489C274.795 263.494 274.099 263.417 273.418 263.261C271.034 262.781 268.927 261.391 267.538 259.383C265.927 257.208 265.056 254.571 265.054 251.859H284.587C285.91 251.859 286.594 251.583 286.661 251.033C286.73 250.481 286.661 249.771 286.798 248.921C286.793 247.488 286.601 246.06 286.229 244.678C284.131 245.458 282.17 246.147 280.188 246.811Z" fill="#3A529A"/>
<path d="M265.099 248.326C265.181 246.223 265.834 244.183 266.99 242.429C267.614 241.481 268.471 240.71 269.477 240.192C270.485 239.675 271.606 239.426 272.734 239.47H273.077C274.147 239.348 275.23 239.536 276.199 240.012C277.169 240.487 277.982 241.229 278.546 242.153C279.336 243.581 279.874 245.131 280.142 246.742C282.125 246.077 284.131 245.388 286.183 244.654C285.686 242.587 284.683 240.679 283.265 239.103C281.921 237.78 280.315 236.757 278.551 236.101C276.787 235.445 274.906 235.17 273.031 235.294H272.894C269.011 235.16 265.224 236.513 262.294 239.08C259.562 241.646 257.81 245.098 257.347 248.83C257.17 250.006 257.078 251.196 257.076 252.386C257.076 252.73 257.076 253.051 257.076 253.394C262.91 251.995 269.042 250.298 275.311 248.256L265.099 248.326Z" fill="#6AB9FF"/>
<path d="M105.539 285.168C106.277 284.794 106.899 284.222 107.339 283.517C108.141 282.451 108.588 281.16 108.616 279.823C108.649 278.544 108.35 277.279 107.75 276.154C107.058 274.889 105.906 273.941 104.536 273.514C103.254 273.094 101.917 272.868 100.569 272.849H90.0158C89.4686 272.849 89.1725 273.101 89.1725 273.607C89.1725 274.111 89.4914 274.409 90.0842 274.639C90.3571 274.706 90.5986 274.867 90.7687 275.093C90.9386 275.318 91.027 275.594 91.0188 275.878V296.136C91.0279 296.422 90.9406 296.7 90.7709 296.93C90.601 297.161 90.3588 297.324 90.0842 297.396C89.4914 297.602 89.1725 297.948 89.1725 298.406C89.1725 298.865 89.4686 299.162 90.0158 299.162H101.527C102.803 299.136 104.062 298.872 105.242 298.382C106.494 297.948 107.588 297.151 108.388 296.088C109.229 294.905 109.683 293.484 109.687 292.027C109.725 290.621 109.395 289.229 108.73 287.99C108.06 286.678 106.919 285.67 105.539 285.168ZM95.2356 275.028H99.1106C100.497 274.956 101.856 275.434 102.894 276.36C103.338 276.782 103.686 277.296 103.918 277.867C104.15 278.436 104.26 279.048 104.239 279.662C104.279 280.289 104.185 280.913 103.965 281.498C103.745 282.084 103.403 282.617 102.963 283.058C102.088 283.855 100.972 284.333 99.7944 284.412H95.2356V275.028ZM103.624 295.469C102.994 296.093 102.205 296.53 101.345 296.731C100.523 296.976 99.671 297.101 98.8142 297.098H95.2356V286.637H99.293C100.068 286.596 100.842 286.706 101.574 286.968C102.305 287.227 102.979 287.63 103.555 288.151C104.043 288.624 104.427 289.198 104.682 289.829C104.938 290.46 105.059 291.139 105.037 291.821C105.073 292.495 104.965 293.17 104.721 293.798C104.478 294.427 104.104 294.998 103.624 295.469Z" fill="#3A529A"/>
<path d="M120.24 280.901C117.988 280.855 115.803 281.676 114.132 283.195C112.565 284.669 111.564 286.651 111.305 288.794C111.191 289.469 111.13 290.15 111.123 290.837C111.088 292.927 111.781 294.965 113.083 296.594C114.007 297.689 115.173 298.548 116.487 299.105C117.802 299.664 119.228 299.904 120.651 299.806C122.737 299.911 124.791 299.258 126.441 297.97L126.714 297.672C126.877 297.473 127.008 297.247 127.102 297.007C127.257 296.765 127.351 296.491 127.375 296.203C127.377 296.126 127.362 296.047 127.33 295.978C127.299 295.906 127.252 295.841 127.193 295.79C127.051 295.697 126.884 295.649 126.714 295.654C126.125 295.747 125.559 295.958 125.05 296.273C124.027 296.858 122.876 297.18 121.699 297.214C121.302 297.209 120.905 297.17 120.514 297.098C119.135 296.794 117.921 295.973 117.118 294.804C116.194 293.558 115.698 292.046 115.704 290.491H126.851C127.626 290.491 128.013 290.33 128.059 290.009C128.105 289.69 128.059 289.274 128.059 288.794C128.187 286.699 127.491 284.64 126.121 283.058C125.344 282.307 124.42 281.726 123.407 281.357C122.394 280.985 121.316 280.831 120.24 280.901ZM115.682 288.358C115.722 287.148 116.093 285.974 116.753 284.962C117.107 284.422 117.592 283.98 118.163 283.68C118.733 283.378 119.369 283.229 120.013 283.241H120.218C120.833 283.171 121.456 283.277 122.013 283.55C122.57 283.822 123.038 284.249 123.363 284.779C123.982 285.871 124.319 287.102 124.344 288.358H115.682Z" fill="#3A529A"/>
<path d="M148.05 297.396C147.775 297.327 147.533 297.163 147.366 296.933C147.2 296.703 147.119 296.419 147.138 296.136V282.027C147.138 281.736 146.91 281.506 146.454 281.338C146.334 281.314 146.21 281.314 146.089 281.338C145.965 281.335 145.842 281.364 145.731 281.419C145.62 281.477 145.524 281.559 145.451 281.659C145.308 281.827 145.147 281.983 144.972 282.118C144.913 282.137 144.849 282.137 144.79 282.118C144.7 282.139 144.607 282.139 144.517 282.118L143.582 281.796C143.507 281.787 143.43 281.787 143.354 281.796C142.382 281.46 141.371 281.251 140.345 281.177H140.231C139.967 281.179 139.705 281.227 139.456 281.316L136.493 282.415L133.53 283.517C133.175 283.651 132.838 283.829 132.527 284.045C131.842 284.525 131.254 285.132 130.794 285.835C130.154 286.812 129.726 287.914 129.541 289.068C129.447 289.692 129.402 290.321 129.404 290.95C129.404 291.432 129.404 291.915 129.404 292.443C129.561 294.358 130.365 296.165 131.683 297.557C132.927 298.925 134.653 299.751 136.493 299.851H137.268C137.667 299.832 138.059 299.746 138.431 299.599L142.83 297.994V298.795C142.83 299.187 143.081 299.393 143.605 299.393H148.05C148.62 299.393 148.893 299.141 148.893 298.637C148.893 298.131 148.665 297.603 148.05 297.396ZM142.807 295.906L141.599 296.364L140.277 296.847C140.012 296.947 139.737 297.017 139.456 297.053H139.046C138.623 297.055 138.201 297.003 137.792 296.892C136.644 296.563 135.644 295.841 134.966 294.85C134.134 293.64 133.66 292.215 133.598 290.743C133.598 290.47 133.598 290.194 133.598 289.942C133.605 289.09 133.712 288.243 133.917 287.417C134.123 286.38 134.622 285.425 135.353 284.664C135.507 284.508 135.694 284.391 135.9 284.321L137.2 283.839C137.631 283.654 138.073 283.493 138.522 283.356C138.702 283.313 138.889 283.313 139.069 283.356C139.769 283.414 140.45 283.608 141.075 283.93C141.702 284.211 142.285 284.583 142.807 285.031V295.906Z" fill="#3A529A"/>
<path d="M165.943 295.517C165.352 295.606 164.786 295.817 164.279 296.136C163.249 296.758 162.082 297.113 160.883 297.168H160.267C158.838 296.895 157.57 296.071 156.734 294.874C155.865 293.609 155.374 292.121 155.321 290.583C155.321 290.215 155.321 289.848 155.321 289.505C155.313 288.523 155.467 287.547 155.777 286.615C156.062 285.811 156.522 285.084 157.122 284.482C157.89 283.822 158.87 283.462 159.88 283.471H160.313C161.211 283.438 162.102 283.654 162.889 284.091C163.683 284.595 164.304 285.331 164.666 286.203C164.719 286.368 164.817 286.515 164.951 286.625C165.085 286.733 165.247 286.803 165.419 286.822C165.502 286.834 165.587 286.829 165.668 286.807C165.749 286.783 165.825 286.745 165.89 286.69C165.954 286.635 166.007 286.567 166.043 286.491C166.08 286.416 166.1 286.332 166.103 286.248L166.444 282.967C164.665 281.806 162.592 281.184 160.472 281.177H160.062C158.467 281.225 156.905 281.65 155.503 282.415C154.245 283.114 153.18 284.115 152.403 285.329C151.738 286.332 151.295 287.467 151.104 288.655C151.012 289.303 150.967 289.954 150.967 290.607C150.967 291.127 150.967 291.653 150.967 292.188C151.019 293.266 151.293 294.319 151.772 295.284C152.25 296.247 152.924 297.099 153.748 297.787C155.484 299.129 157.623 299.832 159.811 299.782C160.841 299.767 161.865 299.638 162.866 299.393C163.874 299.194 164.81 298.726 165.578 298.039C165.893 297.771 166.143 297.435 166.308 297.053C166.455 296.799 166.548 296.518 166.581 296.227C166.58 296.148 166.563 296.074 166.532 296.002C166.501 295.93 166.455 295.867 166.399 295.815C166.284 295.666 166.124 295.563 165.943 295.517Z" fill="#3A529A"/>
<path d="M187.279 297.396C187.002 297.329 186.757 297.166 186.587 296.935C186.416 296.705 186.331 296.422 186.344 296.136V289.574C186.344 285.766 185.569 283.265 184.065 282.048C183.132 281.318 181.987 280.915 180.805 280.901H180.304C179.06 281.018 177.835 281.29 176.657 281.705C176.201 281.866 175.699 282.026 175.198 282.233L174.058 282.646V271.586C172.85 272.002 171.779 272.299 171.118 272.506C170.371 272.698 169.608 272.813 168.838 272.849C168.268 272.849 167.995 273.101 167.995 273.607C167.995 274.111 168.314 274.409 168.929 274.639C169.2 274.716 169.437 274.882 169.602 275.112C169.768 275.34 169.852 275.618 169.841 275.902V296.136C169.856 296.419 169.773 296.698 169.607 296.928C169.441 297.158 169.202 297.324 168.929 297.396C168.314 297.602 167.995 297.948 167.995 298.406C167.995 298.865 168.291 299.162 168.838 299.162H175.061C175.608 299.162 175.882 298.91 175.882 298.406C175.882 297.948 175.585 297.602 174.97 297.396C174.695 297.326 174.453 297.163 174.286 296.933C174.12 296.702 174.039 296.419 174.058 296.136V284.664L174.559 284.482L175.631 284.069L176.634 283.702C177.199 283.505 177.791 283.397 178.389 283.38C178.811 283.37 179.23 283.445 179.622 283.603C180.014 283.762 180.37 283.997 180.668 284.297C181.864 285.814 182.42 287.741 182.218 289.666V298.658C182.218 299.05 182.492 299.256 182.993 299.256H187.552C188.099 299.256 188.373 299.002 188.373 298.498C188.191 297.948 187.871 297.602 187.279 297.396Z" fill="#3A529A"/>
<path d="M217.298 281.544C217.128 281.39 216.911 281.302 216.683 281.292C216.473 281.282 216.268 281.357 216.113 281.498L214.244 282.989L215.042 283.954C215.308 284.232 215.462 284.599 215.474 284.986C215.471 285.206 215.425 285.425 215.338 285.629L211.554 294.53L207.2 283.93C207.169 283.817 207.169 283.699 207.2 283.586C207.188 283.502 207.188 283.418 207.2 283.334C207.373 283.104 207.572 282.898 207.793 282.715C207.881 282.65 207.953 282.569 208.004 282.473C208.056 282.379 208.085 282.271 208.089 282.163C208.095 282.096 208.095 282.026 208.089 281.957C208.023 281.791 207.902 281.654 207.747 281.568C207.573 281.448 207.366 281.383 207.155 281.383H201.023C200.898 281.376 200.773 281.4 200.661 281.458C200.548 281.513 200.453 281.599 200.385 281.705C200.378 281.782 200.378 281.858 200.385 281.935C200.374 282.002 200.374 282.072 200.385 282.142C200.445 282.329 200.576 282.485 200.749 282.576C200.947 282.725 201.162 282.847 201.388 282.943C201.642 283.051 201.886 283.181 202.117 283.334C202.441 283.562 202.7 283.87 202.869 284.23L203.781 286.385L200.339 294.53L195.985 283.93C195.954 283.817 195.954 283.699 195.985 283.586C195.962 283.505 195.962 283.416 195.985 283.334C196.147 283.102 196.338 282.893 196.555 282.715C196.643 282.65 196.716 282.569 196.767 282.473C196.818 282.379 196.847 282.271 196.852 282.163C196.861 282.096 196.861 282.026 196.852 281.957C196.769 281.796 196.643 281.659 196.487 281.568C196.314 281.446 196.106 281.381 195.894 281.383H189.831C189.703 281.376 189.575 281.402 189.459 281.458C189.343 281.513 189.244 281.599 189.17 281.705C189.161 281.782 189.161 281.858 189.17 281.935C189.161 282.019 189.161 282.103 189.17 282.187C189.268 282.343 189.391 282.482 189.535 282.6C189.737 282.734 189.95 282.85 190.173 282.943C190.43 283.046 190.675 283.176 190.902 283.334C191.234 283.553 191.495 283.862 191.654 284.23L197.649 298.43L197.786 298.798C197.818 298.925 197.881 299.042 197.969 299.141C198.035 299.234 198.125 299.309 198.229 299.357C198.333 299.405 198.447 299.426 198.561 299.417H200.089C200.3 299.414 200.504 299.333 200.658 299.186C200.658 299.186 200.818 298.934 200.909 298.798L205.08 289.62L208.91 298.543C208.981 298.649 209.035 298.766 209.069 298.889C209.101 299.016 209.164 299.134 209.252 299.232C209.315 299.323 209.401 299.398 209.5 299.446C209.6 299.494 209.711 299.515 209.821 299.508H211.372C211.583 299.506 211.787 299.424 211.941 299.278C212.03 299.155 212.106 299.026 212.169 298.889L217.8 286.385C218.149 285.722 218.446 285.031 218.689 284.321C218.776 284.093 218.822 283.853 218.825 283.608C218.829 283.421 218.794 283.236 218.724 283.061C218.653 282.888 218.548 282.732 218.415 282.6L217.298 281.544Z" fill="#3A529A"/>
<path d="M228.536 280.901C226.284 280.855 224.099 281.676 222.427 283.195C220.86 284.669 219.86 286.651 219.601 288.794C219.486 289.469 219.425 290.15 219.418 290.837C219.383 292.927 220.076 294.965 221.378 296.594C222.302 297.689 223.468 298.548 224.783 299.105C226.097 299.664 227.523 299.904 228.946 299.806C231.032 299.911 233.086 299.258 234.736 297.97L235.01 297.672C235.172 297.473 235.303 297.247 235.397 297.007C235.552 296.765 235.646 296.491 235.67 296.203C235.672 296.126 235.657 296.047 235.626 295.978C235.594 295.906 235.547 295.841 235.488 295.79C235.346 295.697 235.179 295.649 235.01 295.654C234.42 295.747 233.855 295.958 233.346 296.273C232.322 296.858 231.171 297.18 229.995 297.214C229.597 297.209 229.201 297.17 228.81 297.098C227.43 296.794 226.216 295.973 225.413 294.804C224.489 293.558 223.993 292.046 224 290.491H235.215C235.99 290.491 236.377 290.33 236.423 290.009C236.468 289.69 236.423 289.274 236.423 288.794C236.532 286.69 235.811 284.628 234.417 283.058C233.639 282.307 232.715 281.726 231.702 281.357C230.69 280.985 229.611 280.831 228.536 280.901ZM223.977 288.358C224.018 287.148 224.388 285.974 225.048 284.962C225.413 284.41 225.912 283.961 226.499 283.661C227.086 283.358 227.741 283.214 228.399 283.241H228.582C229.197 283.171 229.819 283.277 230.377 283.55C230.934 283.822 231.402 284.249 231.727 284.779C232.346 285.871 232.683 287.102 232.707 288.358H223.977Z" fill="#3A529A"/>
<path d="M256.346 297.396C256.07 297.327 255.828 297.163 255.662 296.933C255.494 296.703 255.415 296.419 255.434 296.136V282.027C255.434 281.736 255.206 281.506 254.75 281.338C254.63 281.314 254.506 281.314 254.386 281.338C254.261 281.335 254.138 281.364 254.028 281.419C253.915 281.477 253.819 281.559 253.747 281.659C253.603 281.827 253.442 281.983 253.267 282.118C253.21 282.142 253.145 282.142 253.085 282.118C252.996 282.139 252.902 282.139 252.811 282.118L251.878 281.796C251.803 281.787 251.726 281.787 251.65 281.796C250.678 281.46 249.667 281.251 248.64 281.177H248.527C248.263 281.179 248.002 281.227 247.752 281.316L244.788 282.415L241.826 283.517C241.471 283.651 241.133 283.829 240.823 284.045C240.137 284.525 239.55 285.132 239.09 285.835C238.449 286.812 238.022 287.914 237.836 289.068C237.743 289.692 237.697 290.321 237.7 290.95C237.7 291.432 237.7 291.915 237.7 292.443C237.857 294.358 238.661 296.165 239.979 297.557C241.222 298.925 242.95 299.751 244.788 299.851H245.563C245.962 299.832 246.355 299.746 246.727 299.599L251.126 297.994V298.795C251.126 299.187 251.376 299.393 251.902 299.393H256.459C257.03 299.393 257.302 299.141 257.302 298.637C257.302 298.131 256.961 297.603 256.346 297.396ZM251.194 295.906L249.986 296.364L248.664 296.847C248.4 296.947 248.124 297.017 247.843 297.053H247.457C247.025 297.058 246.595 297.003 246.18 296.892C245.03 296.563 244.032 295.841 243.353 294.85C242.52 293.64 242.047 292.215 241.985 290.743C241.985 290.47 241.985 290.194 241.985 289.942C241.992 289.09 242.098 288.243 242.304 287.417C242.52 286.385 243.017 285.43 243.739 284.664C243.893 284.508 244.08 284.391 244.286 284.321L245.587 283.839C246.019 283.654 246.458 283.493 246.91 283.356C247.09 283.313 247.277 283.313 247.457 283.356C248.155 283.414 248.837 283.608 249.461 283.93C250.09 284.211 250.673 284.583 251.194 285.031V295.906Z" fill="#3A529A"/>
<path d="M270.204 281.04C269.657 281.222 268.906 281.474 267.924 281.842L266.009 282.554V280.26C264.802 280.673 263.731 280.97 263.047 281.177C262.301 281.378 261.538 281.503 260.767 281.544C260.22 281.544 259.946 281.796 259.946 282.278C259.946 282.761 260.244 283.104 260.858 283.334C261.13 283.402 261.367 283.562 261.535 283.788C261.701 284.016 261.785 284.292 261.77 284.573V296.227C261.79 296.51 261.708 296.794 261.542 297.024C261.374 297.254 261.132 297.42 260.858 297.49C260.244 297.696 259.946 298.039 259.946 298.498C259.946 298.956 260.22 299.256 260.789 299.256H267.012C267.559 299.256 267.833 299.002 267.833 298.498C267.833 298.039 267.538 297.696 266.921 297.49C266.65 297.415 266.41 297.25 266.244 297.019C266.078 296.791 265.994 296.51 266.009 296.227V287.945C266.028 287.004 266.23 286.078 266.602 285.214C266.743 284.875 266.971 284.578 267.264 284.354C267.557 284.134 267.902 283.994 268.267 283.954H268.608C269.726 283.954 270.523 284.825 271.001 286.615H272.734L273.19 281.429C272.46 281.15 271.69 280.987 270.91 280.949C270.672 280.942 270.432 280.973 270.204 281.04Z" fill="#3A529A"/>
</g>
</svg>
