<?xml version="1.0" encoding="UTF-8" standalone="no"?>
<!DOCTYPE svg PUBLIC "-//W3C//DTD SVG 1.1//EN" "http://www.w3.org/Graphics/SVG/1.1/DTD/svg11.dtd">
<!-- Created with Vectornator (http://vectornator.io/) -->
<svg height="100%" stroke-miterlimit="10" style="fill-rule:nonzero;clip-rule:evenodd;stroke-linecap:round;stroke-linejoin:round;" version="1.1" viewBox="0 0 512 512" width="100%" xml:space="preserve" xmlns="http://www.w3.org/2000/svg" xmlns:vectornator="http://vectornator.io" xmlns:xlink="http://www.w3.org/1999/xlink">
<defs/>
<clipPath id="ArtboardFrame">
<rect height="512" width="512" x="0" y="0"/>
</clipPath>
<g clip-path="url(#ArtboardFrame)" id="Untitled" vectornator:layerName="Untitled">
<g opacity="1">
<path d="M4.3 26C3.1 26.5 1.7 27.8 1.1 28.9C-0.1 31-0.5 428.5 0.6 431.5C2.4 436.2-3.3 436 161.4 436L315.9 436L316.2 459C316.5 481.4 316.6 482 318.8 484.2L321.1 486.5L368.4 486.5L415.8 486.5L418.4 484.1L421 481.7L421 458.8L421 436L463 436C507.3 436 509.7 435.8 511.4 431.5C511.7 430.6 512 339.9 512 230C512 34.8 512 30.2 510.1 27.9L508.2 25.5L257.3 25.3C114 25.2 5.6 25.5 4.3 26ZM494 68L494 93L256 93L18 93L18 68L18 43L256 43L494 43L494 68ZM230 187.5L230 264L124 264L18 264L18 187.5L18 111L124 111L230 111L230 187.5ZM475.5 112.4C472.6 114.3 255.1 252 251.3 254.3L248 256.2L248 183.6L248 111L362.7 111C459.5 111 477.1 111.2 475.5 112.4ZM494 193.5L494 264L445.8 263.8L397.6 263.5L387.3 247C375.8 228.7 375.5 227.4 380.4 220C386.9 210.2 399.1 210.6 423.5 221.4C442.6 229.9 445 230.5 457.5 230.5C466.3 230.5 469.2 230.1 472 228.6C479.1 224.9 484.6 218 486.3 210.9C487 208 486.8 207.9 475.3 206.4C470.3 205.8 470 205.9 466.7 209.4C463.6 212.7 462.8 213 457.9 213C451 213 446.3 211.5 430.8 204.6C415.1 197.7 405 195 394.8 195C376.5 195 364.7 204.3 360 222.4C358.4 228.7 356 233.6 347.8 247.1L337.5 264L304 264L270.5 263.9L276 260.5C279 258.6 329 226.9 387 190.1C445 153.3 492.8 123.1 493.3 123.1C493.7 123 494 154.7 494 193.5ZM417 344.9C406.6 355.6 403 365.6 403 383.7L403 395L368.5 395L334 395L334 384.2C334 366.2 330.2 356.2 319.4 345.4L313.2 339.3L335.6 302.5L358 265.6L358 288.8C358 306.9 357.7 312 356.7 312C354.4 312 348 318.1 345.8 322.3C341.1 331.4 343.9 345.5 351.8 352C362 360.4 375.1 359.9 384.6 350.6C391.7 343.7 393.7 335.5 390.8 325.8C389.4 321 383.2 313.7 379 312L376 310.8L376 287.2L376 263.6L399.3 301.4L422.5 339.3L417 344.9ZM326 282.5C326 282.7 323.9 286.3 321.4 290.5L316.9 298L258.4 298C196.6 298 195.3 298.1 193.6 302.5C193.3 303.4 193 325 193 350.4L193 396.7L195.6 399.1L198.2 401.5L257.1 401.8L316 402.1L316 410L316 418L167 418L18 418L18 350L18 282L172 282C256.7 282 326 282.2 326 282.5ZM494 350L494 418L457.5 418L421 418L421 410.1L421 402.1L446.9 401.8C472.8 401.5 472.8 401.5 475.4 399.1L478 396.7L478 350.1C477.9 315 477.6 303.1 476.7 301.9C473.9 298.3 471.5 298 444.8 298L418.5 298L415.8 293.2C414.3 290.6 412.1 287 410.9 285.2L408.8 282L451.4 282L494 282L494 350ZM298.8 327.7C293.3 336.8 291.6 340.4 291.6 343.4C291.5 347.6 291.1 347.1 302.9 355.8C311.2 361.8 315 368.4 315.8 377.5L316.3 384L263.6 384L211 384L211 350L211 316L258.5 316L305.9 316L298.8 327.7ZM460 350L460 384L440.5 384L421 384L421 379.2C421 369.4 425.8 360.1 433.7 354.7C447.6 345.3 447.6 345 431.8 319.2L429.8 316L444.9 316L460 316L460 350ZM403 441L403 469L368.5 469L334 469L334 441L334 413L368.5 413L403 413L403 441Z" fill="#000000" fill-rule="evenodd" opacity="1" stroke="none"/>
<path d="M34 68.5L34 78L43.5 78L53 78L53 68.5L53 59L43.5 59L34 59L34 68.5Z" fill="#000000" fill-rule="evenodd" opacity="1" stroke="none"/>
<path d="M68 68.5L68 78L77.5 78L87 78L87 68.5L87 59L77.5 59L68 59L68 68.5Z" fill="#000000" fill-rule="evenodd" opacity="1" stroke="none"/>
<path d="M102 68.5L102 78L111.5 78L121 78L121 68.5L121 59L111.5 59L102 59L102 68.5Z" fill="#000000" fill-rule="evenodd" opacity="1" stroke="none"/>
<path d="M34 137L34 146L68.5 146L103 146L103 137L103 128L68.5 128L34 128L34 137Z" fill="#000000" fill-rule="evenodd" opacity="1" stroke="none"/>
<path d="M34 171L34 180L102.5 180L171 180L171 171L171 162L102.5 162L34 162L34 171Z" fill="#000000" fill-rule="evenodd" opacity="1" stroke="none"/>
<path d="M40 204.7C39.2 205 37.5 206.2 36.3 207.3C34.1 209.3 34 209.8 34 230.5C34 251.3 34 251.7 36.3 253.8C38.6 256 38.6 256 89.6 256L140.7 256L143.1 253.4C145.4 250.9 145.5 250.3 145.8 232.7C146 221.2 145.8 213.1 145 210.8C143 203.9 144 204 89.8 204.1C63.2 204.1 40.8 204.4 40 204.7ZM128 230L128 238L90 238L52 238L52 230L52 222L90 222L128 222L128 230Z" fill="#000000" fill-rule="evenodd" opacity="1" stroke="none"/>
<path d="M38.5 299.2C34 301.8 34.1 301.3 34 350.1L34 396.7L36.6 399.1L39.2 401.5L105.7 401.5L172.2 401.5L174.6 398.7L177 395.9L177 349.5L177 303.2L173.9 300.6L170.8 298L105.7 298C58.5 298.1 39.9 298.4 38.5 299.2ZM159 350L159 384L105.5 384L52 384L52 350L52 316L105.5 316L159 316L159 350Z" fill="#000000" fill-rule="evenodd" opacity="1" stroke="none"/>
</g>
</g>
</svg>
