<?xml version="1.0" encoding="UTF-8" standalone="no"?>
<!DOCTYPE svg PUBLIC "-//W3C//DTD SVG 1.1//EN" "http://www.w3.org/Graphics/SVG/1.1/DTD/svg11.dtd">
<!-- Created with Vectornator (http://vectornator.io/) -->
<svg height="100%" stroke-miterlimit="10" style="fill-rule:nonzero;clip-rule:evenodd;stroke-linecap:round;stroke-linejoin:round;" version="1.1" viewBox="0 0 512 512" width="100%" xml:space="preserve" xmlns="http://www.w3.org/2000/svg" xmlns:vectornator="http://vectornator.io" xmlns:xlink="http://www.w3.org/1999/xlink">
<defs/>
<clipPath id="ArtboardFrame">
<rect height="512" width="512" x="0" y="0"/>
</clipPath>
<g clip-path="url(#ArtboardFrame)" id="Untitled" vectornator:layerName="Untitled">
<g opacity="1">
<path d="M458.2 2.59999C453.5 4.89999 446 12.1 446 14.2C446 14.6 444.5 15 442.8 15C438.2 15 429.9 19.1 426.7 23C425.1 24.8 423 28.1 421.8 30.4C420.7 32.6 419.6 34.7 419.4 34.9C419.2 35.1 415.7 33.8 411.6 32.1C407.5 30.4 403.4 29 402.5 29C399.1 29 395.2 32 393.7 35.9C392.4 39.2 391.5 40 388.8 40.5C381.5 41.8 329.7 49 329.5 48.8C329.3 48.6 328 39.5 326.4 28.5C323.8 9.89999 323.4 8.29999 320.9 5.69999C319.4 4.19999 317.3 2.99999 316.3 2.99999C311.7 2.99999 76.2 37.2 74.3 38.2C69.8 40.5 69.6 43.3 72.6 64.9C74.2 75.9 75.2 85.1 75 85.3C74.7 85.5 60.1 87.7 42.6 90.2C11.7 94.6 10.5 94.8 8.3 97.4C7 98.9 6 101.1 6 102.3C6 103.6 18.6 192.5 34 300C63.8 508 62.4 499.5 68.2 501.1C69.6 501.5 110.5 496 166.6 487.9C219.3 480.3 263 474.1 263.7 474C264.3 474 265.6 476 266.5 478.4L268.2 482.8L263.6 493.7C261.1 499.7 259 504.9 259 505.3C259 506.3 271.7 512 273.9 512C275.1 512 276.9 508.9 280.3 500.7L285 489.3L303.3 481.9L321.5 474.5L323.8 470C325 467.5 326.5 465.3 327.1 465.1C327.7 464.9 358.8 460.4 396.3 455C463.7 445.4 464.4 445.2 466.7 442.6C468 441.1 469 438.7 469 437.2C469 435.7 461.9 385.2 453.2 324.9L437.4 215.3L440 213.8C443.7 211.6 505.2 65.2 505.8 56.9C506.3 50.6 504.9 45.2 501.4 40.1C499.4 37.1 499.2 35.8 499.7 30.9C500.9 19.3 494.1 7.29999 483.5 2.39999C476.2-1.10001 465.3-1.00001 458.2 2.59999ZM312.8 60.4C315.8 81.1 318 98.3 317.8 98.5C317.2 99.1 100.8 130.1 100.3 129.7C100 129.3 89 53.6 89.3 53.4C90 53 305.7 22.2 306.5 22.4C307 22.6 309.9 39.6 312.8 60.4ZM464.9 39.7C485.3 48.2 488.4 50.3 487.8 55.3C487.6 57.1 474.6 89 458.9 126.3C433.3 187.3 430.3 194 428.5 193.6C424 192.4 381.5 174 381.7 173.3C382.3 170.2 438.7 37.1 439.9 35.6C441.2 34.1 444.1 32.4 445.9 32.1C446.1 32 454.6 35.5 464.9 39.7ZM410.3 51.1L412.7 52.2L394.7 95C377.5 136.1 376.6 137.9 374.6 136.8C373.4 136.2 372.3 135.6 372.1 135.4C371.7 135.1 407.2 50 407.7 50C407.8 50 409 50.5 410.3 51.1ZM382.7 62.2C381.9 64 374.5 81.7 366.2 101.6C357.2 122.9 351 139 351 140.9C351 145.3 354.1 148.1 362.7 151.4L369.8 154.2L364.8 166.2C360.3 177.1 360 178.5 361 181.5C362.1 184.8 359.7 190.6 308.1 313.8C278.3 384.6 254 443.8 254 445.2C254 446.7 254.9 449.9 256 452.4C257 454.9 257.6 457 257.2 457C256.8 457 216.6 462.7 167.8 469.7C119 476.7 78.8 482.2 78.6 481.9C77.9 481.3 25.1 111.6 25.6 111.1C26.1 110.5 77.4 103.1 77.8 103.5C78 103.7 79.5 113 81.1 124.2C83.8 142.9 84.2 144.7 86.6 146.7C88 148 90.4 149 92 149C93.5 149 148 141.4 213.1 132C309.5 118.2 331.9 114.7 334 113.2C337.5 110.5 337.6 106.4 334.5 85.4C333.1 75.6 332.2 67.4 332.5 67.2C332.8 66.9 344.4 65 358.3 62.9C372.1 60.9 383.6 59.2 383.8 59.1C383.9 59.1 383.4 60.5 382.7 62.2ZM398.5 202.5C406.2 205.7 412.8 208.6 413.1 208.9C413.5 209.2 390.1 265.9 361.1 334.9L308.5 460.2L296.5 465.2C290 467.9 284.1 469.9 283.4 469.6C282.4 469.2 273 447.2 273 445.1C273 444.6 295.9 389.5 323.9 322.8C351.9 256.1 375.5 199.8 376.4 197.7L377.9 193.9L381.2 195.3C383 196.1 390.8 199.3 398.5 202.5ZM436.2 333.2C443.7 385.6 449.7 428.7 449.4 428.9C449 429.3 334.7 445.9 334.4 445.6C334 445.3 421.4 238 422 238C422.3 238 428.7 280.9 436.2 333.2Z" fill="#000000" fill-rule="evenodd" opacity="1" stroke="none"/>
<path d="M209.321 191.946C139.014 203.254 81.2944 212.694 81.0977 212.89C80.311 213.579 83.1626 230 83.9493 230C85.4242 230 340.887 188.701 341.182 188.505C341.28 188.308 340.985 185.751 340.494 182.801C340.002 179.851 339.314 175.918 339.019 174.148C338.724 172.477 338.232 171.1 337.839 171.1C337.445 171.198 279.627 180.54 209.321 191.946Z" fill="#000000" fill-rule="evenodd" opacity="1" stroke="none"/>
<path d="M187.721 263.667C133.904 272.783 89.6929 280.331 89.3988 280.527C88.9087 281.116 91.5554 295.918 92.3396 296.8C92.9278 297.388 289.866 264.941 290.846 264.059C291.043 263.961 290.65 260.04 289.964 255.432C288.984 248.864 288.298 247.002 287.121 247.1C286.239 247.1 241.538 254.648 187.721 263.667Z" fill="#000000" fill-rule="evenodd" opacity="1" stroke="none"/>
<path d="M178.179 327.305C134.429 333.945 98.4918 339.609 98.1988 339.805C98.0035 340.098 98.3941 344.004 99.0777 348.691C100.054 355.429 100.543 356.992 101.812 356.601C102.691 356.406 139.507 350.84 183.745 344.199C227.886 337.558 264.506 331.894 264.995 331.601C265.678 331.211 265.581 328.184 264.799 323.008L263.725 315L260.698 315.098C259.038 315.195 221.929 320.664 178.179 327.305Z" fill="#000000" fill-rule="evenodd" opacity="1" stroke="none"/>
</g>
</g>
</svg>
